<svg width="40" height="40" viewBox="0 0 40 40" fill="none" xmlns="http://www.w3.org/2000/svg">
<path fill-rule="evenodd" clip-rule="evenodd" d="M26.6778 12.9651C26.3902 12.5178 25.6273 12.1159 24.1728 12C24.728 12.1479 25.1192 12.344 25.3152 12.5893C26.4458 14.0036 20.6745 16.516 12.425 18.2008C10.3401 18.6267 8.15298 18.9635 6.24463 19.1995C8.08406 19.0217 10.1786 18.7645 12.1742 18.4368C21.1763 16.9582 27.6699 14.5085 26.6778 12.9651Z" fill="#934A8A"/>
<path fill-rule="evenodd" clip-rule="evenodd" d="M1.33618 19.5466C4.2405 19.6888 7.44115 19.7331 10.7947 19.6442C23.6745 19.3029 33.8968 17.3077 33.7014 15.0282C33.613 13.9985 31.9074 13.3968 29.0891 12.8135C30.9483 13.2589 32.0739 13.8255 32.2111 14.4852C32.6409 16.5523 23.2147 18.7474 11.1577 19.388C7.65727 19.5739 4.3173 19.6421 1.33618 19.5466Z" fill="#009C58"/>
<path fill-rule="evenodd" clip-rule="evenodd" d="M1.33618 19.5129C4.32045 19.6081 7.65753 19.5738 11.1577 19.3879C23.2147 18.7473 32.6409 16.5522 32.2111 14.4851C32.0419 13.6713 30.3697 12.9989 27.6696 12.5215C29.4564 12.8933 30.5669 13.397 30.7597 14.0124C31.3644 15.9421 22.7296 18.2371 11.4739 19.1383C7.84089 19.4291 4.37618 19.5621 1.33618 19.5129Z" fill="#FCB900"/>
<path fill-rule="evenodd" clip-rule="evenodd" d="M1.33618 19.4906C4.37934 19.5398 7.84115 19.4299 11.4739 19.1391C22.7297 18.2379 31.3644 15.943 30.7597 14.0132C30.5218 13.2538 28.8876 12.6642 26.3077 12.2832C28.0199 12.5878 29.1105 13.0329 29.3514 13.6056C30.1069 15.402 22.2247 17.771 11.7464 18.8968C7.99325 19.3001 4.4135 19.4967 1.33618 19.4906Z" fill="#F07E3D"/>
<path fill-rule="evenodd" clip-rule="evenodd" d="M29.3513 13.6058C29.0541 12.899 27.4635 12.3863 25.006 12.0928C26.6416 12.3361 27.708 12.7266 27.9896 13.2581C28.8737 14.9256 21.7051 17.3454 11.9787 18.6628C8.27007 19.1651 4.34921 19.4467 1.33325 19.4954C4.32756 19.4861 8.14408 19.2841 11.7463 18.897C22.2245 17.7712 30.1067 15.4022 29.3513 13.6058Z" fill="#E30016"/>
<path fill-rule="evenodd" clip-rule="evenodd" d="M27.9896 13.2578C27.642 12.6019 26.507 12.2145 24.1727 12C25.7306 12.1878 26.3617 12.4736 26.6777 12.9651C27.6698 14.5085 21.1761 16.9582 12.1741 18.4368C8.73988 19.0009 5.4373 19.3418 2.60986 19.4624C5.42096 19.3793 8.63322 19.1156 11.9787 18.6625C21.7051 17.3451 28.8736 14.9253 27.9896 13.2578Z" fill="#E62C75"/>
<path fill-rule="evenodd" clip-rule="evenodd" d="M1.33618 19.5526C4.15267 19.8182 6.18161 19.889 10.3806 19.8618C23.9569 19.7736 34.9631 17.9748 34.9631 15.6473C34.9631 14.9311 33.9125 14.2106 32.0744 13.6201C33.072 14.031 33.6502 14.5355 33.7014 15.0287C33.9303 17.2368 23.6745 19.3034 10.7947 19.6447C7.44123 19.7335 4.23735 19.6947 1.33618 19.5526Z" fill="#005189"/>
<path fill-rule="evenodd" clip-rule="evenodd" d="M1.61099 22.3115L4.33543 22.3117L4.33437 25.273C5.03769 25.273 5.37759 25.2762 6.07959 25.2201C6.9433 25.1513 7.49912 25.0303 7.99245 24.7935C9.22911 24.1658 9.02887 22.3748 7.75465 21.8286C6.92349 21.4414 5.67106 21.3662 4.40069 21.3502L1.5937 21.3559L1.59351 20.6199L5.2423 20.6152C7.04442 20.6125 11.5556 20.9641 11.6736 23.3955C11.6715 24.6717 10.697 25.3362 9.63797 25.66C8.67366 25.9548 7.37019 26.1096 5.65406 26.1148C4.29988 26.1148 2.96559 26.1132 1.61137 26.1133L1.61099 22.3115Z" fill="black"/>
<path fill-rule="evenodd" clip-rule="evenodd" d="M16.2737 26.1251H11.7656L11.7668 25.4134C12.3277 25.4141 14.9618 25.4164 16.2752 25.4164C17.1028 25.4164 17.992 25.367 17.9662 24.5475C17.9274 23.7319 16.906 23.7635 16.2772 23.7635C15.2539 23.6987 13.9722 23.8516 13.0796 23.5771C12.5201 23.4044 11.6641 22.9997 11.7627 22.0728C11.9423 21.0097 13.2494 20.5895 14.3472 20.6101L20.8607 20.6102V21.3122H15.8375C15.3714 21.364 14.7154 21.4105 14.6676 22.1517C14.6397 23.1136 15.8303 23.0687 16.2777 23.0703C17.1492 23.0962 18.3905 23.0079 19.2625 23.1428C19.8682 23.2649 20.8255 23.5262 20.8478 24.5724C20.9024 26.4008 17.3363 26.0863 16.2737 26.1251Z" fill="black"/>
<path fill-rule="evenodd" clip-rule="evenodd" d="M34.2129 22.1818L34.9758 22.184L32.6192 26.1348L30.3518 26.1352L28.4521 22.8693L23.9656 22.8559V25.4462H29.0697V26.1353L22.6623 26.1354C22.6294 26.1379 22.5968 26.1393 22.5649 26.1398H22.523C21.7963 26.1322 21.2814 25.7857 21.2817 24.8543L21.2761 20.5801L23.9654 20.5954L23.9656 22.1941L30.3889 22.1802L32.2642 25.3265L34.2129 22.1818Z" fill="black"/>
<path fill-rule="evenodd" clip-rule="evenodd" d="M33.2624 29.2564V28.5228C33.2624 28.2342 33.1393 28.1244 32.8736 28.1244C32.6246 28.1244 32.426 28.3213 32.426 28.634V29.2564H31.989V28.5351C31.989 28.248 31.8633 28.1285 31.5983 28.1285C31.3523 28.1285 31.1486 28.2628 31.1486 28.5725V29.2564H30.6978V27.9025H31.1328V28.1094C31.3169 27.9325 31.4718 27.8432 31.7168 27.8432C31.94 27.8227 32.2225 27.9364 32.3713 28.1412C32.5083 27.98 32.6952 27.8432 33.0001 27.8432C33.3956 27.8718 33.677 27.9864 33.7012 28.3888V29.2564H33.2624Z" fill="black"/>
<path fill-rule="evenodd" clip-rule="evenodd" d="M36.3518 29.2569V27.897H36.7798V28.141C36.8478 28.0496 36.9127 27.9569 37.0293 27.9117C37.1761 27.8547 37.4024 27.8806 37.5621 27.8997V28.2021C37.1534 28.1342 36.7944 28.2821 36.7944 28.6488V29.2569H36.3518Z" fill="black"/>
<path fill-rule="evenodd" clip-rule="evenodd" d="M22.7943 29.2889V28.4097C22.7943 28.2658 22.7671 28.1674 22.7128 28.1142C22.6584 28.0614 22.5642 28.035 22.4296 28.035C22.2691 28.035 22.1446 28.0709 22.0555 28.1424C21.9664 28.2139 21.9221 28.3145 21.9221 28.4443V29.2889H21.5834V28.4097C21.5834 28.2658 21.5562 28.1674 21.5018 28.1142C21.4475 28.0614 21.354 28.035 21.2206 28.035C21.0614 28.035 20.9362 28.0714 20.8465 28.1438C20.7561 28.2162 20.7112 28.3164 20.7112 28.4443V29.2889H20.3782V27.8601H20.6967V28.0618C20.7706 27.9817 20.8579 27.922 20.9596 27.8829C21.0607 27.8437 21.1789 27.8241 21.3148 27.8241C21.438 27.8241 21.5436 27.8424 21.6314 27.8783C21.7192 27.9143 21.7945 27.9708 21.8571 28.0482C21.9436 27.9708 22.0384 27.9143 22.1408 27.8783C22.2432 27.8424 22.3607 27.8241 22.4941 27.8241C22.6224 27.8241 22.7343 27.841 22.8291 27.8743C22.9245 27.9075 22.9971 27.9558 23.0477 28.019C23.0762 28.0555 23.0964 28.0992 23.109 28.1497C23.121 28.2002 23.1273 28.2804 23.1273 28.3896V28.4311V29.2889H22.7943ZM23.9616 27.8601V28.7366C23.9616 28.8768 23.9919 28.9747 24.0532 29.0294C24.1146 29.084 24.2176 29.1113 24.3635 29.1113C24.5563 29.1113 24.7017 29.0708 24.8009 28.9893C24.8995 28.9078 24.9488 28.7881 24.9488 28.6296V27.8601H25.2818V29.2889H24.9633V29.0753C24.8944 29.1582 24.8047 29.2201 24.6954 29.262C24.5853 29.3039 24.4565 29.3249 24.3079 29.3249C24.1695 29.3249 24.0494 29.308 23.947 29.2743C23.8447 29.2402 23.7663 29.1924 23.712 29.13C23.681 29.0954 23.6588 29.0549 23.645 29.008C23.6317 28.9611 23.6247 28.8873 23.6247 28.7858V28.7179V27.8601H23.9616ZM27.1058 28.3355C27.0957 28.2376 27.047 28.1625 26.9585 28.1092C26.8701 28.0564 26.75 28.03 26.5964 28.03C26.4163 28.03 26.2772 28.0769 26.1793 28.1702C26.0813 28.2636 26.032 28.3969 26.032 28.5704C26.032 28.7443 26.0795 28.8787 26.1736 28.9729C26.2678 29.0672 26.4018 29.1145 26.5743 29.1145C26.7298 29.1145 26.8543 29.0854 26.9472 29.0275C27.0407 28.9697 27.0982 28.8855 27.1204 28.7753H27.4389C27.4218 28.9506 27.3359 29.0872 27.1816 29.1856C27.0274 29.2839 26.8202 29.3331 26.5597 29.3331C26.288 29.3331 26.075 29.2661 25.9202 29.1318C25.7653 28.9975 25.6876 28.8131 25.6876 28.5795C25.6876 28.34 25.7685 28.1529 25.9303 28.0172C26.0921 27.8815 26.3139 27.8137 26.5964 27.8137C26.846 27.8137 27.0451 27.8606 27.1956 27.9544C27.3453 28.0482 27.425 28.1752 27.4351 28.3355H27.1058ZM29.1004 29.2889V28.4097C29.1004 28.2685 29.0707 28.1711 29.0106 28.1178C28.9506 28.0646 28.8476 28.0377 28.7022 28.0377C28.5221 28.0377 28.3786 28.0746 28.2725 28.1479C28.1663 28.2212 28.1132 28.32 28.1132 28.4447V29.2889H27.7802V27.3242H28.1132V28.0618C28.1739 27.9844 28.2573 27.9252 28.3635 27.8847C28.4697 27.8442 28.5935 27.8241 28.7357 27.8241C28.8849 27.8241 29.0106 27.8405 29.113 27.8729C29.2154 27.9052 29.2944 27.9539 29.35 28.019C29.381 28.0536 29.4031 28.0941 29.417 28.1411C29.4303 28.1875 29.4372 28.2617 29.4372 28.3632V28.4311V29.2889H29.1004Z" fill="black"/>
<path fill-rule="evenodd" clip-rule="evenodd" d="M15.3779 28.831H15.6893C15.7016 28.9267 15.7483 28.9991 15.8306 29.0485C15.9129 29.0975 16.0296 29.1222 16.1806 29.1222C16.3194 29.1222 16.4294 29.1025 16.5099 29.0624C16.5903 29.0224 16.6303 28.9676 16.6303 28.8984C16.6303 28.8467 16.61 28.8067 16.5701 28.7793C16.5295 28.7514 16.4515 28.7275 16.3348 28.7073L15.9731 28.639C15.7692 28.603 15.6279 28.5554 15.5481 28.496C15.4682 28.4367 15.4283 28.3522 15.4283 28.2425C15.4283 28.118 15.4928 28.0191 15.6218 27.9458C15.7507 27.8726 15.927 27.8357 16.1518 27.8357C16.3809 27.8357 16.5627 27.8748 16.6984 27.953C16.8341 28.0312 16.9017 28.136 16.9017 28.2677V28.2731H16.5866C16.5792 28.1985 16.5375 28.1405 16.4613 28.0996C16.3852 28.0587 16.282 28.0384 16.1512 28.0384C16.0203 28.0384 15.9215 28.0551 15.8533 28.0883C15.7857 28.122 15.752 28.1706 15.752 28.2349C15.752 28.2803 15.7734 28.3162 15.8158 28.3419C15.8582 28.3679 15.938 28.3904 16.0541 28.4097L16.3674 28.4637C16.5903 28.5023 16.7439 28.5518 16.828 28.612C16.9122 28.6723 16.9539 28.7581 16.9539 28.8696C16.9539 29.0161 16.8833 29.1299 16.7426 29.2113C16.6014 29.2926 16.4048 29.3331 16.1518 29.3331C15.9043 29.3331 15.7145 29.2899 15.5818 29.204C15.4498 29.1178 15.3816 28.9937 15.3779 28.831ZM17.5687 28.5823C17.5687 28.7572 17.6203 28.8907 17.7229 28.9833C17.8254 29.0759 17.9716 29.1222 18.1626 29.1222C18.3518 29.1222 18.4974 29.0759 18.5981 28.9833C18.6988 28.8907 18.7491 28.7572 18.7491 28.5823C18.7491 28.4084 18.6988 28.2753 18.5981 28.1827C18.4974 28.0901 18.3518 28.0438 18.1626 28.0438C17.9704 28.0438 17.8236 28.0901 17.7216 28.1823C17.6197 28.2744 17.5687 28.4075 17.5687 28.5823ZM17.2377 28.5823C17.2377 28.3464 17.3181 28.162 17.4796 28.0303C17.6412 27.8986 17.8672 27.833 18.1589 27.833C18.4519 27.833 18.6792 27.8986 18.8407 28.0299C19.0028 28.1611 19.0839 28.3455 19.0839 28.5823C19.0839 28.8193 19.0034 29.004 18.8419 29.1357C18.6804 29.2674 18.4544 29.3331 18.1626 29.3331C17.8697 29.3331 17.6424 29.2674 17.4809 29.1362C17.3187 29.0049 17.2377 28.8201 17.2377 28.5823Z" fill="black"/>
<path fill-rule="evenodd" clip-rule="evenodd" d="M38.215 28.4333H39.144C39.1145 28.1458 38.9028 28.1084 38.6854 28.0924C38.4614 28.0964 38.2761 28.1454 38.215 28.4333ZM39.0938 28.8877H39.5707C39.4735 29.2827 38.993 29.3001 38.6736 29.3001C38.2514 29.3001 37.7537 29.1283 37.7537 28.5846C37.7537 28.0249 38.2286 27.8398 38.6736 27.8398C39.107 27.8398 39.7199 28.0508 39.5936 28.6609H38.2131C38.2494 28.9943 38.4859 29.0705 38.7063 29.0705C38.9136 29.0679 39.0428 29.007 39.0938 28.8877Z" fill="black"/>
<path fill-rule="evenodd" clip-rule="evenodd" d="M34.0713 28.576C34.0713 28.3491 34.154 28.1718 34.3201 28.0452C34.4862 27.9186 34.7187 27.8555 35.0186 27.8555C35.3199 27.8555 35.5536 27.9186 35.7197 28.0448C35.8864 28.171 35.9698 28.3482 35.9698 28.576C35.9698 28.8037 35.887 28.9814 35.721 29.108C35.5548 29.2347 35.3224 29.2978 35.0224 29.2978C34.7212 29.2978 34.4875 29.2347 34.3214 29.1084C34.1546 28.9823 34.0713 28.8046 34.0713 28.576ZM34.5011 28.5762C34.5011 28.4323 34.5458 28.3199 34.6357 28.2396C34.7256 28.1593 34.8513 28.1192 35.0135 28.1192C35.1765 28.1192 35.3029 28.1593 35.3927 28.2393C35.4829 28.3194 35.528 28.4317 35.528 28.5762C35.528 28.7207 35.4833 28.8333 35.3934 28.9137C35.3036 28.994 35.1779 29.034 35.0156 29.034C34.8526 29.034 34.7262 28.994 34.6364 28.9139C34.5462 28.8339 34.5011 28.7212 34.5011 28.5762Z" fill="black"/>
<path fill-rule="evenodd" clip-rule="evenodd" d="M35.5969 22.3128V22.7241H35.5156V22.207H35.6489L35.7622 22.5718L35.8832 22.207H36.0115V22.7241H35.9267V22.3217L35.8031 22.7241H35.7234L35.5969 22.3128Z" fill="black"/>
<path fill-rule="evenodd" clip-rule="evenodd" d="M35.198 22.7255V22.2912H35.0498V22.207H35.4313V22.2912H35.2814V22.7255H35.198Z" fill="black"/>
</svg>
