<svg width="24" height="24" viewBox="0 0 24 24" fill="none" xmlns="http://www.w3.org/2000/svg">
<path d="M4.56676 9.69928C5.06184 9.69959 5.55704 9.70565 6.05195 9.69656C6.24501 9.69301 6.28922 9.7765 6.29217 9.94471C6.29526 10.1212 6.21604 10.1651 6.05129 10.1659C5.37577 10.169 4.69969 10.1389 4.02483 10.1934C3.59829 10.2279 3.18468 10.3123 2.80213 10.5047C2.27216 10.7712 1.91479 11.1641 1.90057 11.7731C1.88611 12.3928 2.22412 12.8143 2.76522 13.0844C3.45126 13.4268 4.18847 13.4998 4.94416 13.3948C5.24892 13.3524 5.35286 13.2133 5.35608 12.9094C5.35827 12.7031 5.3496 12.4965 5.35722 12.2904C5.36311 12.131 5.2921 12.07 5.13357 12.0728C4.89006 12.0772 4.6458 12.0623 4.40298 12.0754C4.20672 12.0859 4.12105 12.038 4.1233 11.8251C4.12547 11.6196 4.21694 11.5891 4.39542 11.5905C5.18122 11.5963 5.96717 11.5864 6.75289 11.5959C6.94304 11.5982 7.02392 11.5555 7.061 11.3583C7.20182 10.6093 7.70854 10.1241 8.41022 9.898C9.61722 9.50901 10.8581 9.48877 12.0646 9.90569C13.4912 10.3987 13.943 12.0818 12.9624 13.1389C12.619 13.5091 12.1772 13.7272 11.6844 13.827C10.5283 14.0611 9.37755 14.0899 8.25814 13.6458C7.91844 13.511 7.63199 13.3001 7.40749 13.014C7.37451 12.972 7.33766 12.9202 7.27879 12.9239C7.22017 12.9275 7.21434 12.9861 7.2157 13.0304C7.2306 13.5172 6.87702 13.6821 6.48894 13.8048C6.33384 13.8539 6.16624 13.8849 6.00348 13.8886C4.87281 13.9142 3.7403 13.9704 2.61463 13.8133C2.01315 13.7294 1.42825 13.5844 0.904859 13.2641C-0.336571 12.5043 -0.292669 10.9887 0.987633 10.2932C1.6546 9.9309 2.38494 9.8071 3.12985 9.73938C3.60731 9.69597 4.08723 9.6944 4.56676 9.69928ZM8.91043 11.6412C8.90991 12.2102 8.9949 12.5274 9.20312 12.8821C9.67321 13.6829 10.6227 13.7437 11.1952 13.0104C11.3002 12.8761 11.3414 12.7149 11.4117 12.5662C11.7283 11.8959 11.5548 10.9072 11.0078 10.405C10.5406 9.97605 9.90548 9.97616 9.44807 10.4161C9.05701 10.7922 8.91736 11.2677 8.91043 11.6412Z" fill="#DD0514"/>
<path d="M14.9997 13.9108C14.8584 13.9107 14.716 13.9113 14.5761 13.8954C14.0449 13.8349 13.7278 13.4917 13.7264 12.972C13.7237 11.9939 13.7258 11.0158 13.7274 10.0376C13.7278 9.75589 13.7838 9.70017 14.0693 9.6985C14.4936 9.69602 14.9178 9.69532 15.3421 9.698C15.5994 9.69962 15.6618 9.76228 15.6644 10.0084C15.6663 10.1994 15.6754 10.3911 15.6623 10.5813C15.6488 10.776 15.7317 10.8305 15.9232 10.8292C16.9366 10.8224 17.9503 10.8343 18.9636 10.8205C19.2367 10.8167 19.407 10.8971 19.5627 11.1217C20.054 11.8306 20.5707 12.5227 21.0792 13.2201C21.2462 13.4492 21.26 13.4484 21.4384 13.2218C22.011 12.4947 22.5825 11.7667 23.1555 11.0399C23.2958 10.8619 23.7368 10.7486 23.9407 10.8395C24.0643 10.8946 23.9609 10.9548 23.9291 10.9963C23.6241 11.3941 22.2174 13.1743 21.8361 13.6787C21.7056 13.8513 21.5575 13.9184 21.34 13.9169C20.2401 13.9095 16.0132 13.912 14.9997 13.9108ZM17.6112 13.4604C18.1137 13.4604 18.6162 13.4608 19.1187 13.4598C19.1714 13.4597 19.2381 13.4756 19.2666 13.4174C19.2947 13.3598 19.239 13.3186 19.2079 13.279C18.7225 12.66 18.2341 12.0432 17.7495 11.4236C17.6719 11.3245 17.5819 11.2729 17.4515 11.2739C16.9332 11.2777 16.4149 11.2815 15.8966 11.2753C15.705 11.273 15.6581 11.3566 15.6613 11.5273C15.6703 12.0007 15.6636 12.4744 15.6661 12.9479C15.6683 13.3559 15.7687 13.4563 16.1976 13.4615C16.6687 13.4672 17.6112 13.4612 17.6112 13.4604Z" fill="#05893B"/>
</svg>
