<svg width="47" height="47" viewBox="0 0 47 47" fill="none" xmlns="http://www.w3.org/2000/svg">
<path fill-rule="evenodd" clip-rule="evenodd" d="M15.3539 42.0287C15.9568 42.0287 16.3973 42.1564 16.6756 42.4118C16.9538 42.6671 17.0931 43.0643 17.0934 43.6032V46.4918H16.1891V43.7254C16.1891 43.1163 15.8476 42.8117 15.1645 42.8117C14.8695 42.8093 14.5798 42.8908 14.3293 43.0467C14.3727 43.229 14.393 43.4159 14.39 43.6032V46.4918H13.4857V43.7254C13.4857 43.1163 13.1442 42.8117 12.4611 42.8117C12.1494 42.812 11.8403 42.8681 11.5484 42.9772V46.4918H10.6445V42.4813C10.9438 42.3326 11.2605 42.222 11.5874 42.1523C11.936 42.0711 12.2925 42.0288 12.6505 42.0264C13.2145 42.0264 13.6336 42.136 13.9078 42.3554C14.3593 42.1397 14.8535 42.028 15.3539 42.0287ZM20.1917 46.6244C19.5023 46.6244 18.9842 46.4271 18.6374 46.0327C18.2905 45.6382 18.1169 45.064 18.1166 44.3101C18.1166 42.7845 18.8059 42.0218 20.1846 42.0221C20.8793 42.0221 21.4016 42.2178 21.7516 42.6092C22.1016 43.0005 22.2767 43.5675 22.277 44.3101C22.277 45.0521 22.0962 45.6233 21.7347 46.0237C21.3731 46.4242 20.8587 46.6244 20.1917 46.6244ZM20.1827 45.8498C20.9751 45.8498 21.3712 45.3366 21.3709 44.3101C21.3709 43.7997 21.2769 43.4184 21.0889 43.1661C20.9009 42.9139 20.5995 42.7876 20.1846 42.7873C19.7657 42.7873 19.4658 42.9164 19.285 43.1746C19.1042 43.4328 19.0138 43.8113 19.0138 44.3101C19.0138 44.8086 19.107 45.1899 19.2935 45.4541C19.4799 45.7182 19.7763 45.8495 20.1827 45.8479V45.8498ZM25.2959 42.0306C25.9388 42.0306 26.4267 42.2249 26.7594 42.6134C27.0922 43.0019 27.259 43.5523 27.26 44.2645C27.26 45.1231 27.0605 45.7306 26.6617 46.0872C26.2628 46.4438 25.7558 46.6228 25.1408 46.6244C23.9065 46.6244 23.2894 46.2938 23.2894 45.6327V40.3757H24.1852V42.3004C24.3654 42.2143 24.5545 42.1486 24.7492 42.1044C24.928 42.0585 25.1114 42.0331 25.2959 42.0287V42.0306ZM25.0717 45.8324C25.5417 45.8324 25.8707 45.6961 26.0587 45.4235C26.2467 45.1509 26.3407 44.7768 26.3407 44.3012C26.3407 43.8143 26.2416 43.4431 26.0436 43.1877C25.8456 42.9324 25.5515 42.8049 25.1614 42.8052C24.9915 42.8063 24.8223 42.8281 24.6576 42.87C24.4927 42.9098 24.3344 42.9732 24.1876 43.058V45.408C24.186 45.69 24.4807 45.8309 25.0717 45.8306V45.8324ZM28.2818 40.6037H29.2462V41.4304H28.2818V40.6037ZM28.3076 42.1523H29.2119L29.2204 46.4937H28.3076V42.1523ZM30.4931 46.4937V40.4716H31.3889V46.4918L30.4931 46.4937ZM34.4181 42.0184C35.0899 42.0184 35.5821 42.2377 35.8948 42.6764C36.2075 43.1151 36.3611 43.7284 36.3554 44.5164H33.323C33.3521 44.9457 33.4775 45.272 33.699 45.4954C33.9205 45.7189 34.2348 45.8304 34.6418 45.8301C35.1294 45.8306 35.6093 45.7079 36.0368 45.4734V46.3259C35.589 46.5249 35.0761 46.6244 34.498 46.6244C33.8494 46.6244 33.3399 46.4257 32.9695 46.0284C32.5992 45.6311 32.4142 45.0671 32.4145 44.3364C32.4145 43.5882 32.5895 43.0156 32.9395 42.6186C33.2895 42.2216 33.7823 42.0215 34.4181 42.0184ZM34.3922 42.7704C34.088 42.7704 33.8499 42.8517 33.6778 43.0143C33.5058 43.1769 33.3938 43.4524 33.3418 43.8406H35.4342C35.3938 43.4693 35.2904 43.1982 35.124 43.0275C34.9576 42.8567 34.7137 42.771 34.3922 42.7704ZM25.756 6.978C24.7586 6.73141 23.991 6.60796 23.453 6.60764C19.4397 6.60764 16.1858 9.85065 16.1858 13.8499C16.1858 17.8491 19.4411 21.0926 23.453 21.0926C27.4649 21.0926 30.7206 17.8496 30.7206 13.8499C30.7209 13.2656 30.6505 12.6834 30.511 12.116L36.2887 10.5599C36.7567 12.3392 36.8452 14.197 36.5485 16.0127C36.2517 17.8285 35.5763 19.5615 34.5661 21.0992L24.9988 38.8365H16.1356L22.4336 27.2275C22.4679 27.1636 22.3668 27.0226 22.2822 27.015C15.5523 26.404 10.2808 20.764 10.2808 13.8978C10.2808 6.62268 16.1981 0.725594 23.4981 0.725594C24.8344 0.724125 26.1633 0.924894 27.4395 1.32108L25.756 6.978Z" fill="#006E53"/>
<path d="M23.4093 17.8327C25.6092 17.8327 27.3925 16.0493 27.3925 13.8495C27.3925 11.6496 25.6092 9.86621 23.4093 9.86621C21.2094 9.86621 19.426 11.6496 19.426 13.8495C19.426 16.0493 21.2094 17.8327 23.4093 17.8327Z" fill="#D6E806"/>
<path d="M30.2897 11.1343C29.5996 9.40686 28.2695 8.01232 26.5767 7.24129M32.8248 10.0477C31.8502 7.65183 30.0074 5.71202 27.6647 4.61587M35.2693 9.23316C34.0279 6.07465 31.5867 3.53596 28.4792 2.17188" stroke="#D6E806" stroke-linecap="round"/>
</svg>
