<svg width="43" height="43" viewBox="0 0 43 43" fill="none" xmlns="http://www.w3.org/2000/svg">
<g id="Frame">
<path id="Vector" d="M26.5697 0.527344C27.993 0.547124 29.351 0.817164 30.619 1.46216C31.737 2.03449 32.6486 2.83472 33.2708 3.93767C33.6752 4.66578 33.9405 5.46283 34.053 6.28805C34.2844 7.87217 34.0504 9.40469 33.528 10.9032C33.221 11.7822 32.7961 12.6065 32.336 13.4162C31.3986 15.0644 30.1942 16.4928 28.7932 17.7592C26.9959 19.3854 25.0249 20.8088 22.916 22.0037C22.099 22.4651 21.2519 22.8525 20.3407 23.0894C19.7825 23.2402 19.2062 23.3131 18.628 23.3062C17.8669 23.2907 17.2714 22.9441 16.8083 22.3602C16.3806 21.8361 16.1603 21.1732 16.1891 20.4974C16.1941 20.3094 16.2213 20.1226 16.2699 19.941C16.5456 18.9619 16.9201 18.024 17.48 17.1688C17.9078 16.5156 18.4178 15.9355 19.0847 15.5206C19.8265 15.0588 20.6327 14.8614 21.5047 15.0519C21.7774 15.1158 22.034 15.2351 22.2585 15.4023C22.8326 15.8126 22.8025 16.4563 22.5269 16.8673C22.2907 17.2246 22.0267 17.5626 21.7374 17.8783C21.2472 18.4063 20.7264 18.9055 20.2182 19.4164C19.7684 19.8683 19.3457 20.3426 19.003 20.8831C18.8254 21.1635 18.6616 21.4494 18.6126 21.7861C18.5507 22.2084 18.77 22.496 19.1961 22.5356C19.4166 22.5536 19.6385 22.5313 19.851 22.4698C20.5059 22.2888 21.1139 21.9968 21.7112 21.6821C22.6322 21.1949 23.4823 20.5993 24.3109 19.9711C25.3154 19.2096 26.2919 18.4153 27.1919 17.5321C28.2171 16.5272 29.1308 15.435 29.83 14.1747C30.3408 13.2545 30.7171 12.2827 30.8843 11.2404C31.0323 10.3223 30.9497 9.42791 30.5244 8.58511C30.3196 8.16854 29.9993 7.81969 29.6017 7.5802C29.418 7.46967 29.2155 7.39415 29.0044 7.35746C28.236 7.22115 27.4925 7.33295 26.7619 7.57676C26.0004 7.83132 25.2939 8.20284 24.6072 8.60876C23.1168 9.49284 21.6247 10.3765 20.2044 11.3719C19.4923 11.8707 18.8022 12.4014 18.1043 12.9199C17.4739 13.3886 16.8479 13.8629 16.159 14.2461C15.6 14.5644 14.9949 14.794 14.3655 14.9268C13.5854 15.085 12.8665 14.9379 12.206 14.514C11.5206 14.0741 11.0407 13.4703 10.83 12.6714C10.6958 12.167 10.7487 11.6669 10.8644 11.169C11.0334 10.438 11.3542 9.77578 11.7541 9.14798C12.7431 7.5974 13.9866 6.28203 15.4327 5.15758C17.5758 3.49133 19.934 2.20821 22.4847 1.27984C23.7943 0.800812 25.1754 0.5464 26.5697 0.527344Z" fill="#E20010"/>
<path id="Vector_2" d="M8.93797 35.9781C8.93066 35.4914 8.87519 35.0536 8.59397 34.674C8.45702 34.4905 8.26743 34.3531 8.05045 34.2801C7.49145 34.0797 6.92213 34.1033 6.367 34.2749C5.92195 34.4125 5.49281 34.6 5.05722 34.7673C4.97122 34.7991 4.89296 34.8399 4.7889 34.8864C4.58379 34.3777 4.38212 33.884 4.17099 33.368C4.47672 33.2231 4.76482 33.0752 5.06195 32.9484C5.74651 32.6555 6.45643 32.4547 7.20292 32.4096C7.9494 32.3644 8.68599 32.404 9.36539 32.766C10.1338 33.1728 10.6885 33.7602 10.9207 34.615C10.9542 34.7269 10.9743 34.8424 10.9805 34.959C11.0101 36.0689 11.0501 37.1787 11.0549 38.2885C11.0579 39.047 11.008 39.806 10.9856 40.5649C10.9816 40.669 10.9383 40.7677 10.8644 40.841C10.3333 41.4258 9.68359 41.83 8.94743 42.1013C8.15802 42.3894 7.31736 42.5102 6.4788 42.4561C5.7048 42.4131 5.03658 42.0962 4.47156 41.5703C3.90654 41.0444 3.5118 40.4093 3.40172 39.631C3.25122 38.565 3.55867 37.6401 4.32493 36.879C4.81771 36.3897 5.42487 36.1368 6.109 36.0474C6.8658 35.9489 7.62518 35.9751 8.38456 35.9773L8.93797 35.9781ZM8.83864 37.711C8.79403 37.7022 8.74895 37.6961 8.70362 37.6926C8.44562 37.6874 8.18461 37.6784 7.92532 37.6822C7.61443 37.687 7.30225 37.6883 6.99308 37.7175C6.67359 37.748 6.36356 37.8413 6.11588 38.0546C5.7048 38.4089 5.58268 38.8716 5.68287 39.3932C5.80757 40.0382 6.16791 40.4888 6.81033 40.6806C7.14157 40.7797 7.49231 40.7945 7.83072 40.7236C8.14526 40.6661 8.43865 40.5253 8.6804 40.316C8.72132 40.2842 8.75497 40.2441 8.77908 40.1983C8.80318 40.1524 8.81719 40.1019 8.82015 40.0502C8.83004 39.8236 8.85928 39.5974 8.861 39.3708C8.86444 38.8518 8.8567 38.3328 8.8524 37.8138C8.84982 37.7793 8.84522 37.745 8.83864 37.711Z" fill="#E20010"/>
<path id="Vector_3" d="M34.8012 37.6682C32.9565 37.6682 31.1462 37.6286 29.3106 37.6768C29.32 37.8058 29.3256 37.9279 29.3372 38.047C29.3845 38.5342 29.4894 39.0076 29.6954 39.4544C29.8556 39.8188 30.1042 40.1375 30.4187 40.3815C30.9175 40.7603 31.4868 40.8222 32.0841 40.7452C32.5777 40.6816 33.0374 40.501 33.4957 40.3191C33.706 40.2361 33.9146 40.1471 34.1407 40.0547C34.3557 40.5044 34.5664 40.9465 34.7857 41.4014C34.7453 41.4307 34.7075 41.4633 34.6653 41.4874C33.7709 42.018 32.8103 42.3599 31.7727 42.4502C30.8267 42.5323 29.9237 42.3771 29.1067 41.8538C28.5503 41.4973 28.1607 40.9938 27.8348 40.4305C27.4334 39.7297 27.1903 38.9494 27.1227 38.1446C26.9863 36.6772 27.2979 35.3109 28.0575 34.0458C28.5873 33.1665 29.3781 32.6888 30.3679 32.5241C31.2778 32.3641 32.215 32.5201 33.024 32.9661C33.4773 33.2116 33.7929 33.5982 34.053 34.0317C34.397 34.6031 34.5781 35.2331 34.6649 35.8858C34.7354 36.4121 34.7578 36.9449 34.7999 37.4768C34.8051 37.5314 34.8012 37.5882 34.8012 37.6682ZM32.5652 35.9976C32.4582 35.507 32.3851 35.0056 32.0638 34.5898C31.9028 34.3831 31.6765 34.237 31.4219 34.1753C30.7446 33.996 30.0639 34.3081 29.7728 34.9493C29.6687 35.1776 29.6077 35.4257 29.532 35.6661C29.498 35.7749 29.4761 35.888 29.449 35.9976C29.6309 36.0458 32.379 36.0479 32.5661 35.9989L32.5652 35.9976Z" fill="#E20010"/>
<path id="Vector_4" d="M22.6998 30.1736L24.9009 29.833V32.5364C25.3894 32.5657 25.8547 32.5338 26.3225 32.5841V34.2495C25.8495 34.2573 25.3864 34.2431 24.9035 34.2723C24.9035 34.3661 24.9035 34.4362 24.9035 34.5062C24.8995 36.1093 24.8961 37.7125 24.8932 39.3158C24.8932 39.5682 24.9134 39.821 24.9362 40.0726C24.9723 40.4596 25.1869 40.7051 25.5618 40.7993C25.7687 40.8518 25.9811 40.8814 26.1909 40.9214L26.4016 40.9644V42.3778C26.3779 42.3895 26.3528 42.3979 26.3268 42.4028C25.702 42.4307 25.0798 42.4144 24.4757 42.2308C23.8857 42.0527 23.3938 41.7302 23.0601 41.1988C22.8705 40.8978 22.7741 40.5594 22.7324 40.2098C22.7072 39.9908 22.6949 39.7706 22.6955 39.5501C22.6955 36.5057 22.6972 33.4616 22.7006 30.4178L22.6998 30.1736Z" fill="#E20010"/>
<path id="Vector_5" d="M36.0112 30.1756L38.1397 29.8066V30.1003C38.1397 32.8652 38.1408 35.6301 38.1431 38.395C38.1431 38.9011 38.1474 39.4072 38.1513 39.9138C38.1547 40.4134 38.337 40.668 38.8143 40.8168C38.9765 40.8616 39.1412 40.897 39.3076 40.9226C39.409 40.9415 39.5118 40.9505 39.6352 40.9656V42.4095C39.6238 42.419 39.6102 42.4256 39.5957 42.4289C38.9911 42.4534 38.3891 42.4435 37.8013 42.2715C37.4451 42.169 37.1134 41.9952 36.8265 41.7606C36.292 41.3233 36.0744 40.7372 36.0185 40.0763C36.0021 39.8828 36.0043 39.6872 36.0047 39.4928C36.0047 36.4682 36.0069 33.4439 36.0112 30.4198V30.1756Z" fill="#E20010"/>
<path id="Vector_6" d="M18.4203 42.2813H16.2703C16.2677 42.1914 16.2634 42.1093 16.263 42.028C16.2607 40.7363 16.2588 39.4446 16.2574 38.1529C16.2548 37.1209 16.2484 36.0889 16.2488 35.0569C16.2495 34.8697 16.2639 34.6829 16.2918 34.4979C16.3236 34.2867 16.4341 34.1109 16.5876 33.9625C17.4322 33.1404 18.4439 32.6476 19.5976 32.4352C20.3207 32.3026 21.0617 32.3016 21.785 32.4321C21.8233 32.439 21.8616 32.4476 21.899 32.4571C21.9175 32.4618 21.9351 32.4709 21.9708 32.4846C21.7266 33.1055 21.429 33.6989 21.1486 34.2855C20.8137 34.2855 20.4963 34.2756 20.1799 34.2876C19.6333 34.3057 19.0968 34.4394 18.6056 34.6798C18.4663 34.7481 18.4143 34.8333 18.4147 34.9937C18.4207 37.3443 18.4222 39.695 18.419 42.0457L18.4203 42.2813Z" fill="#E20010"/>
<path id="Vector_7" d="M14.6845 32.6279C14.7073 35.8495 14.6823 39.0521 14.703 42.2745H12.599C12.5938 42.1967 12.5835 42.1154 12.5835 42.0342C12.5835 40.0089 12.5835 37.9833 12.5835 35.9574C12.5835 35.029 12.5912 34.1007 12.5951 33.1723C12.5951 33.1018 12.5951 33.0313 12.5951 32.9427L14.6845 32.6279Z" fill="#E20010"/>
<path id="Vector_8" d="M13.545 31.6796C12.5178 31.677 11.8745 30.6545 12.3006 29.6892C12.5625 29.097 13.0123 28.8722 13.6611 28.876C14.5306 28.8833 15.1752 29.7481 14.9679 30.593C14.8023 31.2681 14.2605 31.6813 13.545 31.6796Z" fill="#E20010"/>
</g>
</svg>
