<svg width="35" height="38" viewBox="0 0 35 38" fill="none" xmlns="http://www.w3.org/2000/svg">
<g id="Clip path group">
<mask id="mask0_1816_3637" style="mask-type:luminance" maskUnits="userSpaceOnUse" x="0" y="0" width="35" height="38">
<g id="clip0">
<path id="Vector" d="M34.7843 0.065918H0V37.0659H34.7843V0.065918Z" fill="white"/>
</g>
</mask>
<g mask="url(#mask0_1816_3637)">
<g id="Group">
<path id="Vector_2" d="M29.0007 35.586C26.7616 37.5321 24.2912 37.2289 21.9365 36.3111C19.433 35.3751 17.1443 35.316 14.5004 36.3111C11.2079 37.584 9.46039 37.214 7.47744 35.586C-3.71797 25.263 -2.06551 9.53803 10.6584 8.94603C13.7444 9.09403 15.905 10.4741 17.7227 10.5888C20.4245 10.0967 23.0106 8.68703 25.9024 8.87203C29.3765 9.12363 31.9751 10.352 33.7102 12.5609C26.5633 16.4089 28.2571 24.8449 34.8216 27.213C33.5077 30.3025 31.8222 33.355 28.9967 35.612L29.0007 35.586ZM17.4748 8.83503C17.1402 4.24703 21.292 0.473027 26.0676 0.103027C26.7245 5.39403 20.6971 9.35303 17.4748 8.83503Z" fill="black"/>
</g>
</g>
</g>
</svg>
