<svg width="24" height="25" viewBox="0 0 24 25" fill="none" xmlns="http://www.w3.org/2000/svg">
<g clip-path="url(#clip0_1207_9524)">
<rect y="0.5" width="24" height="24" rx="12" fill="#6B34FF" fill-opacity="0.1"/>
<g filter="url(#filter0_d_1207_9524)">
<path d="M8.21622 6H6.51351C6.1121 6 5.72714 6.15946 5.4433 6.4433C5.15946 6.72714 5 7.1121 5 7.51351V9.21622M19 9.21622V7.51351C19 7.1121 18.8405 6.72714 18.5567 6.4433C18.2729 6.15946 17.8879 6 17.4865 6H15.7838M15.7838 20H17.4865C17.8879 20 18.2729 19.8405 18.5567 19.5567C18.8405 19.2729 19 18.8879 19 18.4865V16.7838M5 16.7838V18.4865C5 18.8879 5.15946 19.2729 5.4433 19.5567C5.72714 19.8405 6.1121 20 6.51351 20H8.21622M9.0793 11.5103V10.1622M14.9207 11.5103V10.1622M11.1014 14.6554H11.5509C11.7892 14.6554 12.0178 14.5607 12.1863 14.3922C12.3548 14.2237 12.4495 13.9951 12.4495 13.7568V10.1622M14.6959 16.1303C13.9634 17.1012 12.8449 17.3514 12 17.3514C11.1551 17.3514 10.0366 17.1016 9.30405 16.1303" stroke="#6B34FF" stroke-linecap="round" stroke-linejoin="round" shape-rendering="crispEdges"/>
</g>
</g>
<defs>
<filter id="filter0_d_1207_9524" x="0.5" y="5.5" width="23" height="23" filterUnits="userSpaceOnUse" color-interpolation-filters="sRGB">
<feFlood flood-opacity="0" result="BackgroundImageFix"/>
<feColorMatrix in="SourceAlpha" type="matrix" values="0 0 0 0 0 0 0 0 0 0 0 0 0 0 0 0 0 0 127 0" result="hardAlpha"/>
<feOffset dy="4"/>
<feGaussianBlur stdDeviation="2"/>
<feComposite in2="hardAlpha" operator="out"/>
<feColorMatrix type="matrix" values="0 0 0 0 0 0 0 0 0 0 0 0 0 0 0 0 0 0 0.25 0"/>
<feBlend mode="normal" in2="BackgroundImageFix" result="effect1_dropShadow_1207_9524"/>
<feBlend mode="normal" in="SourceGraphic" in2="effect1_dropShadow_1207_9524" result="shape"/>
</filter>
<clipPath id="clip0_1207_9524">
<rect y="0.5" width="24" height="24" rx="12" fill="white"/>
</clipPath>
</defs>
</svg>
