<svg width="25" height="31" viewBox="0 0 25 31" fill="none" xmlns="http://www.w3.org/2000/svg">
<g id="Logo SVG" clip-path="url(#clip0_888_7329)">
<g id="Clip path group">
<mask id="mask0_888_7329" style="mask-type:luminance" maskUnits="userSpaceOnUse" x="0" y="0" width="25" height="31">
<g id="__lottie_element_38366">
<path id="Vector" d="M24.2799 0H0.720215V30.9996H24.2799V0Z" fill="white"/>
</g>
</mask>
<g mask="url(#mask0_888_7329)">
<g id="Group">
<g id="Group_2">
<g id="Group_3">
<path id="Vector_2" d="M10.649 30.9336C10.5817 30.9174 10.3587 30.8648 10.1536 30.8167C8.8132 30.5027 7.45044 29.8665 6.31223 29.0237C3.92098 27.2528 2.10248 24.4167 1.07249 20.8518C0.962986 20.4729 0.744707 19.5526 0.760587 19.5368C0.765054 19.5324 0.815172 19.6133 0.87193 19.7167C1.24702 20.3997 1.8439 21.2153 2.295 21.6612C2.69545 22.0571 3.07329 22.3346 3.48929 22.5384C3.99677 22.7871 4.22184 22.8407 4.75906 22.841C5.1426 22.8411 5.23528 22.8312 5.44288 22.7678C5.57496 22.7274 5.68912 22.6786 5.69656 22.6594C5.70399 22.6403 5.47843 22.394 5.19529 22.1123C4.42213 21.3429 3.93744 20.6834 3.50633 19.8139C3.09055 18.9753 2.85012 18.1662 2.72011 17.1682C2.65234 16.6479 2.65368 15.5397 2.72277 14.9702C2.90054 13.5048 3.33022 12.0701 4.01464 10.6564C4.19883 10.276 4.59623 9.5363 4.61651 9.53615C4.61917 9.53612 4.61211 9.77794 4.60076 10.0735C4.57634 10.7097 4.61835 11.9741 4.68389 12.575C4.96786 15.1788 5.7531 16.9469 6.98864 17.7645C7.76017 18.2751 8.69956 18.6038 9.4863 18.6384C10.2753 18.6732 10.829 18.4786 11.3242 17.9927C12.3216 17.0139 12.6146 14.954 12.1632 12.0942C12.1133 11.7779 12.0316 11.2875 11.9818 11.0044C11.8489 10.2491 11.816 9.87181 11.8168 9.11235C11.8175 8.41474 11.8467 8.05849 11.9532 7.44734C12.1898 6.08953 12.7795 4.6996 13.6292 3.49671C14.3554 2.46863 15.5483 1.2892 16.605 0.554439C16.9351 0.32497 17.4058 0.0303826 17.4199 0.0444293C17.4261 0.0504839 17.4101 0.0872959 17.3845 0.126197C17.3052 0.246502 17.0314 0.874637 16.8896 1.26137C16.4881 2.35702 16.2721 3.49083 16.2417 4.66252C16.2019 6.19279 16.4939 7.65386 17.0734 8.82476C17.5553 9.7984 17.8118 10.1026 19.5876 11.8067C20.4141 12.5998 20.6971 12.9619 21.0372 13.6618C21.2606 14.1213 21.4048 14.5896 21.5151 15.2142C21.5945 15.6638 21.6004 15.7546 21.6012 16.5444C21.6021 17.5991 21.5369 18.26 21.3232 19.3598C20.8277 21.9103 19.5902 24.3291 17.9663 25.9209C17.7524 26.1305 17.6781 26.2212 17.7101 26.2334C17.7774 26.2589 18.577 25.9924 19.0395 25.7903C19.5243 25.5785 20.0434 25.2918 20.5012 24.9832C21.9322 24.0185 23.2025 22.5542 24.0271 20.9188C24.132 20.7107 24.218 20.554 24.2182 20.5707C24.2194 20.7115 23.8282 22.0166 23.5922 22.6595C22.0931 26.7419 19.499 29.5865 16.3145 30.6399C15.9508 30.7601 15.2819 30.939 15.1949 30.9391C15.1709 30.9392 15.2741 30.8799 15.4244 30.8073C16.4768 30.2993 17.3978 29.3293 17.7773 28.3293C17.8601 28.1111 17.834 28.0828 17.6189 28.1572C17.1885 28.3062 16.6293 28.3504 16.3277 28.2594C15.7574 28.0873 15.4816 27.6072 15.4848 26.7918C15.4867 26.2771 15.5714 25.8747 15.8531 25.0419C16.1516 24.1595 16.2101 23.8423 16.2111 23.0985C16.2127 21.8985 15.8976 20.4188 15.2966 18.8052C15.0896 18.2496 14.8042 17.5625 14.7607 17.5152C14.6981 17.4471 14.7026 17.5467 14.7766 17.8666C14.8974 18.3896 14.944 18.6983 14.9781 19.2029C15.1232 21.3488 14.264 23.3348 12.5974 24.7055C11.7382 25.4122 10.8909 25.4268 9.87158 24.7524C9.5042 24.5094 8.98243 24.0254 8.66783 23.6358C8.40451 23.3098 8.35495 23.2965 8.38524 23.5602C8.46439 24.2493 8.75228 24.9213 9.51687 26.2015C10.2159 27.3719 10.3007 27.6121 10.0833 27.8059C9.97781 27.9 9.59908 27.9076 9.3111 27.8214C8.46066 27.5669 7.36412 26.6691 6.19581 25.2706C5.97805 25.0099 5.86408 24.932 5.90823 25.0738C5.95828 25.2346 6.31039 25.9926 6.51662 26.3835C7.60722 28.4506 9.03347 30.0073 10.582 30.8206C10.8643 30.9689 10.8759 30.9885 10.649 30.9336Z" fill="#6B34FF"/>
</g>
</g>
<g id="Group_4">
<g id="Group_5">
<path id="Vector_3" d="M9.25534 15.724C8.38476 14.6442 7.81878 13.5604 7.69988 12.7454C7.59411 12.0203 7.5651 11.8548 7.4965 11.5859C7.24625 10.6048 6.68798 9.60223 5.82303 8.58058C5.49026 8.18754 5.48414 8.17592 5.66365 8.27782C7.20546 9.15313 8.46725 10.5619 8.90219 11.8936C9.08513 12.4537 9.1085 12.6491 9.13598 13.8503C9.16606 15.1652 9.20452 15.3943 9.48185 15.911C9.53931 16.0181 9.58111 16.1057 9.57471 16.1057C9.56832 16.1057 9.4246 15.9339 9.25534 15.724Z" fill="#6B34FF"/>
</g>
</g>
</g>
</g>
</g>
</g>
<defs>
<clipPath id="clip0_888_7329">
<rect width="23.5597" height="30.9996" fill="white" transform="translate(0.720215)"/>
</clipPath>
</defs>
</svg>
