<svg width="146" height="146" viewBox="0 0 146 146" fill="none" xmlns="http://www.w3.org/2000/svg">
<g opacity="0.2">
<path d="M137.24 72.9996C137.24 108.478 108.479 137.24 72.9998 137.24C37.5212 137.24 8.75977 108.478 8.75977 72.9996C8.75977 37.5208 37.5212 8.75977 72.9998 8.75977C108.479 8.75977 137.24 37.5208 137.24 72.9996Z" fill="#00E55C"/>
</g>
<path d="M146 72.9998C146 113.316 113.317 146 73 146C32.6834 146 0 113.316 0 72.9998C0 32.683 32.6834 0 73 0C113.317 0 146 32.683 146 72.9998Z" fill="#00E55C"/>
<mask id="mask0_647_13045" style="mask-type:alpha" maskUnits="userSpaceOnUse" x="0" y="0" width="146" height="146">
<path d="M146 72.9998C146 113.316 113.317 146 73 146C32.6834 146 0 113.316 0 72.9998C0 32.683 32.6834 0 73 0C113.317 0 146 32.683 146 72.9998Z" fill="#FC0611"/>
</mask>
<g mask="url(#mask0_647_13045)">
<g opacity="0.476328">
<path d="M142.153 -10.8369C142.153 -10.8369 69.8523 141.189 -3.56646 140.779C-5.43386 140.768 68.8721 218.271 68.8721 218.271C68.8721 218.271 206.936 201.44 199.43 16.117C198.625 -3.73688 142.153 -10.8369 142.153 -10.8369Z" fill="#C4D1FF" fill-opacity="0.3"/>
</g>
</g>
<path d="M40.7744 73.1241L62.1751 94.525L105.225 51.4756" stroke="white" stroke-width="10" stroke-linecap="round" stroke-linejoin="round"/>
</svg>
