<svg width="17" height="15" viewBox="0 0 17 15" fill="none" xmlns="http://www.w3.org/2000/svg">
<path d="M10.9048 3.375C10.9048 3.71972 10.8369 4.06106 10.705 4.37954C10.573 4.69802 10.3797 4.9874 10.1359 5.23116C9.89219 5.47491 9.60281 5.66827 9.28433 5.80018C8.96585 5.9321 8.6245 6 8.27978 6C7.93506 6 7.59372 5.9321 7.27524 5.80018C6.95676 5.66827 6.66738 5.47491 6.42363 5.23116C6.17988 4.9874 5.98652 4.69802 5.8546 4.37954C5.72268 4.06106 5.65478 3.71972 5.65478 3.375C5.65478 2.67881 5.93135 2.01113 6.42363 1.51884C6.91591 1.02656 7.58359 0.75 8.27978 0.75C8.97598 0.75 9.64366 1.02656 10.1359 1.51884C10.6282 2.01113 10.9048 2.67881 10.9048 3.375ZM15.7798 11.625C15.7798 12.3212 15.5032 12.9889 15.0109 13.4812C14.5187 13.9734 13.851 14.25 13.1548 14.25C12.4586 14.25 11.7909 13.9734 11.2986 13.4812C10.8063 12.9889 10.5298 12.3212 10.5298 11.625C10.5298 10.9288 10.8063 10.2611 11.2986 9.76884C11.7909 9.27656 12.4586 9 13.1548 9C13.851 9 14.5187 9.27656 15.0109 9.76884C15.5032 10.2611 15.7798 10.9288 15.7798 11.625ZM6.02978 11.625C6.02978 11.9697 5.96189 12.3111 5.82997 12.6295C5.69805 12.948 5.50469 13.2374 5.26094 13.4812C5.01719 13.7249 4.72781 13.9183 4.40933 14.0502C4.09085 14.1821 3.7495 14.25 3.40478 14.25C3.06007 14.25 2.71872 14.1821 2.40024 14.0502C2.08176 13.9183 1.79238 13.7249 1.54863 13.4812C1.30488 13.2374 1.11152 12.948 0.979601 12.6295C0.847683 12.3111 0.779785 11.9697 0.779785 11.625C0.779785 10.9288 1.05635 10.2611 1.54863 9.76884C2.04091 9.27656 2.70859 9 3.40478 9C4.10098 9 4.76866 9.27656 5.26094 9.76884C5.75322 10.2611 6.02978 10.9288 6.02978 11.625Z" stroke="#6B34FF" stroke-width="1.5" stroke-linecap="round" stroke-linejoin="round"/>
</svg>
