<svg width="19" height="19" viewBox="0 0 19 19" fill="none" xmlns="http://www.w3.org/2000/svg">
<path d="M2.66659 9.90104V17.2344H9.08325V9.90104H2.66659ZM9.99992 9.90104V17.2344H16.4166V9.90104H9.99992ZM17.3333 9.90104V18.151H1.74992V9.90104H0.833252V4.40104H3.61992L3.58325 3.94271C3.58325 3.09181 3.92127 2.27575 4.52295 1.67407C5.12463 1.0724 5.94068 0.734375 6.79158 0.734375C7.95575 0.734375 8.98242 1.35771 9.54158 2.29271C10.1008 1.35771 11.1274 0.734375 12.2916 0.734375C13.1425 0.734375 13.9585 1.0724 14.5602 1.67407C15.1619 2.27575 15.4999 3.09181 15.4999 3.94271L15.4633 4.40104H18.2499V9.90104H17.3333ZM1.74992 5.31771V8.98438H9.08325V5.31771H1.74992ZM17.3333 8.98438V5.31771H9.99992V8.98438H17.3333ZM14.5374 4.40104L14.5833 3.94271C14.5833 3.33492 14.3418 2.75203 13.912 2.32226C13.4823 1.89248 12.8994 1.65104 12.2916 1.65104C11.6838 1.65104 11.1009 1.89248 10.6711 2.32226C10.2414 2.75203 9.99992 3.33492 9.99992 3.94271V4.40104H14.5374ZM9.08325 4.40104V3.94271C9.08325 3.33492 8.84181 2.75203 8.41204 2.32226C7.98227 1.89248 7.39937 1.65104 6.79158 1.65104C6.1838 1.65104 5.6009 1.89248 5.17113 2.32226C4.74136 2.75203 4.49992 3.33492 4.49992 3.94271L4.54575 4.40104H9.08325Z" fill="#6B34FF"/>
</svg>
