<svg width="19" height="18" viewBox="0 0 19 18" fill="none" xmlns="http://www.w3.org/2000/svg">
<path d="M6.72028 2.10315C4.85224 2.52906 3.21792 3.65352 2.15248 5.24595C1.08704 6.83837 0.671218 8.77809 0.990283 10.6673M6.72028 2.10315L4.22028 1.08398M6.72028 2.10315L5.88695 4.41732M15.1069 12.7507C15.6216 11.7149 15.8886 10.5738 15.8869 9.41732C15.8869 5.70065 13.1844 2.61648 9.63695 2.02065M15.1069 12.7507L17.5536 11.084M15.1069 12.7507L13.8036 10.2507M2.15028 13.584C2.83503 14.6101 3.76258 15.4513 4.85057 16.0328C5.93856 16.6143 7.15331 16.9181 8.38695 16.9173C10.2322 16.9196 12.0132 16.2393 13.3869 15.0073M2.15028 13.584H5.05362M2.15028 13.584V16.5007" stroke="#6B34FF" stroke-width="1.5" stroke-linecap="round" stroke-linejoin="round"/>
</svg>
