<svg width="75" height="31" viewBox="0 0 75 31" fill="none" xmlns="http://www.w3.org/2000/svg">
<rect width="75" height="31" rx="8" fill="#F0F0F0"/>
<path d="M19.9999 8.83301H9.99992C9.6463 8.83301 9.30716 8.97348 9.05711 9.22353C8.80706 9.47358 8.66659 9.81272 8.66659 10.1663V12.1663H7.33325V13.4997H8.66659V14.833H7.33325V16.1663H8.66659V17.4997H7.33325V18.833H8.66659V20.833C8.66659 21.1866 8.80706 21.5258 9.05711 21.7758C9.30716 22.0259 9.6463 22.1663 9.99992 22.1663H19.9999C20.1767 22.1663 20.3463 22.0961 20.4713 21.9711C20.5963 21.8461 20.6666 21.6765 20.6666 21.4997V9.49967C20.6666 9.32286 20.5963 9.15329 20.4713 9.02827C20.3463 8.90325 20.1767 8.83301 19.9999 8.83301ZM14.6666 10.8323C15.7653 10.8323 16.6666 11.733 16.6666 12.8323C16.6647 13.3622 16.4533 13.8699 16.0787 14.2447C15.7041 14.6194 15.1965 14.8309 14.6666 14.833C13.5686 14.833 12.6666 13.931 12.6666 12.8323C12.6666 11.733 13.5686 10.8323 14.6666 10.8323ZM18.6666 19.4997H10.6666V18.9997C10.6666 17.5203 12.4699 15.9997 14.6666 15.9997C16.8633 15.9997 18.6666 17.5203 18.6666 18.9997V19.4997Z" fill="#616161"/>
<path d="M34.733 14.5H33.8523C33.8002 14.2467 33.709 14.0241 33.5788 13.8324C33.451 13.6406 33.2947 13.4796 33.1101 13.3494C32.9278 13.2169 32.7254 13.1174 32.5028 13.0511C32.2803 12.9848 32.0483 12.9517 31.8068 12.9517C31.3665 12.9517 30.9676 13.063 30.6101 13.2855C30.255 13.508 29.9721 13.8359 29.7614 14.2692C29.553 14.7024 29.4489 15.2339 29.4489 15.8636C29.4489 16.4934 29.553 17.0249 29.7614 17.4581C29.9721 17.8913 30.255 18.2192 30.6101 18.4418C30.9676 18.6643 31.3665 18.7756 31.8068 18.7756C32.0483 18.7756 32.2803 18.7424 32.5028 18.6761C32.7254 18.6098 32.9278 18.5116 33.1101 18.3814C33.2947 18.2488 33.451 18.0866 33.5788 17.8949C33.709 17.7008 33.8002 17.4782 33.8523 17.2273H34.733C34.6667 17.599 34.5459 17.9316 34.3707 18.2251C34.1955 18.5187 33.9777 18.7685 33.7173 18.9744C33.4569 19.178 33.1645 19.3331 32.8402 19.4396C32.5182 19.5462 32.1738 19.5994 31.8068 19.5994C31.1866 19.5994 30.6349 19.4479 30.152 19.1449C29.669 18.8419 29.2891 18.411 29.0121 17.8523C28.7351 17.2936 28.5966 16.6307 28.5966 15.8636C28.5966 15.0966 28.7351 14.4337 29.0121 13.875C29.2891 13.3163 29.669 12.8854 30.152 12.5824C30.6349 12.2794 31.1866 12.1278 31.8068 12.1278C32.1738 12.1278 32.5182 12.1811 32.8402 12.2876C33.1645 12.3942 33.4569 12.5504 33.7173 12.7564C33.9777 12.96 34.1955 13.2086 34.3707 13.5021C34.5459 13.7933 34.6667 14.1259 34.733 14.5ZM38.2583 19.6136C37.7659 19.6136 37.3339 19.4964 36.9622 19.2621C36.5929 19.0277 36.304 18.6998 36.0957 18.2784C35.8897 17.857 35.7868 17.3646 35.7868 16.8011C35.7868 16.233 35.8897 15.737 36.0957 15.3132C36.304 14.8894 36.5929 14.5604 36.9622 14.326C37.3339 14.0916 37.7659 13.9744 38.2583 13.9744C38.7508 13.9744 39.1816 14.0916 39.551 14.326C39.9226 14.5604 40.2115 14.8894 40.4174 15.3132C40.6258 15.737 40.7299 16.233 40.7299 16.8011C40.7299 17.3646 40.6258 17.857 40.4174 18.2784C40.2115 18.6998 39.9226 19.0277 39.551 19.2621C39.1816 19.4964 38.7508 19.6136 38.2583 19.6136ZM38.2583 18.8608C38.6324 18.8608 38.9402 18.7649 39.1816 18.5732C39.4231 18.3814 39.6019 18.1293 39.7179 17.8168C39.8339 17.5043 39.8919 17.1657 39.8919 16.8011C39.8919 16.4366 39.8339 16.0968 39.7179 15.782C39.6019 15.4671 39.4231 15.2126 39.1816 15.0185C38.9402 14.8243 38.6324 14.7273 38.2583 14.7273C37.8843 14.7273 37.5765 14.8243 37.335 15.0185C37.0936 15.2126 36.9148 15.4671 36.7988 15.782C36.6828 16.0968 36.6248 16.4366 36.6248 16.8011C36.6248 17.1657 36.6828 17.5043 36.7988 17.8168C36.9148 18.1293 37.0936 18.3814 37.335 18.5732C37.5765 18.7649 37.8843 18.8608 38.2583 18.8608ZM42.8473 16.2188V19.5H42.0092V14.0455H42.8189V14.8977H42.8899C43.0178 14.6207 43.2119 14.3982 43.4723 14.2301C43.7327 14.0597 44.0689 13.9744 44.4808 13.9744C44.8501 13.9744 45.1733 14.0502 45.4503 14.2017C45.7273 14.3509 45.9427 14.5781 46.0966 14.8835C46.2505 15.1866 46.3274 15.5701 46.3274 16.0341V19.5H45.4893V16.0909C45.4893 15.6624 45.3781 15.3286 45.1555 15.0895C44.933 14.848 44.6276 14.7273 44.2393 14.7273C43.9718 14.7273 43.7327 14.7853 43.522 14.9013C43.3137 15.0173 43.1491 15.1866 43.0284 15.4091C42.9077 15.6316 42.8473 15.9015 42.8473 16.2188ZM50.231 14.0455V14.7557H47.4043V14.0455H50.231ZM48.2282 12.7386H49.0662V17.9375C49.0662 18.1742 49.1006 18.3518 49.1692 18.4702C49.2402 18.5862 49.3302 18.6643 49.4391 18.7045C49.5504 18.7424 49.6676 18.7614 49.7907 18.7614C49.883 18.7614 49.9587 18.7566 50.0179 18.7472C50.0771 18.7353 50.1245 18.7259 50.16 18.7188L50.3304 19.4716C50.2736 19.4929 50.1943 19.5142 50.0925 19.5355C49.9907 19.5592 49.8617 19.571 49.7054 19.571C49.4687 19.571 49.2367 19.5201 49.0094 19.4183C48.7845 19.3165 48.5975 19.1615 48.4483 18.9531C48.3016 18.7448 48.2282 18.482 48.2282 18.1648V12.7386ZM53.0968 19.6278C52.7511 19.6278 52.4374 19.5627 52.1557 19.4325C51.874 19.3 51.6503 19.1094 51.4846 18.8608C51.3188 18.6098 51.236 18.3068 51.236 17.9517C51.236 17.6392 51.2975 17.3859 51.4206 17.1918C51.5437 16.9953 51.7083 16.8414 51.9142 16.7301C52.1202 16.6188 52.3475 16.536 52.5961 16.4815C52.847 16.4247 53.0991 16.3797 53.3525 16.3466C53.6839 16.304 53.9526 16.272 54.1586 16.2507C54.3669 16.227 54.5184 16.188 54.6131 16.1335C54.7102 16.0791 54.7587 15.9844 54.7587 15.8494V15.821C54.7587 15.4706 54.6628 15.1984 54.4711 15.0043C54.2817 14.8101 53.994 14.7131 53.6081 14.7131C53.208 14.7131 52.8944 14.8007 52.6671 14.9759C52.4398 15.151 52.28 15.3381 52.1877 15.5369L51.3922 15.2528C51.5343 14.9214 51.7237 14.6634 51.9604 14.4787C52.1995 14.2917 52.4599 14.1615 52.7417 14.0881C53.0257 14.0123 53.3051 13.9744 53.5797 13.9744C53.7549 13.9744 53.9561 13.9957 54.1834 14.0384C54.4131 14.0786 54.6344 14.1626 54.8475 14.2905C55.0629 14.4183 55.2417 14.6113 55.3837 14.8693C55.5257 15.1274 55.5968 15.473 55.5968 15.9062V19.5H54.7587V18.7614H54.7161C54.6593 18.8797 54.5646 19.0064 54.432 19.1413C54.2994 19.2763 54.123 19.3911 53.9029 19.4858C53.6827 19.5805 53.414 19.6278 53.0968 19.6278ZM53.2246 18.875C53.556 18.875 53.8354 18.8099 54.0627 18.6797C54.2923 18.5495 54.4651 18.3814 54.5811 18.1754C54.6995 17.9695 54.7587 17.7528 54.7587 17.5256V16.7585C54.7232 16.8011 54.6451 16.8402 54.5243 16.8757C54.406 16.9089 54.2686 16.9384 54.1124 16.9645C53.9585 16.9882 53.8082 17.0095 53.6614 17.0284C53.517 17.045 53.3998 17.0592 53.3098 17.071C53.092 17.0994 52.8884 17.1456 52.699 17.2095C52.512 17.2711 52.3605 17.3646 52.2445 17.4901C52.1309 17.6132 52.074 17.7812 52.074 17.9943C52.074 18.2855 52.1818 18.5057 52.3972 18.6548C52.615 18.8016 52.8908 18.875 53.2246 18.875ZM59.3423 19.6136C58.831 19.6136 58.3906 19.4929 58.0213 19.2514C57.652 19.0099 57.3679 18.6773 57.169 18.2536C56.9702 17.8298 56.8707 17.3456 56.8707 16.8011C56.8707 16.2472 56.9725 15.7583 57.1761 15.3345C57.3821 14.9084 57.6686 14.5758 58.0355 14.3366C58.4048 14.0952 58.8357 13.9744 59.3281 13.9744C59.7116 13.9744 60.0573 14.0455 60.3651 14.1875C60.6728 14.3295 60.925 14.5284 61.1214 14.7841C61.3179 15.0398 61.4399 15.3381 61.4872 15.679H60.6491C60.5852 15.4304 60.4432 15.2102 60.223 15.0185C60.0052 14.8243 59.7116 14.7273 59.3423 14.7273C59.0156 14.7273 58.7292 14.8125 58.483 14.983C58.2391 15.151 58.0485 15.389 57.9112 15.6967C57.7763 16.0021 57.7088 16.3608 57.7088 16.7727C57.7088 17.1941 57.7751 17.5611 57.9077 17.8736C58.0426 18.1861 58.232 18.4287 58.4759 18.6016C58.7221 18.7744 59.0109 18.8608 59.3423 18.8608C59.5601 18.8608 59.7578 18.8229 59.9354 18.7472C60.1129 18.6714 60.2633 18.5625 60.3864 18.4205C60.5095 18.2784 60.5971 18.108 60.6491 17.9091H61.4872C61.4399 18.2311 61.3227 18.5211 61.1357 18.7791C60.951 19.0348 60.706 19.2384 60.4006 19.3899C60.0975 19.5391 59.7448 19.6136 59.3423 19.6136ZM65.0845 14.0455V14.7557H62.2578V14.0455H65.0845ZM63.0817 12.7386H63.9197V17.9375C63.9197 18.1742 63.9541 18.3518 64.0227 18.4702C64.0938 18.5862 64.1837 18.6643 64.2926 18.7045C64.4039 18.7424 64.5211 18.7614 64.6442 18.7614C64.7365 18.7614 64.8123 18.7566 64.8714 18.7472C64.9306 18.7353 64.978 18.7259 65.0135 18.7188L65.1839 19.4716C65.1271 19.4929 65.0478 19.5142 64.946 19.5355C64.8442 19.5592 64.7152 19.571 64.5589 19.571C64.3222 19.571 64.0902 19.5201 63.8629 19.4183C63.638 19.3165 63.451 19.1615 63.3018 18.9531C63.1551 18.7448 63.0817 18.482 63.0817 18.1648V12.7386Z" fill="#616161"/>
</svg>
