<svg width="22" height="23" viewBox="0 0 22 23" fill="none" xmlns="http://www.w3.org/2000/svg">
<g id="mdi-light:gift">
<path id="Vector" d="M3.66671 12.901V20.2344H10.0834V12.901H3.66671ZM11 12.901V20.2344H17.4167V12.901H11ZM18.3334 12.901V21.151H2.75004V12.901H1.83337V7.40104H4.62004L4.58337 6.94271C4.58337 6.09181 4.92139 5.27575 5.52307 4.67407C6.12475 4.0724 6.9408 3.73438 7.79171 3.73438C8.95587 3.73437 9.98254 4.35771 10.5417 5.29271C11.1009 4.35771 12.1275 3.73438 13.2917 3.73438C14.1426 3.73438 14.9587 4.0724 15.5603 4.67407C16.162 5.27575 16.5 6.09181 16.5 6.94271L16.4634 7.40104H19.25V12.901H18.3334ZM2.75004 8.31771V11.9844H10.0834V8.31771H2.75004ZM18.3334 11.9844V8.31771H11V11.9844H18.3334ZM15.5375 7.40104L15.5834 6.94271C15.5834 6.33492 15.3419 5.75203 14.9122 5.32226C14.4824 4.89248 13.8995 4.65104 13.2917 4.65104C12.6839 4.65104 12.101 4.89248 11.6713 5.32226C11.2415 5.75203 11 6.33492 11 6.94271V7.40104H15.5375ZM10.0834 7.40104V6.94271C10.0834 6.33492 9.84193 5.75203 9.41216 5.32226C8.98239 4.89248 8.39949 4.65104 7.79171 4.65104C7.18392 4.65104 6.60103 4.89248 6.17125 5.32226C5.74148 5.75203 5.50004 6.33492 5.50004 6.94271L5.54587 7.40104H10.0834Z" fill="#757575"/>
</g>
</svg>
