<svg width="20" height="20" viewBox="0 0 20 20" fill="none" xmlns="http://www.w3.org/2000/svg">
<path d="M15.6 12.2999C15.8916 11.5916 16.05 10.8332 16.05 9.99991C16.05 9.39991 15.9583 8.82491 15.8 8.29158C15.2583 8.41658 14.6916 8.48325 14.1 8.48325C12.8883 8.48455 11.694 8.19452 10.6179 7.6376C9.54178 7.08068 8.61532 6.27321 7.91663 5.28325C7.16992 7.0922 5.75972 8.54712 3.97496 9.34992C3.94163 9.55825 3.94163 9.78325 3.94163 9.99991C3.94163 10.7955 4.09833 11.5833 4.40279 12.3183C4.70725 13.0534 5.1535 13.7212 5.71607 14.2838C6.85223 15.42 8.39319 16.0582 9.99996 16.0582C10.875 16.0582 11.7166 15.8666 12.475 15.5249C12.95 16.4332 13.1666 16.8832 13.15 16.8832C11.7833 17.3416 10.725 17.5666 9.99996 17.5666C7.98329 17.5666 6.05829 16.7749 4.64163 15.3499C3.77917 14.4915 3.13852 13.4362 2.77496 12.2749H1.66663V8.48325H2.57496C2.85016 7.14368 3.48287 5.90359 4.40595 4.89457C5.32903 3.88556 6.50805 3.14525 7.8179 2.75221C9.12775 2.35917 10.5196 2.32806 11.8457 2.66217C13.1718 2.99628 14.3827 3.68316 15.35 4.64991C16.3998 5.69623 17.116 7.03015 17.4083 8.48325H18.3333V12.2749H18.2833L15.3166 14.9999L10.9 14.4999V13.1082H14.925L15.6 12.2999ZM7.72496 9.80825C7.97496 9.80825 8.21663 9.90825 8.39163 10.0916C8.5675 10.2689 8.66618 10.5085 8.66618 10.7582C8.66618 11.008 8.5675 11.2476 8.39163 11.4249C8.21663 11.5999 7.97496 11.6999 7.72496 11.6999C7.19996 11.6999 6.77496 11.2832 6.77496 10.7582C6.77496 10.2332 7.19996 9.80825 7.72496 9.80825ZM12.2666 9.80825C12.7916 9.80825 13.2083 10.2332 13.2083 10.7582C13.2083 11.2832 12.7916 11.6999 12.2666 11.6999C11.7416 11.6999 11.3166 11.2832 11.3166 10.7582C11.3166 10.5063 11.4167 10.2647 11.5949 10.0865C11.773 9.90834 12.0147 9.80825 12.2666 9.80825Z" fill="#333333"/>
</svg>
