<svg width="35" height="36" viewBox="0 0 35 36" fill="none" xmlns="http://www.w3.org/2000/svg">
<g id="Facebook (icon &#226;&#128;&#148; Colour)">
<path id="Vector" fill-rule="evenodd" clip-rule="evenodd" d="M35 17.5659C35 7.90169 27.1641 0.065918 17.5 0.065918C7.83577 0.065918 0 7.90169 0 17.5659C0 26.2999 6.39861 33.54 14.7659 34.8545V22.6257H10.3213V17.5659H14.7659V13.7095C14.7659 9.32403 17.3794 6.89998 21.376 6.89998C23.2906 6.89998 25.2938 7.24204 25.2938 7.24204V11.5488H23.0864C20.9134 11.5488 20.2341 12.8974 20.2341 14.2829V17.5658H25.087L24.3119 22.6256H20.234V34.8542C28.6013 33.5424 34.9998 26.3023 34.9998 17.5658L35 17.5659Z" fill="#1977F3"/>
<path id="Vector_2" fill-rule="evenodd" clip-rule="evenodd" d="M24.3118 22.6255L25.0872 17.5657H20.2342V14.2829C20.2342 12.8998 20.9109 11.5488 23.0864 11.5488H25.294V7.24198C25.294 7.24198 23.2909 6.8999 21.3761 6.8999C17.3795 6.8999 14.766 9.32156 14.766 13.7095V17.5659H10.3214V22.6257H14.766V34.8544C15.6568 34.9944 16.5698 35.0659 17.5001 35.0659C18.4304 35.0659 19.3434 34.992 20.2342 34.8544V22.6257H24.3121L24.3118 22.6255Z" fill="#FEFEFE"/>
</g>
</svg>
