<svg width="116" height="29" viewBox="0 0 116 29" fill="none" xmlns="http://www.w3.org/2000/svg">
<g id="logo">
<g id="JAAN">
<g id="Others">
<g id="6">
<path id="Vector" d="M84.8438 20.5548C84.8344 20.2937 78.561 8.83584 78.398 8.78189C78.2437 8.73086 71.4903 20.4881 71.5853 20.6422C71.6275 20.7106 74.1063 20.7511 78.2517 20.7511C84.4647 20.7511 84.8505 20.7397 84.8438 20.5548ZM65.569 27.6818C65.7951 27.3086 67.9667 23.5249 73.5379 13.7972C75.2161 10.867 76.7417 8.22771 76.928 7.93205C77.328 7.29767 77.7172 7.06752 78.3908 7.06752C79.384 7.06752 79.1813 6.75414 84.5972 16.6573C87.3299 21.654 89.8451 26.2617 90.1865 26.8966L90.8073 28.051L89.8917 28.0182C88.9762 27.9855 88.9762 27.9855 87.4453 25.1815L85.9145 22.3775L78.2137 22.3486C70.5129 22.3198 70.5129 22.3198 70.2644 22.7344C70.1277 22.9624 69.3856 24.2372 68.6154 25.5672C67.215 27.9855 67.215 27.9855 66.2801 28.0182C65.3452 28.051 65.3453 28.051 65.569 27.6818Z" fill="#6B34FF"/>
</g>
<g id="6_2">
<path id="Vector_2" d="M59.1486 20.6499C59.183 20.5943 57.7834 17.9318 56.0386 14.7334C53.6699 10.3916 52.8151 8.91811 52.665 8.91811C52.5168 8.91811 51.5938 10.4359 49.1658 14.6715C47.2805 17.9606 45.8946 20.4948 45.9303 20.588C45.984 20.7281 46.9149 20.7511 52.5396 20.7511C56.3094 20.7511 59.1126 20.7081 59.1486 20.6499ZM39.7614 27.9013C39.9922 27.3182 51.3465 7.72236 51.6057 7.46002C51.9068 7.15528 52.0063 7.12354 52.6616 7.12354C53.3168 7.12354 53.4165 7.15528 53.718 7.46002C53.901 7.64508 54.8904 9.33591 55.9165 11.2174C56.9425 13.0989 59.3887 17.5753 61.3527 21.1651C63.3166 24.7548 64.9536 27.7704 64.9904 27.8667C65.0477 28.0159 64.9283 28.0415 64.1763 28.0415C63.2951 28.0415 63.2951 28.0415 61.74 25.1806L60.1848 22.3197L52.4623 22.3486L44.7397 22.3774L43.1057 25.2095C41.4718 28.0415 41.4719 28.0415 40.5889 28.0415C39.9277 28.0415 39.7199 28.0063 39.7614 27.9013Z" fill="#6B34FF"/>
</g>
<g id="6_3">
<path id="Vector_3" d="M113.668 28.0137C113.483 27.8749 110.413 24.9576 106.845 21.5307C95.6325 10.7619 94.0968 9.30776 93.9787 9.34724C93.9014 9.37304 93.8542 12.4488 93.835 18.7137L93.8064 28.0417H93.0216H92.2367L92.2664 17.8937C92.2961 7.7457 92.2961 7.7457 92.5869 7.45442C92.9414 7.09932 93.6465 6.9756 94.063 7.19544C94.2221 7.27945 98.7652 11.5776 104.159 16.7468C109.552 21.9161 114.015 26.1149 114.075 26.0776C114.145 26.0341 114.185 22.6456 114.185 16.6508V7.29201H114.977H115.77L115.744 17.1902C115.723 24.9423 115.687 27.1669 115.574 27.4504C115.403 27.8805 114.824 28.2651 114.346 28.2656C114.158 28.2658 113.853 28.1526 113.668 28.0137Z" fill="#6B34FF"/>
</g>
<g id="6_4">
<path id="Vector_4" d="M29.6465 27.9288C27.4483 27.5823 25.7713 26.0231 25.5458 24.1159C25.4796 23.5552 25.4797 23.5552 26.279 23.5552C27.0329 23.5552 27.0784 23.5695 27.0794 23.8075C27.0812 24.2232 27.5808 25.1693 27.973 25.4999C28.1747 25.67 28.5472 25.9203 28.8007 26.0561C29.2447 26.2941 29.3781 26.3031 32.4525 26.3031C35.5268 26.3031 35.6602 26.2941 36.1042 26.0561C36.8292 25.6676 37.2263 25.2786 37.538 24.6521C37.8266 24.0719 37.8266 24.072 37.8266 15.6819V7.29187H38.6131H39.3995L39.3688 15.9563C39.3381 24.6207 39.3381 24.6207 39.0841 25.1725C38.5323 26.3711 37.5264 27.2425 36.1472 27.7166C35.4902 27.9425 35.1692 27.9697 32.8443 27.9969C31.428 28.0135 29.989 27.9827 29.6465 27.9288Z" fill="#6B34FF"/>
</g>
</g>
</g>
<g id="icon">
<mask id="mask0_218_1010" style="mask-type:luminance" maskUnits="userSpaceOnUse" x="0" y="0" width="22" height="29">
<g id="__lottie_element_38366">
<path id="Vector_5" d="M21.4888 0H0.229736V28.7043H21.4888V0Z" fill="white"/>
</g>
</mask>
<g mask="url(#mask0_218_1010)">
<g id="Group">
<g id="Group_2">
<g id="Group_3">
<path id="Vector_6" d="M9.18891 28.643C9.12817 28.6279 8.92698 28.5792 8.74186 28.5347C7.53238 28.2439 6.3027 27.6549 5.27564 26.8744C3.1179 25.2347 1.47698 22.6086 0.54757 19.3076C0.448757 18.9567 0.251793 18.1046 0.266122 18.09C0.270153 18.0859 0.315377 18.1608 0.366592 18.2566C0.705053 18.889 1.24365 19.6442 1.65069 20.0571C2.01204 20.4236 2.35299 20.6806 2.72836 20.8693C3.18629 21.0996 3.38938 21.1492 3.87414 21.1495C4.22022 21.1496 4.30385 21.1405 4.49118 21.0817C4.61037 21.0443 4.71338 20.9992 4.72009 20.9814C4.7268 20.9636 4.52326 20.7356 4.26777 20.4747C3.57011 19.7623 3.13275 19.1516 2.74374 18.3465C2.36856 17.57 2.15161 16.8208 2.0343 15.8967C1.97314 15.415 1.97436 14.3888 2.0367 13.8615C2.19711 12.5046 2.58482 11.1761 3.20241 9.86712C3.36862 9.51484 3.72721 8.82992 3.74551 8.82978C3.74791 8.82975 3.74154 9.05367 3.73129 9.32734C3.70926 9.91645 3.74717 11.0872 3.80631 11.6437C4.06255 14.0546 4.77111 15.6918 5.88599 16.4489C6.58219 16.9217 7.42984 17.226 8.13976 17.2581C8.85169 17.2903 9.3513 17.1102 9.79816 16.6602C10.6982 15.7539 10.9626 13.8465 10.5553 11.1985C10.5102 10.9055 10.4365 10.4514 10.3916 10.1893C10.2716 9.48992 10.2419 9.14059 10.2427 8.43737C10.2434 7.79141 10.2697 7.46153 10.3658 6.89563C10.5793 5.63836 11.1113 4.35135 11.8781 3.23752C12.5334 2.28556 13.6098 1.19345 14.5633 0.513101C14.8612 0.300622 15.2859 0.0278468 15.2987 0.0408534C15.3042 0.0464597 15.2898 0.0805461 15.2667 0.116567C15.1951 0.227964 14.948 0.809591 14.8202 1.16769C14.4578 2.18221 14.2629 3.23208 14.2354 4.31701C14.1996 5.73398 14.4631 7.08686 14.986 8.17107C15.4208 9.07262 15.6523 9.35434 17.2546 10.9322C18.0005 11.6666 18.2558 12.0019 18.5627 12.6499C18.7643 13.0755 18.8944 13.509 18.9939 14.0875C19.0656 14.5037 19.0709 14.5878 19.0716 15.3191C19.0725 16.2957 19.0136 16.9077 18.8208 17.926C18.3737 20.2878 17.257 22.5274 15.7917 24.0013C15.5986 24.1955 15.5316 24.2795 15.5605 24.2907C15.6212 24.3144 16.3428 24.0676 16.7601 23.8805C17.1976 23.6843 17.6659 23.4189 18.0791 23.1331C19.3703 22.2398 20.5165 20.8839 21.2606 19.3697C21.3553 19.177 21.4329 19.0319 21.433 19.0473C21.4342 19.1777 21.0812 20.3861 20.8682 20.9815C19.5155 24.7616 17.1747 27.3956 14.3012 28.3709C13.973 28.4823 13.3694 28.6479 13.2909 28.648C13.2692 28.6481 13.3624 28.5932 13.498 28.526C14.4476 28.0556 15.2787 27.1574 15.6211 26.2315C15.6958 26.0294 15.6723 26.0032 15.4782 26.0721C15.0898 26.21 14.5852 26.251 14.3131 26.1667C13.7985 26.0074 13.5496 25.5628 13.5525 24.8078C13.5542 24.3312 13.6307 23.9586 13.8849 23.1874C14.1542 22.3704 14.2069 22.0767 14.2079 21.3879C14.2094 20.2768 13.925 18.9066 13.3827 17.4126C13.1959 16.8981 12.9384 16.2619 12.8991 16.218C12.8426 16.155 12.8467 16.2472 12.9134 16.5434C13.0225 17.0277 13.0645 17.3136 13.0953 17.7808C13.2262 19.7678 12.4509 21.6067 10.9471 22.8759C10.1717 23.5303 9.40716 23.5438 8.48741 22.9194C8.15591 22.6944 7.68509 22.2462 7.40121 21.8855C7.16361 21.5836 7.11888 21.5713 7.14621 21.8154C7.21764 22.4535 7.47742 23.0758 8.16734 24.2612C8.79813 25.345 8.87463 25.5673 8.6785 25.7468C8.58327 25.8339 8.24153 25.8409 7.98167 25.7611C7.21427 25.5255 6.22481 24.6941 5.17059 23.3992C4.97409 23.1579 4.87125 23.0856 4.91109 23.217C4.95626 23.3659 5.27398 24.0678 5.46007 24.4297C6.44417 26.3438 7.73114 27.7852 9.12844 28.5383C9.38317 28.6756 9.39363 28.6937 9.18891 28.643Z" fill="#FFB609"/>
</g>
</g>
<g id="Group_4">
<g id="Group_5">
<path id="Vector_7" d="M7.93146 14.5592C7.1459 13.5594 6.63518 12.5559 6.52789 11.8012C6.43245 11.1298 6.40628 10.9766 6.34438 10.7275C6.11856 9.81907 5.6148 8.89078 4.83432 7.94477C4.53404 7.58084 4.52852 7.57007 4.6905 7.66443C6.08176 8.47493 7.22033 9.77938 7.6128 11.0125C7.77787 11.5311 7.79897 11.712 7.82376 12.8243C7.8509 14.0418 7.8856 14.2539 8.13585 14.7324C8.1877 14.8316 8.22542 14.9127 8.21965 14.9127C8.21388 14.9127 8.0842 14.7536 7.93146 14.5592Z" fill="#FFB609"/>
</g>
</g>
</g>
</g>
</g>
</g>
</svg>
