<svg width="30" height="30" viewBox="0 0 30 30" fill="none" xmlns="http://www.w3.org/2000/svg">
<g filter="url(#filter0_d_1367_29336)">
<rect x="4" y="4" width="24" height="24" rx="12" fill="#E5E2E1" fill-opacity="0.2" shape-rendering="crispEdges"/>
<path d="M14.5808 17.7591H9.95356C9.80936 17.7596 9.67124 17.8124 9.56927 17.9058C9.46731 17.9993 9.40977 18.1259 9.40918 18.258V22.5011C9.40918 22.7771 9.65348 23 9.95356 23H14.583C14.8842 23 15.1274 22.7761 15.1274 22.5011V18.258C15.1268 18.1259 15.0693 17.9993 14.9673 17.9058C14.8654 17.8124 14.7272 17.7596 14.583 17.7591H14.5808ZM23.0466 17.7591H18.4171C18.2729 17.7596 18.1348 17.8124 18.0329 17.9058C17.9309 17.9993 17.8733 18.1259 17.8728 18.258V22.5011C17.8728 22.7771 18.1159 23 18.4171 23H23.0466C23.3478 23 23.591 22.7761 23.591 22.5011V18.258C23.5904 18.1259 23.5329 17.9993 23.4309 17.9058C23.3289 17.8124 23.1908 17.7596 23.0466 17.7591ZM14.5808 10.001H9.95356C9.80936 10.0016 9.67124 10.0543 9.56927 10.1478C9.46731 10.2412 9.40977 10.3678 9.40918 10.5V14.743C9.40918 15.019 9.65348 15.2419 9.95356 15.2419H14.583C14.8842 15.2419 15.1274 15.018 15.1274 14.743V10.4989C15.1268 10.3668 15.0693 10.2402 14.9673 10.1467C14.8654 10.0533 14.7272 10.0005 14.583 10L14.5808 10.001ZM17.7779 13.0079C17.4422 12.9548 17.4422 12.5141 17.7779 12.4599C18.3717 12.3653 18.9213 12.1107 19.3566 11.7287C19.7919 11.3467 20.0932 10.8545 20.2221 10.3149L20.2422 10.23C20.3147 9.92639 20.7865 9.92332 20.8624 10.227L20.8869 10.3262C21.0207 10.8634 21.3247 11.3525 21.7607 11.732C22.1968 12.1114 22.7454 12.3643 23.3378 12.4589C23.6747 12.5121 23.6747 12.9558 23.3378 13.01C22.7454 13.1046 22.1968 13.3575 21.7607 13.7369C21.3247 14.1164 21.0207 14.6055 20.8869 15.1427L20.8624 15.2409C20.7865 15.5446 20.3158 15.5425 20.2422 15.2389L20.2221 15.154C20.0934 14.6142 19.7921 14.1218 19.3568 13.7396C18.9215 13.3574 18.3719 13.1027 17.7779 13.0079Z" stroke="#64C668" stroke-linecap="round" stroke-linejoin="round"/>
</g>
<defs>
<filter id="filter0_d_1367_29336" x="0" y="0" width="30" height="30" filterUnits="userSpaceOnUse" color-interpolation-filters="sRGB">
<feFlood flood-opacity="0" result="BackgroundImageFix"/>
<feColorMatrix in="SourceAlpha" type="matrix" values="0 0 0 0 0 0 0 0 0 0 0 0 0 0 0 0 0 0 127 0" result="hardAlpha"/>
<feOffset dx="-1" dy="-1"/>
<feGaussianBlur stdDeviation="1.5"/>
<feComposite in2="hardAlpha" operator="out"/>
<feColorMatrix type="matrix" values="0 0 0 0 0 0 0 0 0 0 0 0 0 0 0 0 0 0 0.25 0"/>
<feBlend mode="normal" in2="BackgroundImageFix" result="effect1_dropShadow_1367_29336"/>
<feBlend mode="normal" in="SourceGraphic" in2="effect1_dropShadow_1367_29336" result="shape"/>
</filter>
</defs>
</svg>
