<svg width="60" height="60" viewBox="0 0 60 60" fill="none" xmlns="http://www.w3.org/2000/svg">
<path d="M30.1494 53.5634C43.4635 53.5634 54.2568 42.7702 54.2568 29.456C54.2568 16.1419 43.4635 5.34863 30.1494 5.34863C16.8352 5.34863 6.04199 16.1419 6.04199 29.456C6.04199 42.7702 16.8352 53.5634 30.1494 53.5634Z" fill="#50B651"/>
<path opacity="0.663" fill-rule="evenodd" clip-rule="evenodd" d="M54.1829 29.389C54.1829 42.745 43.3559 53.572 30.0029 53.572C16.6499 53.572 5.81995 42.745 5.81995 29.389C5.81995 23.4808 5.98555 22.6024 8.31115 19.2388C8.31115 19.2388 8.19115 23.038 10.9769 25.2988C12.7091 26.7034 14.5169 25.6894 17.8259 24.1654C21.4055 22.5154 24.3155 21.451 26.5859 21.7318C30.0059 22.1554 40.5473 28.486 46.0487 27.2254C50.4437 26.2204 49.9799 15.8584 49.9799 15.8584C54.7799 20.5456 54.1829 23.7136 54.1829 29.389Z" fill="url(#paint0_linear_622_24757)"/>
<path opacity="0.586" fill-rule="evenodd" clip-rule="evenodd" d="M40.38 47.1513C49.126 38.9245 50.5798 29.4997 44.7414 18.8769C44.771 18.8985 45.1322 17.6521 45.825 15.1377C48.9322 18.9005 50.5844 23.5449 50.7816 29.0709C50.78 36.2285 47.3128 42.2553 40.38 47.1513Z" fill="url(#paint1_linear_622_24757)"/>
<path opacity="0.744" fill-rule="evenodd" clip-rule="evenodd" d="M36.2316 15.1883C32.01 12.8519 27.1668 8.15205 27.8106 7.16505C28.4544 6.17805 36.8106 6.34785 41.0328 8.68425C45.255 11.0207 48.8484 18.0293 48.2052 19.0163C47.562 20.0033 40.4532 17.5247 36.2316 15.1883Z" fill="url(#paint2_radial_622_24757)"/>
<path fill-rule="evenodd" clip-rule="evenodd" d="M39.909 35.393C36.4068 35.393 33.5676 32.4728 33.5676 28.871C33.5676 25.2692 36.4068 22.3496 39.909 22.3496C43.4112 22.3496 46.251 25.2692 46.251 28.871C46.251 32.4728 43.4118 35.393 39.909 35.393ZM39.954 33.3242C42.1398 33.3242 43.914 31.3304 43.914 28.871C43.914 26.4116 42.1398 24.4196 39.954 24.4196C37.7682 24.4196 35.994 26.4134 35.994 28.8722C35.994 31.331 37.7682 33.3242 39.954 33.3242Z" fill="white"/>
<path fill-rule="evenodd" clip-rule="evenodd" d="M26.8248 17.0986H31.3944V35.3206H28.8858V19.0972H26.8248V17.0986Z" fill="white"/>
<path fill-rule="evenodd" clip-rule="evenodd" d="M23.4192 22.5352H25.791V37.7524C25.791 39.139 24.3324 40.5832 22.911 41.2048C22.239 41.4984 20.999 41.6728 19.191 41.728V40.2142C20.9594 40.017 22.153 39.6236 22.7718 39.034C23.1289 38.5378 23.352 37.958 23.4198 37.3504V32.8798C22.7858 34.225 21.9874 35.1168 21.0246 35.5552C20.0238 36.0952 17.9868 36.0064 17.1552 35.5552C16.3236 35.104 15.1038 33.916 14.5446 32.1466C14.3898 31.6582 14.0046 30.3292 14.0448 28.921C14.0808 27.58 14.5248 26.161 14.8938 25.5778C15.5274 24.5818 16.5264 23.3344 18.0396 22.813C18.7788 22.5582 20.1488 22.4666 22.1496 22.5382V24.0436C20.6628 23.9432 19.7352 23.9934 19.3668 24.1942C18.8142 24.4942 17.5668 24.8644 17.1552 27.583C16.7436 30.3016 17.1672 32.5264 18.4722 33.223C18.9192 33.463 19.71 33.7468 20.4408 33.4966C21.8448 33.0166 23.166 31.3048 23.2668 30.145C23.3684 28.9682 23.4192 26.4316 23.4192 22.5352Z" fill="white"/>
<path fill-rule="evenodd" clip-rule="evenodd" d="M53.4252 34.2284C51.1854 45.0134 41.6286 53.117 30.18 53.117C17.0682 53.117 6.4386 42.4874 6.4386 29.3756C6.4386 21.23 10.5408 14.0426 16.7916 9.76758C11.7126 13.9796 8.4786 20.3426 8.4786 27.458C8.4786 40.1498 18.7674 50.438 31.4586 50.438C41.7942 50.438 50.535 43.6154 53.4252 34.2284Z" fill="url(#paint3_radial_622_24757)"/>
<path fill-rule="evenodd" clip-rule="evenodd" d="M30.18 1.25977C14.652 1.25977 2.06335 13.8478 2.06335 29.3758C2.06335 44.9038 14.652 57.4924 30.18 57.4924C45.708 57.4924 58.2966 44.9038 58.2966 29.3758C58.2966 13.8478 45.708 1.25977 30.18 1.25977ZM30.18 53.1178C17.0682 53.1178 6.43855 42.4882 6.43855 29.3764C6.43855 21.2308 10.5408 14.0434 16.7916 9.76836C20.7337 7.06841 25.4018 5.62702 30.18 5.63437C43.2918 5.63437 53.9214 16.2634 53.9214 29.3758C53.9222 31.0061 53.7559 32.6322 53.4252 34.2286C51.1854 45.0136 41.6286 53.1172 30.18 53.1172V53.1178Z" fill="white"/>
<defs>
<linearGradient id="paint0_linear_622_24757" x1="29.0687" y1="19.1608" x2="32.1683" y2="47.1526" gradientUnits="userSpaceOnUse">
<stop stop-color="#123214"/>
<stop offset="0.46" stop-color="#3E7C37"/>
<stop offset="0.91" stop-color="#5FBB46"/>
</linearGradient>
<linearGradient id="paint1_linear_622_24757" x1="46.9755" y1="17.3405" x2="46.9755" y2="39.9757" gradientUnits="userSpaceOnUse">
<stop stop-color="white" stop-opacity="0"/>
<stop offset="0.64" stop-color="white" stop-opacity="0.43"/>
<stop offset="1" stop-color="white" stop-opacity="0.42"/>
</linearGradient>
<radialGradient id="paint2_radial_622_24757" cx="0" cy="0" r="1" gradientUnits="userSpaceOnUse" gradientTransform="translate(38.5217 13.2492) rotate(26.7606) scale(11.9126 4.96138)">
<stop offset="0.13" stop-color="white"/>
<stop offset="0.29" stop-color="white" stop-opacity="0.69"/>
<stop offset="0.45" stop-color="white" stop-opacity="0.4"/>
<stop offset="0.59" stop-color="white" stop-opacity="0.18"/>
<stop offset="0.69" stop-color="white" stop-opacity="0.05"/>
<stop offset="0.74" stop-color="white" stop-opacity="0"/>
</radialGradient>
<radialGradient id="paint3_radial_622_24757" cx="0" cy="0" r="1" gradientUnits="userSpaceOnUse" gradientTransform="translate(34.2511 23.9055) rotate(39.84) scale(26.6958 29.0984)">
<stop offset="0.86" stop-opacity="0"/>
<stop offset="0.98" stop-opacity="0.47"/>
<stop offset="1"/>
</radialGradient>
</defs>
</svg>
