<svg width="35" height="36" viewBox="0 0 35 36" fill="none" xmlns="http://www.w3.org/2000/svg">
<g id="Clip path group">
<mask id="mask0_1816_2793" style="mask-type:luminance" maskUnits="userSpaceOnUse" x="0" y="0" width="35" height="36">
<g id="clip0">
<path id="Vector" d="M34.7888 0.065918H0V35.0659H34.7888V0.065918Z" fill="white"/>
</g>
</mask>
<g mask="url(#mask0_1816_2793)">
<g id="Group">
<path id="Vector_2" d="M34.7887 17.9681C34.7887 16.7785 34.6909 15.5824 34.4821 14.4121H17.7432V21.151H27.3288C26.931 23.3245 25.653 25.2472 23.7815 26.4688V30.8414H29.5003C32.8585 27.7935 34.7887 23.2923 34.7887 17.9681Z" fill="#4285F4"/>
<path id="Vector_3" d="M17.7432 35.066C22.5295 35.066 26.566 33.5163 29.5067 30.8413L23.788 26.4687C22.197 27.5362 20.1429 28.1407 17.7497 28.1407C13.1199 28.1407 9.1944 25.0604 7.7859 20.9194H1.88452V25.4269C4.89716 31.3366 11.0333 35.066 17.7432 35.066Z" fill="#34A853"/>
<path id="Vector_4" d="M7.77933 20.9194C7.03595 18.746 7.03595 16.3925 7.77933 14.2191V9.71143H1.88449C-0.632558 14.6563 -0.632558 20.4821 1.88449 25.4269L7.77933 20.9194Z" fill="#FBBC04"/>
<path id="Vector_5" d="M17.7432 6.99104C20.2733 6.95247 22.7186 7.89127 24.551 9.6146L29.6176 4.61826C26.4095 1.64748 22.1513 0.0141903 17.7432 0.0656324C11.0333 0.0656324 4.89716 3.7952 1.88452 9.71105L7.77936 14.2187C9.18134 10.0711 13.1134 6.99104 17.7432 6.99104Z" fill="#EA4335"/>
</g>
</g>
</g>
</svg>
