<svg width="22" height="20" viewBox="0 0 22 20" fill="none" xmlns="http://www.w3.org/2000/svg">
<path id="Vector" fill-rule="evenodd" clip-rule="evenodd" d="M13.1794 2.31803C12.6525 1.87953 11.9505 1.63468 11.2202 1.63468C10.4899 1.63468 9.78792 1.87953 9.26103 2.31803L3.44385 7.15941C3.30139 7.27809 3.2055 7.43256 3.16972 7.60103C2.47198 10.8956 2.42054 14.2687 3.01756 17.5782L3.1584 18.3644H6.90197V11.5919C6.90197 11.375 7.00133 11.167 7.1782 11.0136C7.35507 10.8603 7.59496 10.7741 7.84509 10.7741H14.5953C14.8455 10.7741 15.0854 10.8603 15.2622 11.0136C15.4391 11.167 15.5385 11.375 15.5385 11.5919V18.3644H19.282L19.4229 17.5793C20.0205 14.2695 19.9694 10.8961 19.272 7.60103C19.2358 7.43243 19.1395 7.27794 18.9966 7.15941L13.1794 2.31803ZM7.95575 1.13821C8.83381 0.40782 10.0035 0 11.2202 0C12.437 0 13.6066 0.40782 14.4847 1.13821L20.3031 5.9796C20.7307 6.33507 21.0199 6.79958 21.1268 7.30553C21.8602 10.7815 21.9142 14.3397 21.2865 17.8312L21.0601 19.0928C21.0155 19.3459 20.8676 19.5767 20.6433 19.7432C20.419 19.9097 20.1331 20.0008 19.8378 20H14.5953C14.3452 20 14.1053 19.9138 13.9285 19.7605C13.7516 19.6071 13.6522 19.3991 13.6522 19.1822V12.4097H8.78821V19.1822C8.78821 19.3991 8.68885 19.6071 8.51198 19.7605C8.33511 19.9138 8.09522 20 7.84509 20H2.60258C2.3073 20.0008 2.02147 19.9097 1.79714 19.7432C1.57281 19.5767 1.42489 19.3459 1.3803 19.0928L1.15395 17.8312C0.52622 14.3397 0.580208 10.7815 1.31365 7.30553C1.42054 6.79958 1.70976 6.33507 2.13731 5.97851L7.95575 1.13821Z" fill="#757575"/>
</svg>
