<svg width="21" height="20" viewBox="0 0 21 20" fill="none" xmlns="http://www.w3.org/2000/svg">
<g id="hugeicons:recycle-03">
<path id="Vector" d="M7.72016 3.10266C5.85212 3.52857 4.2178 4.65303 3.15236 6.24546C2.08692 7.83789 1.6711 9.7776 1.99016 11.6668M7.72016 3.10266L5.22016 2.0835M7.72016 3.10266L6.88683 5.41683M16.1068 13.7502C16.6215 12.7145 16.8885 11.5734 16.8868 10.4168C16.8868 6.70016 14.1843 3.616 10.6368 3.02016M16.1068 13.7502L18.5535 12.0835M16.1068 13.7502L14.8035 11.2502M3.15016 14.5835C3.83491 15.6096 4.76246 16.4508 5.85045 17.0323C6.93844 17.6138 8.15319 17.9177 9.38683 17.9168C11.2321 17.9191 13.013 17.2388 14.3868 16.0068M3.15016 14.5835H6.05349M3.15016 14.5835V17.5002" stroke="#757575" stroke-width="1.5" stroke-linecap="round" stroke-linejoin="round"/>
</g>
</svg>
