<svg width="21" height="16" viewBox="0 0 21 16" fill="none" xmlns="http://www.w3.org/2000/svg">
<path d="M3.43 0C2.50002 1.04937 1.76244 2.29632 1.25962 3.66921C0.756795 5.0421 0.498649 6.51388 0.500005 8C0.500005 11.1231 1.62 13.9519 3.43 16L4.84 14.4045C4.09465 13.5655 3.50399 12.5673 3.1023 11.4678C2.70061 10.3684 2.49588 9.18967 2.5 8C2.5 5.49929 3.39 3.22489 4.84 1.59547L3.43 0ZM17.57 0L16.16 1.59547C16.9044 2.43529 17.4945 3.43363 17.8962 4.53288C18.2978 5.63213 18.503 6.81051 18.5 8C18.5 10.512 17.61 12.7751 16.16 14.4045L17.57 16C18.5 14.9506 19.2376 13.7037 19.7404 12.3308C20.2432 10.9579 20.5014 9.48612 20.5 8C20.5 4.87695 19.38 2.04809 17.57 0ZM6.26 3.20226C5.7018 3.83136 5.25896 4.57906 4.95692 5.40241C4.65489 6.22576 4.49961 7.10853 4.5 8C4.5 9.86704 5.17 11.5644 6.26 12.7977L7.67 11.2023C7.29866 10.7816 7.00421 10.2823 6.80346 9.73284C6.6027 9.18339 6.49959 8.59456 6.5 8C6.5 6.74399 6.95 5.61245 7.67 4.79774L6.26 3.20226ZM14.74 3.20226L13.33 4.79774C13.7013 5.21839 13.9958 5.7177 14.1965 6.26716C14.3973 6.81661 14.5004 7.40544 14.5 8C14.5 9.25601 14.05 10.3876 13.33 11.2023L14.74 12.7977C15.2982 12.1686 15.741 11.4209 16.0431 10.5976C16.3451 9.77424 16.5004 8.89147 16.5 8C16.5 6.13296 15.83 4.43564 14.74 3.20226ZM10.5 5.73692C9.96957 5.73692 9.46086 5.97535 9.08579 6.39976C8.71072 6.82417 8.5 7.39979 8.5 8C8.5 8.60021 8.71072 9.17583 9.08579 9.60024C9.46086 10.0247 9.96957 10.2631 10.5 10.2631C11.0304 10.2631 11.5391 10.0247 11.9142 9.60024C12.2893 9.17583 12.5 8.60021 12.5 8C12.5 7.39979 12.2893 6.82417 11.9142 6.39976C11.5391 5.97535 11.0304 5.73692 10.5 5.73692Z" fill="#f44336"/>
</svg>
