<svg width="18" height="18" viewBox="0 0 18 18" fill="none" xmlns="http://www.w3.org/2000/svg">
<g id="mdi:legal">
<path id="Vector" d="M8.99989 2.25C8.04739 2.25 7.19989 2.85 6.88489 3.75H2.24989V5.25H3.71239L1.49989 10.5C1.14739 12 2.24989 12.75 4.12489 12.75C5.99989 12.75 7.16989 12 6.74989 10.5L4.53739 5.25H6.87739C7.12489 5.8875 7.61239 6.375 8.24989 6.6225V15H1.49989V16.5H16.4999V15H9.74989V6.615C10.3874 6.375 10.8749 5.8875 11.1149 5.25H13.4624L11.2499 10.5C10.8974 12 11.9999 12.75 13.8749 12.75C15.7499 12.75 16.9199 12 16.4999 10.5L14.2874 5.25H15.7499V3.75H11.1224C10.7999 2.85 9.95239 2.25 8.99989 2.25ZM8.99989 3.75C9.1988 3.75 9.38957 3.82902 9.53022 3.96967C9.67087 4.11032 9.74989 4.30109 9.74989 4.5C9.74989 4.69891 9.67087 4.88968 9.53022 5.03033C9.38957 5.17098 9.1988 5.25 8.99989 5.25C8.80098 5.25 8.61021 5.17098 8.46956 5.03033C8.32891 4.88968 8.24989 4.69891 8.24989 4.5C8.24989 4.30109 8.32891 4.11032 8.46956 3.96967C8.61021 3.82902 8.80098 3.75 8.99989 3.75ZM4.12489 7.6875L5.24989 10.5H2.99989L4.12489 7.6875ZM13.8749 7.6875L14.9999 10.5H12.7499L13.8749 7.6875Z" fill="#FFB609"/>
</g>
</svg>
