<svg width="100" height="100" viewBox="0 0 100 100" fill="none" xmlns="http://www.w3.org/2000/svg">
<g clip-path="url(#paint0_angular_260_5208_clip_path)" data-figma-skip-parse="true"><g transform="matrix(-0.00380028 -0.0398191 0.0398191 -0.00380028 49.6193 49.6194)"><foreignObject x="-1025" y="-1025" width="2050" height="2050"><div xmlns="http://www.w3.org/1999/xhtml" style="background:conic-gradient(from 90deg,rgba(107, 52, 255, 1) 0deg,rgba(217, 217, 217, 0) 360deg);height:100%;width:100%;opacity:1"></div></foreignObject></g></g><path d="M9.80028 53.4197C7.70144 31.4282 23.8276 11.8991 45.8191 9.80031C67.8105 7.70147 87.3396 23.8276 89.4384 45.8191C91.5372 67.8106 75.4111 87.3396 53.4196 89.4384C31.4282 91.5373 11.8991 75.4111 9.80028 53.4197ZM76.6615 47.0385C75.2361 32.1035 61.9735 21.1518 47.0385 22.5772C32.1035 24.0026 21.1518 37.2653 22.5772 52.2002C24.0025 67.1352 37.2652 78.0869 52.2002 76.6615C67.1352 75.2362 78.0869 61.9735 76.6615 47.0385Z" data-figma-gradient-fill="{&#34;type&#34;:&#34;GRADIENT_ANGULAR&#34;,&#34;stops&#34;:[{&#34;color&#34;:{&#34;r&#34;:0.41960784792900085,&#34;g&#34;:0.20392157137393951,&#34;b&#34;:1.0,&#34;a&#34;:1.0},&#34;position&#34;:0.0},{&#34;color&#34;:{&#34;r&#34;:0.85098040103912354,&#34;g&#34;:0.85098040103912354,&#34;b&#34;:0.85098040103912354,&#34;a&#34;:0.0},&#34;position&#34;:1.0}],&#34;stopsVar&#34;:[{&#34;color&#34;:{&#34;r&#34;:0.41960784792900085,&#34;g&#34;:0.20392157137393951,&#34;b&#34;:1.0,&#34;a&#34;:1.0},&#34;position&#34;:0.0},{&#34;color&#34;:{&#34;r&#34;:0.85098040103912354,&#34;g&#34;:0.85098040103912354,&#34;b&#34;:0.85098040103912354,&#34;a&#34;:0.0},&#34;position&#34;:1.0}],&#34;transform&#34;:{&#34;m00&#34;:-7.6005649566650391,&#34;m01&#34;:79.638130187988281,&#34;m02&#34;:13.600564956665039,&#34;m10&#34;:-79.638130187988281,&#34;m11&#34;:-7.6005649566650391,&#34;m12&#34;:93.238716125488281},&#34;opacity&#34;:1.0,&#34;blendMode&#34;:&#34;NORMAL&#34;,&#34;visible&#34;:true}"/>
<circle cx="46.2176" cy="16.2186" r="6.4" transform="rotate(-180 46.2176 16.2186)" fill="#6B34FF"/>
<g clip-path="url(#clip0_260_5208)">
<mask id="mask0_260_5208" style="mask-type:luminance" maskUnits="userSpaceOnUse" x="35" y="30" width="29" height="39">
<path d="M64 30H35V69H64V30Z" fill="white"/>
</mask>
<g mask="url(#mask0_260_5208)">
<path d="M47.2214 68.9168C47.1386 68.8964 46.8641 68.8302 46.6116 68.7697C44.9617 68.3746 43.2843 67.5743 41.8832 66.5139C38.9398 64.2861 36.7014 60.718 35.4336 56.2331C35.2988 55.7563 35.0301 54.5985 35.0496 54.5787C35.0551 54.5732 35.1168 54.675 35.1867 54.805C35.6484 55.6643 36.3831 56.6904 36.9384 57.2514C37.4313 57.7494 37.8964 58.0985 38.4084 58.355C39.0331 58.6678 39.3102 58.7352 39.9714 58.7356C40.4435 58.7358 40.5576 58.7233 40.8131 58.6435C40.9757 58.5927 41.1163 58.5314 41.1254 58.5072C41.1346 58.4831 40.8569 58.1733 40.5084 57.8188C39.5567 56.8509 38.9601 56.0212 38.4294 54.9273C37.9176 53.8723 37.6217 52.8544 37.4617 51.5987C37.3782 50.9442 37.3799 49.5499 37.4649 48.8335C37.6837 46.99 38.2126 45.185 39.0551 43.4065C39.2818 42.9278 39.771 41.9972 39.796 41.997C39.7992 41.997 39.7905 42.3012 39.7766 42.6731C39.7465 43.4735 39.7982 45.0642 39.8789 45.8202C40.2284 49.096 41.195 51.3203 42.7158 52.349C43.6655 52.9914 44.8218 53.4049 45.7903 53.4485C46.7614 53.4921 47.443 53.2474 48.0525 52.6361C49.2803 51.4047 49.641 48.8131 49.0853 45.2153C49.0238 44.8173 48.9234 44.2004 48.862 43.8442C48.6984 42.894 48.6579 42.4193 48.6589 41.4639C48.6598 40.5862 48.6957 40.138 48.8268 39.3692C49.1181 37.6609 49.8439 35.9123 50.8898 34.3989C51.7837 33.1055 53.252 31.6217 54.5528 30.6973C54.9591 30.4086 55.5384 30.038 55.5559 30.0557C55.5635 30.0633 55.5438 30.1096 55.5123 30.1586C55.4147 30.3099 55.0776 31.1002 54.9032 31.5867C54.4089 32.9651 54.143 34.3915 54.1055 35.8656C54.0567 37.7908 54.4161 39.629 55.1294 41.1021C55.7225 42.327 56.0383 42.7097 58.2241 44.8535C59.2415 45.8514 59.5898 46.307 60.0085 47.1874C60.2835 47.7656 60.4609 48.3547 60.5967 49.1406C60.6945 49.7061 60.7017 49.8204 60.7026 50.814C60.7038 52.1409 60.6235 52.9723 60.3605 54.356C59.7506 57.5648 58.2273 60.6078 56.2284 62.6103C55.9651 62.8741 55.8736 62.9882 55.9131 63.0035C55.9959 63.0356 56.9802 62.7003 57.5495 62.4461C58.1462 62.1796 58.7852 61.819 59.3487 61.4307C61.1101 60.217 62.6737 58.3748 63.6888 56.3174C63.8179 56.0556 63.9238 55.8585 63.924 55.8794C63.9255 56.0565 63.444 57.6984 63.1534 58.5073C61.3082 63.6433 58.115 67.222 54.1952 68.5472C53.7476 68.6986 52.9241 68.9235 52.817 68.9237C52.7875 68.9238 52.9146 68.8492 53.0995 68.7579C54.395 68.1187 55.5287 66.8984 55.9958 65.6404C56.0977 65.3659 56.0656 65.3302 55.8008 65.4239C55.271 65.6112 54.5827 65.6669 54.2114 65.5524C53.5095 65.336 53.17 64.7319 53.1739 63.7061C53.1763 63.0586 53.2805 62.5523 53.6273 61.5045C53.9947 60.3945 54.0666 59.9954 54.0679 59.0596C54.07 57.5499 53.682 55.6883 52.9422 53.6583C52.6875 52.9593 52.3362 52.0949 52.2826 52.0353C52.2056 51.9497 52.2111 52.075 52.3021 52.4775C52.4509 53.1355 52.5082 53.5238 52.5502 54.1586C52.7288 56.8584 51.6712 59.3568 49.6198 61.0813C48.5621 61.9704 47.5192 61.9888 46.2645 61.1404C45.8123 60.8346 45.17 60.2257 44.7828 59.7356C44.4587 59.3254 44.3977 59.3087 44.4349 59.6404C44.5324 60.5074 44.8867 61.3529 45.8279 62.9634C46.6884 64.4359 46.7927 64.738 46.5252 64.9818C46.3953 65.1002 45.9291 65.1098 45.5746 65.0013C44.5278 64.6811 43.178 63.5516 41.7399 61.7922C41.4719 61.4643 41.3316 61.3662 41.386 61.5447C41.4476 61.747 41.881 62.7006 42.1348 63.1924C43.4773 65.793 45.2329 67.7514 47.139 68.7747C47.4864 68.9612 47.5007 68.9858 47.2214 68.9168Z" fill="#FFB609"/>
<path d="M45.506 49.7815C44.4344 48.4231 43.7377 47.0595 43.5913 46.0342C43.4611 45.122 43.4254 44.9138 43.341 44.5755C43.033 43.3411 42.3458 42.0799 41.2811 40.7946C40.8715 40.3001 40.864 40.2855 41.0849 40.4137C42.9828 41.5149 44.5359 43.2872 45.0713 44.9626C45.2965 45.6672 45.3252 45.913 45.3591 47.4243C45.3961 49.0785 45.4434 49.3667 45.7848 50.0168C45.8555 50.1515 45.907 50.2617 45.8991 50.2617C45.8912 50.2617 45.7143 50.0456 45.506 49.7815Z" fill="#FFB609"/>
</g>
</g>
<defs>
<clipPath id="paint0_angular_260_5208_clip_path"><path d="M9.80028 53.4197C7.70144 31.4282 23.8276 11.8991 45.8191 9.80031C67.8105 7.70147 87.3396 23.8276 89.4384 45.8191C91.5372 67.8106 75.4111 87.3396 53.4196 89.4384C31.4282 91.5373 11.8991 75.4111 9.80028 53.4197ZM76.6615 47.0385C75.2361 32.1035 61.9735 21.1518 47.0385 22.5772C32.1035 24.0026 21.1518 37.2653 22.5772 52.2002C24.0025 67.1352 37.2652 78.0869 52.2002 76.6615C67.1352 75.2362 78.0869 61.9735 76.6615 47.0385Z"/></clipPath><clipPath id="clip0_260_5208">
<rect width="29" height="39" fill="white" transform="translate(35 30)"/>
</clipPath>
</defs>
</svg>
