<svg width="19" height="19" viewBox="0 0 19 19" fill="none" xmlns="http://www.w3.org/2000/svg">
<g id="hugeicons:more">
<path id="Vector" d="M11.9049 5.375C11.9049 5.71972 11.837 6.06106 11.7051 6.37954C11.5732 6.69802 11.3798 6.9874 11.1361 7.23116C10.8923 7.47491 10.6029 7.66827 10.2845 7.80018C9.96597 7.9321 9.62463 8 9.27991 8C8.93519 8 8.59384 7.9321 8.27536 7.80018C7.95688 7.66827 7.66751 7.47491 7.42375 7.23116C7.18 6.9874 6.98664 6.69802 6.85472 6.37954C6.7228 6.06106 6.65491 5.71972 6.65491 5.375C6.65491 4.67881 6.93147 4.01113 7.42375 3.51884C7.91603 3.02656 8.58371 2.75 9.27991 2.75C9.9761 2.75 10.6438 3.02656 11.1361 3.51884C11.6283 4.01113 11.9049 4.67881 11.9049 5.375ZM16.7799 13.625C16.7799 14.3212 16.5033 14.9889 16.0111 15.4812C15.5188 15.9734 14.8511 16.25 14.1549 16.25C13.4587 16.25 12.791 15.9734 12.2988 15.4812C11.8065 14.9889 11.5299 14.3212 11.5299 13.625C11.5299 12.9288 11.8065 12.2611 12.2988 11.7688C12.791 11.2766 13.4587 11 14.1549 11C14.8511 11 15.5188 11.2766 16.0111 11.7688C16.5033 12.2611 16.7799 12.9288 16.7799 13.625ZM7.02991 13.625C7.02991 13.9697 6.96201 14.3111 6.83009 14.6295C6.69817 14.948 6.50482 15.2374 6.26106 15.4812C6.01731 15.7249 5.72793 15.9183 5.40945 16.0502C5.09097 16.1821 4.74963 16.25 4.40491 16.25C4.06019 16.25 3.71884 16.1821 3.40036 16.0502C3.08188 15.9183 2.79251 15.7249 2.54875 15.4812C2.305 15.2374 2.11164 14.948 1.97972 14.6295C1.8478 14.3111 1.77991 13.9697 1.77991 13.625C1.77991 12.9288 2.05647 12.2611 2.54875 11.7688C3.04103 11.2766 3.70871 11 4.40491 11C5.1011 11 5.76878 11.2766 6.26106 11.7688C6.75334 12.2611 7.02991 12.9288 7.02991 13.625Z" stroke="#757575" stroke-width="1.5" stroke-linecap="round" stroke-linejoin="round"/>
</g>
</svg>
