<svg width="20" height="20" viewBox="0 0 20 20" fill="none" xmlns="http://www.w3.org/2000/svg">
<path d="M3.33337 15.8332V14.1665H5.00004V8.33317C5.00004 7.18039 5.34726 6.15623 6.04171 5.26067C6.73615 4.36512 7.63893 3.77817 8.75004 3.49984V2.91651C8.75004 2.56928 8.87171 2.27428 9.11504 2.03151C9.35837 1.78873 9.65337 1.66706 10 1.66651C10.3467 1.66595 10.642 1.78762 10.8859 2.03151C11.1298 2.27539 11.2512 2.57039 11.25 2.91651V3.49984C12.3612 3.77762 13.2639 4.36456 13.9584 5.26067C14.6528 6.15678 15 7.18095 15 8.33317V14.1665H16.6667V15.8332H3.33337ZM10 18.3332C9.54171 18.3332 9.14949 18.1701 8.82337 17.844C8.49726 17.5179 8.33393 17.1254 8.33337 16.6665H11.6667C11.6667 17.1248 11.5037 17.5173 11.1775 17.844C10.8514 18.1707 10.4589 18.3337 10 18.3332ZM6.66671 14.1665H13.3334V8.33317C13.3334 7.41651 13.007 6.63178 12.3542 5.97901C11.7014 5.32623 10.9167 4.99984 10 4.99984C9.08337 4.99984 8.29865 5.32623 7.64587 5.97901C6.9931 6.63178 6.66671 7.41651 6.66671 8.33317V14.1665Z" fill="#333333"/>
<circle cx="13.5" cy="6.5" r="3.5" fill="#D32F2F"/>
</svg>
