<svg width="88" height="88" viewBox="0 0 88 88" fill="none" xmlns="http://www.w3.org/2000/svg">
<g id="Group 17547">
<g clip-path="url(#paint0_angular_260_5204_clip_path)" data-figma-skip-parse="true"><g transform="matrix(0.0398191 -0.00380028 0.00380028 0.0398191 43.6193 43.6193)"><foreignObject x="-1025" y="-1025" width="2050" height="2050"><div xmlns="http://www.w3.org/1999/xhtml" style="background:conic-gradient(from 90deg,rgba(107, 52, 255, 1) 0deg,rgba(217, 217, 217, 0) 360deg);height:100%;width:100%;opacity:1"></div></foreignObject></g></g><path id="Ellipse 739" d="M39.8191 3.80028C61.8105 1.70144 81.3396 17.8276 83.4384 39.8191C85.5372 61.8105 69.4111 81.3396 47.4196 83.4384C25.4282 85.5372 5.89912 69.4111 3.80028 47.4196C1.70144 25.4282 17.8276 5.89912 39.8191 3.80028ZM46.2002 70.6615C61.1352 69.2361 72.0869 55.9735 70.6615 41.0385C69.2361 26.1035 55.9735 15.1518 41.0385 16.5772C26.1035 18.0025 15.1518 31.2652 16.5772 46.2002C18.0025 61.1352 31.2652 72.0869 46.2002 70.6615Z" data-figma-gradient-fill="{&#34;type&#34;:&#34;GRADIENT_ANGULAR&#34;,&#34;stops&#34;:[{&#34;color&#34;:{&#34;r&#34;:0.41960784792900085,&#34;g&#34;:0.20392157137393951,&#34;b&#34;:1.0,&#34;a&#34;:1.0},&#34;position&#34;:0.0},{&#34;color&#34;:{&#34;r&#34;:0.85098040103912354,&#34;g&#34;:0.85098040103912354,&#34;b&#34;:0.85098040103912354,&#34;a&#34;:0.0},&#34;position&#34;:1.0}],&#34;stopsVar&#34;:[{&#34;color&#34;:{&#34;r&#34;:0.41960784792900085,&#34;g&#34;:0.20392157137393951,&#34;b&#34;:1.0,&#34;a&#34;:1.0},&#34;position&#34;:0.0},{&#34;color&#34;:{&#34;r&#34;:0.85098040103912354,&#34;g&#34;:0.85098040103912354,&#34;b&#34;:0.85098040103912354,&#34;a&#34;:0.0},&#34;position&#34;:1.0}],&#34;transform&#34;:{&#34;m00&#34;:79.638130187988281,&#34;m01&#34;:7.6005649566650391,&#34;m02&#34;:-1.9073486328125000e-06,&#34;m10&#34;:-7.6005649566650391,&#34;m11&#34;:79.638130187988281,&#34;m12&#34;:7.6005649566650391},&#34;opacity&#34;:1.0,&#34;blendMode&#34;:&#34;NORMAL&#34;,&#34;visible&#34;:true}"/>
<circle id="Ellipse 738" cx="77.0201" cy="40.2176" r="6.4" transform="rotate(-90 77.0201 40.2176)" fill="#6B34FF"/>
</g>
<defs>
<clipPath id="paint0_angular_260_5204_clip_path"><path id="Ellipse 739" d="M39.8191 3.80028C61.8105 1.70144 81.3396 17.8276 83.4384 39.8191C85.5372 61.8105 69.4111 81.3396 47.4196 83.4384C25.4282 85.5372 5.89912 69.4111 3.80028 47.4196C1.70144 25.4282 17.8276 5.89912 39.8191 3.80028ZM46.2002 70.6615C61.1352 69.2361 72.0869 55.9735 70.6615 41.0385C69.2361 26.1035 55.9735 15.1518 41.0385 16.5772C26.1035 18.0025 15.1518 31.2652 16.5772 46.2002C18.0025 61.1352 31.2652 72.0869 46.2002 70.6615Z"/></clipPath></defs>
</svg>
