<svg width="24" height="24" viewBox="0 0 24 24" fill="none" xmlns="http://www.w3.org/2000/svg">
<rect width="24" height="24" rx="12" fill="#6B34FF" fill-opacity="0.1"/>
<path d="M17.35 20.154H6.65C5.74 20.154 5 19.4295 5 18.5386V11.0002C5 10.1092 5.74 9.38477 6.65 9.38477H17.35C18.26 9.38477 19 10.1092 19 11.0002V18.5288C19 19.4197 18.26 20.1442 17.35 20.1442V20.154ZM6.65 10.3638C6.29 10.3638 6 10.6477 6 11.0002V18.5288C6 18.8813 6.29 19.1652 6.65 19.1652H17.35C17.71 19.1652 18 18.8813 18 18.5288V11.0002C18 10.6477 17.71 10.3638 17.35 10.3638H6.65Z" fill="#6B34FF"/>
<path d="M16.8461 10.4615H7.15381V8.88923C7.15381 6.19692 9.33138 4 12 4C14.6685 4 16.8461 6.19692 16.8461 8.88923V10.4615ZM8.22124 9.38461H15.7787V8.88923C15.7787 6.78923 14.0815 5.07692 12 5.07692C9.91846 5.07692 8.22124 6.78923 8.22124 8.88923V9.38461Z" fill="#6B34FF"/>
<path d="M15.7693 15.8472C16.3641 15.8472 16.8462 15.3651 16.8462 14.7703C16.8462 14.1755 16.3641 13.6934 15.7693 13.6934C15.1745 13.6934 14.6924 14.1755 14.6924 14.7703C14.6924 15.3651 15.1745 15.8472 15.7693 15.8472Z" fill="#6B34FF"/>
<path d="M12.5383 15.8472C13.1331 15.8472 13.6153 15.3651 13.6153 14.7703C13.6153 14.1755 13.1331 13.6934 12.5383 13.6934C11.9436 13.6934 11.4614 14.1755 11.4614 14.7703C11.4614 15.3651 11.9436 15.8472 12.5383 15.8472Z" fill="#6B34FF"/>
<path d="M8.23073 15.8472C8.8255 15.8472 9.30765 15.3651 9.30765 14.7703C9.30765 14.1755 8.8255 13.6934 8.23073 13.6934C7.63596 13.6934 7.15381 14.1755 7.15381 14.7703C7.15381 15.3651 7.63596 15.8472 8.23073 15.8472Z" fill="#6B34FF"/>
</svg>
