<svg width="24" height="24" viewBox="0 0 24 24" fill="none" xmlns="http://www.w3.org/2000/svg">
<rect width="24" height="24" rx="12" fill="#6B34FF" fill-opacity="0.1"/>
<path d="M6.34667 18C5.96278 18 5.6425 17.868 5.38583 17.604C5.12917 17.34 5.00056 17.0103 5 16.6149V7.38514C5 6.99029 5.12861 6.66086 5.38583 6.39686C5.64306 6.13286 5.96306 6.00057 6.34583 6H18.6542C19.0375 6 19.3575 6.13229 19.6142 6.39686C19.8708 6.66143 19.9994 6.99086 20 7.38514V16.6157C20 17.01 19.8714 17.3394 19.6142 17.604C19.3569 17.8686 19.0369 18.0006 18.6542 18H6.34667ZM6.34667 17.1429H18.6542C18.8036 17.1429 18.9264 17.0934 19.0225 16.9946C19.1186 16.8957 19.1667 16.7694 19.1667 16.6157V7.38429C19.1667 7.23057 19.1186 7.10429 19.0225 7.00543C18.9264 6.90657 18.8036 6.85714 18.6542 6.85714H6.34583C6.19639 6.85714 6.07361 6.90657 5.9775 7.00543C5.88139 7.10429 5.83333 7.23086 5.83333 7.38514V16.6157C5.83333 16.7694 5.88139 16.8957 5.9775 16.9946C6.07361 17.0934 6.19667 17.1429 6.34667 17.1429ZM8.38 14.472C8.47611 14.472 8.55583 14.4394 8.61917 14.3743C8.68306 14.3091 8.715 14.2271 8.715 14.1283V9.93686C8.715 9.82314 8.67611 9.72657 8.59833 9.64714C8.52056 9.56714 8.42694 9.52714 8.3175 9.52714C8.25861 9.52714 8.20583 9.53514 8.15917 9.55114C8.11306 9.56714 8.0675 9.59114 8.0225 9.62314L7.05333 10.3414C6.97722 10.3911 6.93139 10.4594 6.91583 10.5463C6.90028 10.6331 6.92194 10.7171 6.98083 10.7983C7.02917 10.8794 7.09611 10.928 7.18167 10.944C7.26778 10.96 7.35056 10.9431 7.43 10.8934L8.045 10.4503V14.1274C8.045 14.2269 8.07667 14.3091 8.14 14.3743C8.20389 14.4394 8.28389 14.472 8.38 14.472ZM10.9492 14.472H13.3333C13.4233 14.472 13.4992 14.4403 13.5608 14.3769C13.6225 14.3134 13.6536 14.2354 13.6542 14.1429C13.6547 14.0503 13.6236 13.9723 13.5608 13.9089C13.4981 13.8454 13.4222 13.8137 13.3333 13.8137H11.5667L11.5583 13.7374C11.8067 13.5066 12.0328 13.2829 12.2367 13.0663C12.44 12.8503 12.6453 12.63 12.8525 12.4054C13.0814 12.1597 13.2475 11.9163 13.3508 11.6751C13.4547 11.4346 13.5067 11.1714 13.5067 10.8857C13.5067 10.4937 13.37 10.1694 13.0967 9.91286C12.8228 9.65571 12.4711 9.52714 12.0417 9.52714C11.7961 9.52714 11.5564 9.58971 11.3225 9.71486C11.0886 9.83943 10.8953 10.0066 10.7425 10.2163C10.6836 10.2946 10.6739 10.3797 10.7133 10.4717C10.7528 10.5637 10.8175 10.626 10.9075 10.6586C10.9864 10.6906 11.0706 10.6934 11.16 10.6671C11.2494 10.6409 11.3256 10.59 11.3883 10.5146C11.4789 10.4106 11.58 10.3317 11.6917 10.278C11.8033 10.2243 11.92 10.1971 12.0417 10.1966C12.2822 10.1966 12.4764 10.262 12.6242 10.3929C12.7725 10.5237 12.8467 10.7023 12.8467 10.9286C12.8467 11.108 12.8133 11.2654 12.7467 11.4009C12.68 11.5363 12.5497 11.7151 12.3558 11.9374C12.2114 12.0969 12.0731 12.2474 11.9408 12.3891C11.8086 12.5309 11.6714 12.6749 11.5292 12.8211L10.705 13.6354C10.6883 13.6526 10.6522 13.7414 10.5967 13.902V14.1103C10.5967 14.2131 10.63 14.2994 10.6967 14.3691C10.7644 14.4377 10.8486 14.472 10.9492 14.472ZM16.6667 14.472C17.1133 14.472 17.4761 14.3377 17.755 14.0691C18.0339 13.7994 18.1733 13.4526 18.1733 13.0286C18.1733 12.7166 18.0956 12.4634 17.94 12.2691C17.7856 12.0743 17.5672 11.9417 17.285 11.8714V11.8286C17.5222 11.7691 17.7019 11.6557 17.8242 11.4883C17.9458 11.3203 18.0067 11.0986 18.0067 10.8231C18.0067 10.4374 17.8794 10.1251 17.625 9.88629C17.3706 9.64743 17.0372 9.528 16.625 9.528C16.315 9.528 16.0581 9.59571 15.8542 9.73114C15.6503 9.86657 15.4881 10.018 15.3675 10.1854C15.3192 10.2523 15.3119 10.3249 15.3458 10.4031C15.3803 10.4809 15.4369 10.5374 15.5158 10.5729C15.5947 10.6049 15.6764 10.6137 15.7608 10.5994C15.8453 10.5857 15.9186 10.5417 15.9808 10.4674C16.0608 10.3737 16.1558 10.3034 16.2658 10.2566C16.3758 10.2097 16.4956 10.1866 16.625 10.1871C16.8378 10.1871 17.0111 10.2489 17.145 10.3723C17.2789 10.4957 17.3458 10.6526 17.3458 10.8429C17.3458 11.0651 17.2658 11.2443 17.1058 11.3803C16.9458 11.5163 16.7439 11.5846 16.5 11.5851C16.4106 11.5851 16.3347 11.6169 16.2725 11.6803C16.2103 11.7437 16.1794 11.8217 16.18 11.9143C16.1806 12.0069 16.2114 12.0849 16.2725 12.1483C16.3336 12.2117 16.4094 12.2437 16.5 12.2443C16.81 12.2443 17.0564 12.3094 17.2392 12.4397C17.4219 12.5711 17.5133 12.7531 17.5133 12.9857C17.5133 13.2046 17.4289 13.3954 17.26 13.5583C17.0911 13.7211 16.8933 13.8029 16.6667 13.8034C16.4789 13.8034 16.3186 13.7691 16.1858 13.7006C16.0536 13.6331 15.935 13.524 15.83 13.3731C15.7822 13.2954 15.7169 13.244 15.6342 13.2189C15.5508 13.1943 15.4697 13.198 15.3908 13.23C15.3086 13.2649 15.2478 13.3194 15.2083 13.3937C15.1689 13.468 15.1661 13.5457 15.2 13.6269C15.3533 13.8909 15.5539 14.0977 15.8017 14.2474C16.0494 14.3977 16.3378 14.4729 16.6667 14.4729" fill="#6B34FF"/>
</svg>
