<svg width="21" height="20" viewBox="0 0 21 20" fill="none" xmlns="http://www.w3.org/2000/svg">
<g id="hugeicons:recycle-03">
<path id="Vector" d="M7.72016 3.10217C5.85212 3.52808 4.2178 4.65254 3.15236 6.24497C2.08692 7.8374 1.6711 9.77711 1.99016 11.6663M7.72016 3.10217L5.22016 2.08301M7.72016 3.10217L6.88683 5.41634M16.1068 13.7497C16.6215 12.714 16.8885 11.5729 16.8868 10.4163C16.8868 6.69967 14.1843 3.61551 10.6368 3.01967M16.1068 13.7497L18.5535 12.083M16.1068 13.7497L14.8035 11.2497M3.15016 14.583C3.83491 15.6092 4.76246 16.4503 5.85045 17.0318C6.93844 17.6133 8.15319 17.9172 9.38683 17.9163C11.2321 17.9187 13.013 17.2383 14.3868 16.0063M3.15016 14.583H6.05349M3.15016 14.583V17.4997" stroke="#757575" stroke-width="1.5" stroke-linecap="round" stroke-linejoin="round"/>
</g>
</svg>
