<svg width="18" height="18" viewBox="0 0 18 18" fill="none" xmlns="http://www.w3.org/2000/svg">
<path d="M16.875 10.125V13.2188C16.875 14.0625 16.3688 14.7937 15.5813 15.1875L14.625 15.6375L13.6687 15.1875C12.8812 14.85 12.375 14.0625 12.375 13.2188V10.125H16.875ZM18 9H11.25V13.2188C11.25 14.4563 11.9812 15.6375 13.1625 16.2L14.625 16.875L16.0875 16.2C17.2688 15.6375 18 14.5125 18 13.2188V9Z" fill="#EF0000"/>
<path d="M9 14.0625H4.21875C1.9125 14.0625 0 12.15 0 9.84375C0 7.7625 1.51875 6.075 3.4875 5.68125C3.99375 3.0375 6.3 1.125 9 1.125C12.0938 1.125 14.625 3.65625 14.625 6.75H13.5C13.5 4.275 11.475 2.25 9 2.25C6.69375 2.25 4.78125 3.99375 4.5 6.24375V6.75H3.99375C2.3625 6.8625 1.125 8.2125 1.125 9.84375C1.125 11.5312 2.53125 12.9375 4.21875 12.9375H9V14.0625Z" fill="#EF0000"/>
</svg>
