<svg width="18" height="18" viewBox="0 0 18 18" fill="none" xmlns="http://www.w3.org/2000/svg">
<g id="solar:star-bold-duotone">
<path id="Vector" d="M13.8622 12.575C12.8371 12.8212 11.7669 12.8093 10.7475 12.5403C9.72812 12.2714 8.79134 11.7539 8.02106 11.034C7.25079 10.3142 6.67105 9.4146 6.33377 8.41574C5.99649 7.41689 5.91219 6.34997 6.08843 5.31055C6.06203 5.33687 6.0337 5.36119 6.00368 5.3833C5.79368 5.54305 5.53118 5.6023 5.00618 5.7208L4.52993 5.8288C2.68493 6.24655 1.76243 6.45505 1.54268 7.1608C1.32368 7.8658 1.95218 8.60155 3.20993 10.0723L3.53543 10.4525C3.89243 10.8703 4.07168 11.0795 4.15193 11.3375C4.23218 11.5963 4.20518 11.8753 4.15118 12.4325L4.10168 12.9403C3.91193 14.903 3.81668 15.884 4.39118 16.3198C4.96568 16.7555 5.82968 16.3588 7.55618 15.563L8.00393 15.3575C8.49443 15.131 8.73968 15.0185 8.99993 15.0185C9.26018 15.0185 9.50543 15.131 9.99668 15.3575L10.4429 15.563C12.1702 16.358 13.0342 16.7555 13.6079 16.3205C14.1832 15.884 14.0879 14.903 13.8982 12.9403L13.8622 12.575Z" fill="#FFB609"/>
<path id="Vector_2" d="M6.86477 4.056L6.61877 4.497C6.34877 4.9815 6.21377 5.22375 6.00377 5.3835C6.03377 5.361 6.06202 5.33675 6.08852 5.31075C5.91223 6.35026 5.99652 7.41726 6.33384 8.41619C6.67116 9.41512 7.25097 10.3148 8.02134 11.0346C8.79172 11.7545 9.72861 12.272 10.7481 12.5409C11.7676 12.8097 12.8378 12.8216 13.863 12.5753L13.848 12.4328C13.7948 11.8755 13.7678 11.5965 13.848 11.3378C13.9283 11.0798 14.1068 10.8705 14.4645 10.4528L14.79 10.0725C16.0478 8.6025 16.6763 7.86675 16.4565 7.161C16.2375 6.45525 15.315 6.246 13.47 5.829L12.993 5.721C12.4688 5.6025 12.2063 5.54325 11.9955 5.3835C11.7855 5.22375 11.6505 4.9815 11.3805 4.497L11.1353 4.056C10.185 2.352 9.71027 1.5 9.00002 1.5C8.28977 1.5 7.81502 2.352 6.86477 4.056Z" fill="#FFB609"/>
</g>
</svg>
