<svg width="30" height="30" viewBox="0 0 30 30" fill="none" xmlns="http://www.w3.org/2000/svg">
<g id="mdi:legal" filter="url(#filter0_d_1288_8562)">
<rect x="4" y="4" width="24" height="24" rx="12" fill="#E5E2E1" fill-opacity="0.2" shape-rendering="crispEdges"/>
<g id="Group">
<path id="Vector" d="M19.667 15.0702C19.667 14.8011 19.667 14.6665 19.7074 14.5467C19.8249 14.1983 20.1352 14.0637 20.4463 13.9222C20.7948 13.7627 20.969 13.6834 21.1424 13.6694C21.3384 13.6539 21.5352 13.6959 21.7032 13.79C21.9256 13.9144 22.0812 14.1524 22.2399 14.3453C22.9733 15.2366 23.3404 15.6823 23.4742 16.1731C23.5831 16.5697 23.5831 16.9851 23.4742 17.381C23.279 18.0981 22.6606 18.6985 22.2025 19.2554C21.9684 19.5393 21.851 19.6816 21.7032 19.7649C21.5323 19.8596 21.3372 19.9016 21.1424 19.8854C20.969 19.8714 20.7948 19.7921 20.4455 19.6326C20.1344 19.4911 19.8249 19.3565 19.7074 19.0081C19.667 18.8883 19.667 18.7537 19.667 18.4846V15.0702ZM11.8892 15.0702C11.8892 14.7311 11.8799 14.427 11.6061 14.189C11.5065 14.1026 11.3743 14.0427 11.1106 13.9222C10.7614 13.7635 10.5872 13.6834 10.4138 13.6694C9.89498 13.6274 9.61575 13.9821 9.31709 14.3461C8.58286 15.2366 8.21575 15.6823 8.0812 16.1739C7.97293 16.5692 7.97293 16.9864 8.0812 17.3817C8.2772 18.0981 8.89631 18.6993 9.35364 19.2554C9.6422 19.6054 9.91831 19.9251 10.4138 19.8854C10.5872 19.8714 10.7614 19.7921 11.1106 19.6326C11.3751 19.5129 11.5065 19.4522 11.6061 19.3659C11.8799 19.1279 11.8892 18.8237 11.8892 18.4854V15.0702Z" stroke="#F44336" stroke-width="1.5" stroke-linecap="round" stroke-linejoin="round"/>
<path id="Vector_2" d="M10.3335 13.6667C10.3335 11.0891 12.7711 9 15.7779 9C18.7848 9 21.2224 11.0891 21.2224 13.6667M21.2224 19.8889V20.5111C21.2224 21.8854 19.8302 23 18.1113 23H16.5557" stroke="#F44336" stroke-width="1.5" stroke-linecap="round" stroke-linejoin="round"/>
</g>
</g>
<defs>
<filter id="filter0_d_1288_8562" x="0" y="0" width="30" height="30" filterUnits="userSpaceOnUse" color-interpolation-filters="sRGB">
<feFlood flood-opacity="0" result="BackgroundImageFix"/>
<feColorMatrix in="SourceAlpha" type="matrix" values="0 0 0 0 0 0 0 0 0 0 0 0 0 0 0 0 0 0 127 0" result="hardAlpha"/>
<feOffset dx="-1" dy="-1"/>
<feGaussianBlur stdDeviation="1.5"/>
<feComposite in2="hardAlpha" operator="out"/>
<feColorMatrix type="matrix" values="0 0 0 0 0 0 0 0 0 0 0 0 0 0 0 0 0 0 0.25 0"/>
<feBlend mode="normal" in2="BackgroundImageFix" result="effect1_dropShadow_1288_8562"/>
<feBlend mode="normal" in="SourceGraphic" in2="effect1_dropShadow_1288_8562" result="shape"/>
</filter>
</defs>
</svg>
