<svg width="28" height="28" viewBox="0 0 28 28" fill="none" xmlns="http://www.w3.org/2000/svg">
<mask id="mask0_1258_12811" style="mask-type:alpha" maskUnits="userSpaceOnUse" x="0" y="0" width="28" height="28">
<rect width="28" height="28" fill="#D9D9D9"/>
</mask>
<g mask="url(#mask0_1258_12811)">
<path d="M13.9999 25.6673C12.386 25.6673 10.8694 25.3611 9.44992 24.7486C8.03047 24.1361 6.79575 23.3048 5.74575 22.2548C4.69575 21.2048 3.8645 19.9701 3.252 18.5507C2.6395 17.1312 2.33325 15.6145 2.33325 14.0007C2.33325 12.3868 2.6395 10.8701 3.252 9.45065C3.8645 8.03121 4.69575 6.79648 5.74575 5.74648C6.79575 4.69648 8.03047 3.86523 9.44992 3.25273C10.8694 2.64023 12.386 2.33398 13.9999 2.33398C15.6138 2.33398 17.1305 2.64023 18.5499 3.25273C19.9694 3.86523 21.2041 4.69648 22.2541 5.74648C23.3041 6.79648 24.1353 8.03121 24.7478 9.45065C25.3603 10.8701 25.6666 12.3868 25.6666 14.0007C25.6666 15.6145 25.3603 17.1312 24.7478 18.5507C24.1353 19.9701 23.3041 21.2048 22.2541 22.2548C21.2041 23.3048 19.9694 24.1361 18.5499 24.7486C17.1305 25.3611 15.6138 25.6673 13.9999 25.6673ZM15.1666 23.2465C17.4805 22.9548 19.4201 21.9388 20.9853 20.1986C22.5506 18.4583 23.3333 16.3923 23.3333 14.0007C23.3333 11.609 22.5506 9.54301 20.9853 7.80273C19.4201 6.06246 17.4805 5.04648 15.1666 4.75482V23.2465Z" fill="#6B34FF"/>
</g>
</svg>
