<svg width="100%" height="100%" viewBox="0 0 20 20" fill="none" xmlns="http://www.w3.org/2000/svg">
<g id="mdi:legal">
<g id="Group">
<path id="Vector" d="M1.38268 10.0633C1.38222 11.5806 1.77871 13.0622 2.53258 14.3681L1.31055 18.83L5.87669 17.6327C7.13465 18.3184 8.55112 18.6803 9.99263 18.6807H9.99644C14.7434 18.6807 18.6076 14.8178 18.6096 10.0701C18.6105 7.76935 17.7153 5.60599 16.089 3.9784C14.463 2.35089 12.3003 1.45412 9.99608 1.45312C5.24857 1.45312 1.38467 5.31566 1.38268 10.0633Z" fill="url(#paint0_linear_1288_8590)"/>
<path id="Vector_2" d="M1.07494 10.0616C1.0744 11.6335 1.48513 13.1681 2.26586 14.5207L1 19.1426L5.72991 17.9024C7.03315 18.613 8.50042 18.9876 9.99356 18.9882H9.99737C14.9146 18.9882 18.9176 14.9864 18.9197 10.0687C18.9205 7.68535 17.9932 5.44424 16.3088 3.75831C14.6241 2.07256 12.3841 1.14358 9.99737 1.14258C5.0792 1.14258 1.07694 5.14366 1.07494 10.0616ZM3.89164 14.2878L3.71508 14.0075C2.97264 12.827 2.58078 11.4629 2.58132 10.0621C2.58296 5.97456 5.90955 2.64905 10.0002 2.64905C11.9811 2.64987 13.8428 3.42207 15.2431 4.8232C16.6433 6.22443 17.4138 8.0871 17.4132 10.0682C17.4114 14.1558 14.0847 17.4818 9.99737 17.4818H9.99446C8.66355 17.481 7.35832 17.1237 6.21994 16.4483L5.94902 16.2876L3.14221 17.0235L3.89164 14.2878Z" fill="url(#paint1_linear_1288_8590)"/>
<path id="Vector_3" d="M7.76734 6.33378C7.6003 5.96251 7.42456 5.95507 7.26569 5.94854C7.13568 5.94301 6.98697 5.94336 6.83845 5.94336C6.68974 5.94336 6.44822 5.99926 6.24399 6.22227C6.03957 6.44537 5.46362 6.98467 5.46362 8.0815C5.46362 9.17842 6.26259 10.2383 6.37391 10.3872C6.48542 10.5358 7.91622 12.8587 10.1822 13.7523C12.0655 14.4949 12.4487 14.3472 12.8574 14.31C13.2662 14.2729 14.1765 13.7709 14.3622 13.2503C14.548 12.7298 14.548 12.2835 14.4923 12.1904C14.4366 12.0975 14.2879 12.0417 14.065 11.9302C13.8419 11.8187 12.7459 11.2794 12.5416 11.205C12.3372 11.1306 12.1886 11.0935 12.0399 11.3167C11.8913 11.5397 11.4643 12.0417 11.3342 12.1904C11.2042 12.3393 11.0741 12.3579 10.8511 12.2464C10.6281 12.1346 9.91009 11.8994 9.05832 11.14C8.39555 10.5491 7.94816 9.81933 7.81805 9.59614C7.68804 9.37321 7.80417 9.25245 7.91595 9.14131C8.01612 9.04142 8.13896 8.88101 8.25047 8.7509C8.3617 8.6207 8.39881 8.5278 8.47312 8.37909C8.54752 8.2303 8.51032 8.1001 8.45461 7.98859C8.39881 7.87709 7.96558 6.77463 7.76734 6.33378Z" fill="white"/>
</g>
</g>
<defs>
<linearGradient id="paint0_linear_1288_8590" x1="866.262" y1="1739.14" x2="866.262" y2="1.45395" gradientUnits="userSpaceOnUse">
<stop stop-color="#1FAF38"/>
<stop offset="1" stop-color="#60D669"/>
</linearGradient>
<linearGradient id="paint1_linear_1288_8590" x1="896.986" y1="1801.14" x2="896.986" y2="1.14022" gradientUnits="userSpaceOnUse">
<stop stop-color="#F9F9F9"/>
<stop offset="1" stop-color="white"/>
</linearGradient>
</defs>
</svg>
