<svg width="16" height="20" viewBox="0 0 16 20" fill="none" xmlns="http://www.w3.org/2000/svg">
<path d="M3.20833 0C2.49004 0 1.80116 0.244578 1.29325 0.679931C0.785341 1.11528 0.5 1.70575 0.5 2.32143V17.6786C0.5 18.2943 0.785341 18.8847 1.29325 19.3201C1.80116 19.7554 2.49004 20 3.20833 20H12.7917C13.51 20 14.1988 19.7554 14.7067 19.3201C15.2147 18.8847 15.5 18.2943 15.5 17.6786V2.32143C15.5 1.70575 15.2147 1.11528 14.7067 0.679931C14.1988 0.244578 13.51 0 12.7917 0H3.20833ZM2.16667 2.32143C2.16667 1.82857 2.63333 1.42857 3.20833 1.42857H12.7917C13.3667 1.42857 13.8333 1.82857 13.8333 2.32143V17.6786C13.8333 18.1714 13.3667 18.5714 12.7917 18.5714H3.20833C2.63333 18.5714 2.16667 18.1714 2.16667 17.6786V2.32143ZM6.33333 15.7143C6.11232 15.7143 5.90036 15.7895 5.74408 15.9235C5.5878 16.0574 5.5 16.2391 5.5 16.4286C5.5 16.618 5.5878 16.7997 5.74408 16.9336C5.90036 17.0676 6.11232 17.1429 6.33333 17.1429H9.66667C9.88768 17.1429 10.0996 17.0676 10.2559 16.9336C10.4122 16.7997 10.5 16.618 10.5 16.4286C10.5 16.2391 10.4122 16.0574 10.2559 15.9235C10.0996 15.7895 9.88768 15.7143 9.66667 15.7143H6.33333Z" fill="#ffffff"/>
</svg>
