<svg width="25" height="20" viewBox="0 0 25 20" fill="none" xmlns="http://www.w3.org/2000/svg">
<path d="M12.4997 3.125C15.5497 3.125 17.9684 5.02083 17.9684 7.30833C17.9684 8.73333 17.5101 9.45917 16.9288 10.1192C16.7969 10.2669 16.6521 10.4225 16.4945 10.5858C15.9486 11.1567 15.2924 11.8442 14.8268 12.835C14.7317 13.0393 14.6084 13.2344 14.4591 13.4167L14.4007 13.4833C14.2732 13.6293 14.1265 13.764 13.9632 13.885C13.5403 14.195 13.032 14.375 12.4997 14.375C11.9684 14.375 11.4591 14.195 11.0351 13.885C10.8717 13.7637 10.7251 13.6288 10.5976 13.4825L10.5403 13.4158C10.391 13.2338 10.2677 13.039 10.1726 12.835C9.70697 11.8433 9.05072 11.1567 8.50488 10.585C8.35633 10.4317 8.21151 10.2761 8.07051 10.1183C7.4903 9.46 7.03092 8.73333 7.03092 7.3075C7.03092 5.02083 9.45072 3.125 12.4997 3.125ZM15.7986 14.0575C15.9986 13.8075 16.1632 13.5433 16.2893 13.2742C16.6663 12.4717 17.1413 11.9725 17.6622 11.4267C17.8393 11.2408 18.0216 11.0492 18.207 10.8383C18.9466 9.99833 19.5309 9.02583 19.5309 7.3075C19.5309 4.28417 16.3538 1.875 12.4997 1.875C8.64551 1.875 5.46842 4.28417 5.46842 7.30833C5.46842 9.025 6.0528 9.99833 6.79238 10.8383C6.9778 11.0492 7.16009 11.2408 7.33717 11.4267C7.85801 11.9725 8.33301 12.4717 8.71009 13.2742C8.83613 13.5433 9.00176 13.8075 9.20072 14.0575L9.43197 15.9042C9.50879 16.5123 9.86514 17.076 10.4319 17.4859C10.9987 17.8959 11.7356 18.1228 12.4997 18.1228C13.2638 18.1228 14.0006 17.8959 14.5674 17.4859C15.1342 17.076 15.4906 16.5123 15.5674 15.9042L15.7986 14.0575ZM14.0695 15.3325L14.0132 15.7792C13.9763 16.0798 13.8009 16.3587 13.5211 16.5616C13.2414 16.7645 12.8773 16.8768 12.4997 16.8768C12.1221 16.8768 11.758 16.7645 11.4782 16.5616C11.1985 16.3587 11.0231 16.0798 10.9861 15.7792L10.9309 15.3325C11.3997 15.5175 11.9257 15.625 12.4997 15.625C13.0726 15.625 13.5997 15.5167 14.0684 15.3325M2.52363 2.51583C2.65642 2.38869 2.84688 2.30894 3.05315 2.29409C3.25942 2.27925 3.46461 2.33053 3.62363 2.43667L5.18613 3.47833C5.33964 3.58577 5.43454 3.73696 5.45056 3.89962C5.46659 4.06228 5.40247 4.2235 5.2719 4.34885C5.14133 4.47419 4.95467 4.55372 4.75179 4.57044C4.54891 4.58716 4.3459 4.53975 4.18613 4.43833L2.62363 3.39667C2.46456 3.29055 2.36466 3.13825 2.34591 2.97323C2.32716 2.80821 2.39108 2.64316 2.52363 2.51583ZM22.4736 2.51667C22.5394 2.57973 22.589 2.65256 22.6196 2.73097C22.6502 2.80939 22.6612 2.89186 22.6519 2.97367C22.6426 3.05548 22.6132 3.13502 22.5655 3.20774C22.5177 3.28047 22.4526 3.34495 22.3736 3.3975L20.8111 4.43917C20.7327 4.49404 20.6414 4.53581 20.5425 4.56203C20.4436 4.58825 20.3392 4.59839 20.2353 4.59184C20.1315 4.58529 20.0303 4.56219 19.9378 4.5239C19.8453 4.48561 19.7632 4.43291 19.6966 4.36888C19.6299 4.30486 19.5799 4.23082 19.5495 4.1511C19.5191 4.07139 19.5089 3.98762 19.5196 3.90472C19.5303 3.82182 19.5616 3.74146 19.6116 3.66838C19.6617 3.5953 19.7295 3.53097 19.8111 3.47917L21.3736 2.4375C21.5328 2.33146 21.7381 2.28032 21.9443 2.29532C22.1506 2.31032 22.341 2.3894 22.4736 2.51667ZM1.30176 6.875C1.30176 6.70924 1.38407 6.55027 1.53058 6.43306C1.67709 6.31585 1.87581 6.25 2.08301 6.25H4.16634C4.37354 6.25 4.57226 6.31585 4.71877 6.43306C4.86528 6.55027 4.94759 6.70924 4.94759 6.875C4.94759 7.04076 4.86528 7.19973 4.71877 7.31694C4.57226 7.43415 4.37354 7.5 4.16634 7.5H2.08301C1.87581 7.5 1.67709 7.43415 1.53058 7.31694C1.38407 7.19973 1.30176 7.04076 1.30176 6.875ZM20.0518 6.875C20.0518 6.70924 20.1341 6.55027 20.2806 6.43306C20.4271 6.31585 20.6258 6.25 20.833 6.25H22.9163C23.1235 6.25 23.3223 6.31585 23.4688 6.43306C23.6153 6.55027 23.6976 6.70924 23.6976 6.875C23.6976 7.04076 23.6153 7.19973 23.4688 7.31694C23.3223 7.43415 23.1235 7.5 22.9163 7.5H20.833C20.6258 7.5 20.4271 7.43415 20.2806 7.31694C20.1341 7.19973 20.0518 7.04076 20.0518 6.875ZM5.38509 9.92917C5.47771 10.0774 5.49298 10.2489 5.42754 10.4061C5.36211 10.5633 5.22132 10.6933 5.03613 10.7675L3.47363 11.3925C3.38175 11.4299 3.28151 11.4524 3.1787 11.4587C3.07589 11.465 2.97255 11.4549 2.87463 11.4291C2.77671 11.4033 2.68614 11.3622 2.60816 11.3082C2.53018 11.2543 2.46632 11.1885 2.42026 11.1147C2.37421 11.0409 2.34687 10.9605 2.33982 10.8782C2.33277 10.7959 2.34615 10.7133 2.3792 10.6352C2.41224 10.5571 2.46429 10.4849 2.53234 10.423C2.6004 10.361 2.68311 10.3104 2.77572 10.2742L4.33822 9.64917C4.52359 9.57513 4.73814 9.56304 4.93466 9.61555C5.13118 9.66806 5.29254 9.78087 5.38509 9.92917ZM19.6153 9.92917C19.7079 9.78109 19.8701 9.66844 20.0663 9.61594C20.2626 9.56345 20.4769 9.5754 20.6622 9.64917L22.2247 10.2742C22.3173 10.3104 22.4 10.361 22.468 10.423C22.5361 10.4849 22.5882 10.5571 22.6212 10.6352C22.6542 10.7133 22.6676 10.7959 22.6606 10.8782C22.6535 10.9605 22.6262 11.0409 22.5801 11.1147C22.5341 11.1885 22.4702 11.2543 22.3922 11.3082C22.3143 11.3622 22.2237 11.4033 22.1258 11.4291C22.0278 11.4549 21.9245 11.465 21.8217 11.4587C21.7189 11.4524 21.6186 11.4299 21.5268 11.3925L19.9643 10.7675C19.7789 10.6935 19.6379 10.5635 19.5722 10.4063C19.5066 10.2491 19.5228 10.0775 19.6153 9.92917Z" fill="#ffffff"/>
</svg>
