<svg width="26" height="26" viewBox="0 0 26 26" fill="none" xmlns="http://www.w3.org/2000/svg">
<rect width="26" height="26" rx="5" fill="none"/>
<path d="M13 13.9751L10.6925 16.2393C10.0858 16.8459 9.75 17.6368 9.75 18.4818C9.75 20.2368 11.2125 21.6668 13 21.6668C14.7875 21.6668 16.25 20.2368 16.25 18.4818C16.25 17.6368 15.9142 16.8351 15.3075 16.2393L13 13.9751Z" fill="#ffffff"/>
<path opacity="0.3" d="M17.3334 6.49984L16.8567 7.09567C15.5784 8.68817 13 7.789 13 5.7415V2.1665C13 2.1665 4.33337 6.49984 4.33337 14.0832C4.33337 17.2465 6.02337 20.009 8.54754 21.5148C7.94087 20.659 7.58337 19.6082 7.58337 18.4815C7.58337 17.0515 8.14671 15.7082 9.17587 14.6898L13 10.9415L16.8242 14.7007C17.8534 15.7082 18.4167 17.0515 18.4167 18.4923C18.4167 19.5973 18.0809 20.6157 17.4959 21.4715C19.5434 20.2257 21.06 18.1565 21.515 15.7298C22.23 11.884 20.3559 8.25484 17.3334 6.49984Z" fill="#ffffff"/>
</svg>
