<svg width="24" height="24" viewBox="0 0 24 24" fill="none" xmlns="http://www.w3.org/2000/svg">
<path d="M4.615 20C4.155 20 3.771 19.846 3.463 19.538C3.155 19.23 3.00067 18.8457 3 18.385V14.5H10V16H14V14.5H21V18.385C21 18.845 20.846 19.229 20.538 19.537C20.23 19.845 19.8457 19.9993 19.385 20H4.615ZM11 15V13H13V15H11ZM3 13.5V8.615C3 8.155 3.15433 7.771 3.463 7.463C3.77167 7.155 4.15567 7.00067 4.615 7H9V5.615C9 5.155 9.15433 4.771 9.463 4.463C9.77167 4.155 10.1557 4.00067 10.615 4H13.385C13.845 4 14.2293 4.15433 14.538 4.463C14.8467 4.77167 15.0007 5.15567 15 5.615V7H19.385C19.845 7 20.229 7.15433 20.537 7.463C20.845 7.77167 20.9993 8.15567 21 8.615V13.5H14V12H10V13.5H3ZM10 7H14V5.615C14 5.46167 13.936 5.32067 13.808 5.192C13.68 5.06333 13.539 4.99933 13.385 5H10.615C10.4617 5 10.3207 5.064 10.192 5.192C10.0633 5.32 9.99933 5.461 10 5.615V7Z" fill="black"/>
</svg>
