<svg width="14" height="14" viewBox="0 0 14 14" fill="none" xmlns="http://www.w3.org/2000/svg">
<g clip-path="url(#clip0_22_54)">
<path fill-rule="evenodd" clip-rule="evenodd" d="M0.25 1.25C0.25 0.984784 0.355357 0.73043 0.542893 0.542893C0.73043 0.355357 0.984784 0.25 1.25 0.25H7.687C7.81832 0.25 7.94836 0.275866 8.06968 0.32612C8.19101 0.376375 8.30125 0.450035 8.39411 0.542893C8.48697 0.635752 8.56063 0.745991 8.61088 0.867317C8.66113 0.988642 8.687 1.11868 8.687 1.25V4.063H6.313C5.71626 4.063 5.14397 4.30005 4.72201 4.72201C4.30005 5.14397 4.063 5.71626 4.063 6.313V8.687H1.25C0.984784 8.687 0.73043 8.58164 0.542893 8.39411C0.355357 8.20657 0.25 7.95222 0.25 7.687V1.25ZM2.801 3.749H2.765C2.205 3.749 1.752 3.296 1.752 2.736V2.723C1.752 2.45778 1.85736 2.20343 2.04489 2.01589C2.23243 1.82836 2.48678 1.723 2.752 1.723H2.766C2.89909 1.72077 3.03133 1.74477 3.15514 1.79364C3.27896 1.84251 3.39194 1.91529 3.48763 2.00783C3.58332 2.10036 3.65985 2.21084 3.71285 2.33294C3.76584 2.45505 3.79427 2.58641 3.7965 2.7195C3.79873 2.85259 3.77473 2.98483 3.72586 3.10864C3.67699 3.23246 3.60421 3.34544 3.51167 3.44113C3.41914 3.53682 3.30866 3.61335 3.18656 3.66635C3.06445 3.71934 2.93309 3.74777 2.8 3.75L2.801 3.749ZM6.313 5.313C6.04778 5.313 5.79343 5.41836 5.60589 5.60589C5.41836 5.79343 5.313 6.04778 5.313 6.313V12.75C5.313 13.0152 5.41836 13.2696 5.60589 13.4571C5.79343 13.6446 6.04778 13.75 6.313 13.75H12.75C13.0152 13.75 13.2696 13.6446 13.4571 13.4571C13.6446 13.2696 13.75 13.0152 13.75 12.75V6.313C13.75 6.04778 13.6446 5.79343 13.4571 5.60589C13.2696 5.41836 13.0152 5.313 12.75 5.313H6.313ZM10.882 8.972C11.1472 8.972 11.4016 8.86664 11.5891 8.67911C11.7766 8.49157 11.882 8.23722 11.882 7.972C11.882 7.70678 11.7766 7.45243 11.5891 7.26489C11.4016 7.07736 11.1472 6.972 10.882 6.972C10.6168 6.972 10.3624 7.07736 10.1749 7.26489C9.98736 7.45243 9.882 7.70678 9.882 7.972C9.882 8.23722 9.98736 8.49157 10.1749 8.67911C10.3624 8.86664 10.6168 8.972 10.882 8.972ZM9.182 11.092C9.182 11.3572 9.07664 11.6116 8.88911 11.7991C8.70157 11.9866 8.44722 12.092 8.182 12.092C7.91678 12.092 7.66243 11.9866 7.47489 11.7991C7.28736 11.6116 7.182 11.3572 7.182 11.092C7.182 10.8268 7.28736 10.5724 7.47489 10.3849C7.66243 10.1974 7.91678 10.092 8.182 10.092C8.44722 10.092 8.70157 10.1974 8.88911 10.3849C9.07664 10.5724 9.182 10.8268 9.182 11.092Z" fill="black"/>
</g>
<defs>
<clipPath id="clip0_22_54">
<rect width="14" height="14" fill="white"/>
</clipPath>
</defs>
</svg>
