<svg width="24" height="21" viewBox="0 0 24 21" fill="none" xmlns="http://www.w3.org/2000/svg">
<g clip-path="url(#clip0_25_78)">
<path d="M3.32249 12.6287C-0.547217 13.3441 -1.13641 6.29067 3.42876 6.94614C3.61709 6.9735 3.80752 6.95035 3.98323 6.87881C8.87876 4.90607 8.00234 14.4068 4.08213 12.7181C3.8433 12.615 3.57816 12.5813 3.32249 12.6287Z" fill="black"/>
<path d="M3.7168 6.9956C3.78098 6.06026 3.61895 4.82612 4.27863 4.90082" stroke="black" stroke-width="0.42085" stroke-miterlimit="10" stroke-linecap="round"/>
<path d="M20.2882 6.58425V12.1952L16.8467 11.8585V6.39697L20.2882 6.58425Z" fill="black"/>
<path d="M23.7901 6.39697V11.8585L20.3486 12.1952V6.58425L23.7901 6.39697Z" fill="black"/>
<path d="M16.8468 0.946936V4.41263C16.8468 4.81875 16.5175 5.14912 16.1103 5.14912H14.8057C14.3996 5.14912 14.0692 4.81875 14.0692 4.41263V3.68982H9.80495V4.41263C9.80495 4.81875 9.47564 5.14912 9.06846 5.14912H7.76383C7.35666 5.14912 7.02734 4.81875 7.02734 4.41263V0.946936C7.02734 0.540816 7.35666 0.210449 7.76383 0.210449H9.06846C9.47564 0.210449 9.80495 0.540816 9.80495 0.946936V1.66975H14.0692V0.946936C14.0692 0.540816 14.3996 0.210449 14.8057 0.210449H16.1103C16.5175 0.210449 16.8468 0.540816 16.8468 0.946936Z" fill="black"/>
<path d="M12.4453 14.9093C13.9647 14.9093 15.1953 13.6787 15.1953 12.1593C15.1953 10.6399 13.9647 9.4093 12.4453 9.4093C10.9259 9.4093 9.69531 10.6399 9.69531 12.1593C9.69531 13.6787 10.9259 14.9093 12.4453 14.9093ZM12.4453 16.2843C10.6097 16.2843 6.94531 17.2056 6.94531 19.0343V20.4093H17.9453V19.0343C17.9453 17.2056 14.2809 16.2843 12.4453 16.2843Z" fill="black"/>
</g>
<defs>
<clipPath id="clip0_25_78">
<rect width="24" height="20.5985" fill="white"/>
</clipPath>
</defs>
</svg>
