<svg width="24" height="24" viewBox="0 0 24 24" fill="none" xmlns="http://www.w3.org/2000/svg">
<g clip-path="url(#clip0_22_46)">
<path fill-rule="evenodd" clip-rule="evenodd" d="M12.0002 5.76C12.764 5.76 13.4966 5.45657 14.0367 4.91647C14.5768 4.37636 14.8802 3.64382 14.8802 2.88C14.8802 2.11618 14.5768 1.38364 14.0367 0.843532C13.4966 0.303428 12.764 0 12.0002 0C11.2364 0 10.5038 0.303428 9.96373 0.843532C9.42363 1.38364 9.1202 2.11618 9.1202 2.88C9.1202 3.64382 9.42363 4.37636 9.96373 4.91647C10.5038 5.45657 11.2364 5.76 12.0002 5.76ZM7.47277 9.92229C7.80362 8.98588 8.41669 8.1751 9.22752 7.60163C10.0384 7.02816 11.0071 6.72021 12.0002 6.72021C12.9933 6.72021 13.962 7.02816 14.7729 7.60163C15.5837 8.1751 16.1968 8.98588 16.5276 9.92229H7.47277ZM3.24705 12.06C2.91763 12.0895 2.61226 12.2449 2.39442 12.4938C2.17658 12.7427 2.06304 13.0659 2.07738 13.3963C2.09173 13.7268 2.23287 14.039 2.47146 14.268C2.71005 14.4971 3.02774 14.6254 3.35848 14.6263H4.88591L5.50305 23.0263C5.51905 23.2419 5.61591 23.4434 5.77422 23.5906C5.93253 23.7378 6.14061 23.8197 6.35677 23.82H17.6436C17.8601 23.8197 18.0684 23.7375 18.2267 23.59C18.3851 23.4424 18.4818 23.2404 18.4973 23.0246L19.1145 14.6263H20.6419C20.9727 14.6254 21.2903 14.4971 21.5289 14.268C21.7675 14.039 21.9087 13.7268 21.923 13.3963C21.9374 13.0659 21.8238 12.7427 21.606 12.4938C21.3881 12.2449 21.0828 12.0895 20.7533 12.06C20.7163 12.0636 20.6791 12.0653 20.6419 12.0651H3.3602C3.32299 12.0653 3.28408 12.0636 3.24705 12.06ZM12.0002 14.9143C12.1601 14.9144 12.3167 14.9593 12.4524 15.0438C12.5882 15.1284 12.6975 15.2492 12.7682 15.3926L13.2173 16.3011L14.2219 16.4486C14.3802 16.4716 14.5289 16.5384 14.6513 16.6415C14.7736 16.7446 14.8646 16.8799 14.914 17.0321C14.9634 17.1842 14.9692 17.3472 14.9308 17.5025C14.8925 17.6578 14.8114 17.7992 14.6968 17.9109L13.9699 18.6189L14.1413 19.6183C14.1682 19.7758 14.1506 19.9377 14.0903 20.0857C14.0301 20.2337 13.9297 20.3619 13.8004 20.4559C13.6711 20.5498 13.5182 20.6058 13.3588 20.6174C13.1995 20.629 13.04 20.5959 12.8985 20.5217L12.0002 20.0486L11.1019 20.52C10.9604 20.5942 10.8009 20.6273 10.6416 20.6157C10.4822 20.6041 10.3292 20.5481 10.2 20.4542C10.0707 20.3602 9.97032 20.232 9.91008 20.084C9.84983 19.936 9.83216 19.7741 9.85905 19.6166L10.0305 18.6171L9.30363 17.9091C9.18902 17.7975 9.10794 17.6561 9.06956 17.5008C9.03117 17.3455 9.03702 17.1825 9.08643 17.0304C9.13584 16.8782 9.22684 16.7429 9.34914 16.6398C9.47145 16.5367 9.62017 16.4698 9.77848 16.4469L10.7831 16.3011L11.2322 15.3909C11.3029 15.2474 11.4122 15.1266 11.548 15.0421C11.6837 14.9576 11.8403 14.9144 12.0002 14.9143Z" fill="black"/>
</g>
<defs>
<clipPath id="clip0_22_46">
<rect width="24" height="24" fill="white"/>
</clipPath>
</defs>
</svg>
