<svg width="24" height="24" viewBox="0 0 24 24" fill="none" xmlns="http://www.w3.org/2000/svg">
<path d="M18.0039 7.50012C18.6669 7.50012 19.3028 7.23673 19.7717 6.76789C20.2405 6.29905 20.5039 5.66316 20.5039 5.00012C20.5039 4.33708 20.2405 3.7012 19.7717 3.23236C19.3028 2.76351 18.6669 2.50012 18.0039 2.50012C17.3409 2.50012 16.705 2.76351 16.2361 3.23236C15.7673 3.7012 15.5039 4.33708 15.5039 5.00012C15.5039 5.66316 15.7673 6.29905 16.2361 6.76789C16.705 7.23673 17.3409 7.50012 18.0039 7.50012Z" fill="black" stroke="black" stroke-width="2"/>
<path d="M5.99995 8.38499L10.0015 6.99899L15.5 9.62349L10.0015 13.722L15.5 17.342L12.004 21.999M17.66 10.8215L19.001 11.551L22 8.73299M8.42445 15.7725L6.93945 17.7285L2.00195 20.4985" stroke="black" stroke-width="2" stroke-linecap="round" stroke-linejoin="round"/>
</svg>
