<svg width="20" height="19" viewBox="0 0 20 19" fill="none" xmlns="http://www.w3.org/2000/svg">
<path d="M15.5977 3.9021C14.8648 3.16366 13.9928 2.57788 13.0321 2.17864C12.0713 1.7794 11.041 1.57463 10.0006 1.57618C8.95997 1.57442 7.92931 1.77909 6.9683 2.17833C6.00728 2.57758 5.135 3.16347 4.40195 3.9021C1.31524 6.98802 1.31524 12.0111 4.40195 15.0979C5.1351 15.8366 6.00751 16.4225 6.96866 16.8218C7.92982 17.221 8.96063 17.4256 10.0014 17.4238C11.0417 17.4254 12.0721 17.2208 13.0328 16.8217C13.9935 16.4226 14.8656 15.8369 15.5985 15.0986C18.6852 12.0127 18.6852 6.9896 15.5977 3.9021ZM10.1431 3.16664H9.8589C9.9072 3.16585 9.95311 3.15952 10.0014 3.15952C10.0497 3.15952 10.0948 3.16585 10.1431 3.16664ZM14.9422 13.4583H13.1665L12.1706 15.4501C11.4756 15.7061 10.7412 15.8382 10.0006 15.8404C9.25866 15.8384 8.52283 15.706 7.8267 15.4494L6.83315 13.4662H5.06378C4.411 12.6547 3.96955 11.694 3.7789 10.6701L5.24982 8.70831L4.28715 6.78218C4.5952 6.12924 5.01261 5.53377 5.52136 5.02152C6.2346 4.30604 7.10864 3.77157 8.07053 3.46272L9.99982 4.74997L11.9299 3.46352C12.8917 3.77213 13.7658 4.30633 14.4791 5.02152C14.9873 5.53312 15.4045 6.12776 15.7125 6.77981L14.7498 8.70831L16.2207 10.6701C16.031 11.6907 15.5918 12.6486 14.9422 13.4583Z" fill="#6b34ff"/>
<path d="M7.22949 8.70817L8.41699 11.8748H11.5837L12.7712 8.70817L10.0003 6.729L7.22949 8.70817Z" fill="#6b34ff"/>
</svg>
