<svg width="23" height="22" viewBox="0 0 23 22" fill="none" xmlns="http://www.w3.org/2000/svg">
<g clip-path="url(#clip0_1890_20889)">
<path d="M11.5001 0.739746L22.3489 7.79166L20.6668 8.88525V14.6667H18.8335V10.0769L17.9168 10.6727V16.0417C17.9168 17.3892 16.9873 18.4387 15.8515 19.1024C14.6919 19.778 13.152 20.1657 11.5001 20.1657C9.84828 20.1657 8.30737 19.778 7.1487 19.1024C6.01203 18.4387 5.08345 17.3882 5.08345 16.0407V10.6727L0.651367 7.79166L11.5001 0.739746ZM6.91678 11.8644V16.0417C6.91678 16.4661 7.21928 17.0197 8.0727 17.5175C8.90503 18.0033 10.1141 18.3333 11.5001 18.3333C12.8861 18.3333 14.0952 18.0033 14.9275 17.5175C15.7819 17.0197 16.0825 16.4661 16.0825 16.0417V11.8644L11.4992 14.8436L6.91678 11.8644ZM18.9847 7.79166L11.5001 2.92691L4.01553 7.79166L11.5001 12.6564L18.9847 7.79166Z" fill="#6b34ff"/>
</g>
<defs>
<clipPath id="clip0_1890_20889">
<rect width="22" height="22" fill="white" transform="translate(0.5)"/>
</clipPath>
</defs>
</svg>
