<svg width="20" height="20" viewBox="0 0 20 20" fill="none" xmlns="http://www.w3.org/2000/svg">
<path d="M2.5 1.875C2.5 1.37772 2.69754 0.900805 3.04917 0.549175C3.40081 0.197544 3.87772 0 4.375 0L13.2325 0C13.7296 0.00043763 14.2062 0.198269 14.5575 0.55L16.9513 2.9425C17.3025 3.294 17.4999 3.77057 17.5 4.2675V18.125C17.5 18.6223 17.3025 19.0992 16.9508 19.4508C16.5992 19.8025 16.1223 20 15.625 20H4.375C3.87772 20 3.40081 19.8025 3.04917 19.4508C2.69754 19.0992 2.5 18.6223 2.5 18.125V1.875ZM4.375 1.25C4.20924 1.25 4.05027 1.31585 3.93306 1.43306C3.81585 1.55027 3.75 1.70924 3.75 1.875V18.125C3.75 18.2908 3.81585 18.4497 3.93306 18.5669C4.05027 18.6842 4.20924 18.75 4.375 18.75H15.625C15.7908 18.75 15.9497 18.6842 16.0669 18.5669C16.1842 18.4497 16.25 18.2908 16.25 18.125V4.2675C16.25 4.10206 16.1843 3.94338 16.0675 3.82625L13.6737 1.4325C13.5566 1.31566 13.3979 1.25004 13.2325 1.25H4.375Z" fill="#6b34ff"/>
<path d="M6.875 5C6.70924 5 6.55027 5.06585 6.43306 5.18306C6.31585 5.30027 6.25 5.45924 6.25 5.625V7.5H9.375V5H6.875ZM10.625 5V7.5H13.75V5.625C13.75 5.45924 13.6842 5.30027 13.5669 5.18306C13.4497 5.06585 13.2908 5 13.125 5H10.625ZM13.75 8.75H6.25V11.25H13.75V8.75ZM13.75 12.5H10.625V15H13.125C13.2908 15 13.4497 14.9342 13.5669 14.8169C13.6842 14.6997 13.75 14.5408 13.75 14.375V12.5ZM9.375 15V12.5H6.25V14.375C6.25 14.5408 6.31585 14.6997 6.43306 14.8169C6.55027 14.9342 6.70924 15 6.875 15H9.375ZM5 5.625C5 5.12772 5.19754 4.65081 5.54917 4.29917C5.90081 3.94754 6.37772 3.75 6.875 3.75H13.125C13.6223 3.75 14.0992 3.94754 14.4508 4.29917C14.8025 4.65081 15 5.12772 15 5.625V14.375C15 14.8723 14.8025 15.3492 14.4508 15.7008C14.0992 16.0525 13.6223 16.25 13.125 16.25H6.875C6.37772 16.25 5.90081 16.0525 5.54917 15.7008C5.19754 15.3492 5 14.8723 5 14.375V5.625Z" fill="#6b34ff"/>
</svg>
