<svg width="21" height="21" viewBox="0 0 21 21" fill="none" xmlns="http://www.w3.org/2000/svg">
<path opacity="0.8" d="M10.1875 17.5C10.0402 17.5003 9.89313 17.4906 9.74716 17.4711C8.39891 15.3098 7.65219 12.8277 7.58416 10.2813H19.3422C19.3579 10.064 19.375 9.84616 19.375 9.625C19.375 7.80789 18.8362 6.03158 17.8266 4.5207C16.8171 3.00983 15.3822 1.83224 13.7034 1.13686C12.0246 0.441481 10.1773 0.259538 8.39511 0.614039C6.61291 0.968541 4.97586 1.84357 3.69096 3.12846C2.40607 4.41336 1.53104 6.05041 1.17654 7.83261C0.822038 9.61481 1.00398 11.4621 1.69936 13.1409C2.39474 14.8197 3.57233 16.2546 5.0832 17.2641C6.59408 18.2737 8.37039 18.8125 10.1875 18.8125V17.5ZM18.0297 8.96875H14.1007C14.0307 6.55388 13.4129 4.18649 12.2941 2.04532C13.8419 2.47704 15.2208 3.37157 16.2459 4.609C17.271 5.84643 17.8934 7.36764 18.0297 8.96875ZM10.6272 1.77888C11.9757 3.94013 12.7226 6.42224 12.7908 8.96875H7.58416C7.65239 6.42224 8.39933 3.94013 9.74782 1.77888C10.0401 1.74084 10.3362 1.74084 10.6285 1.77888M8.0816 2.04466C6.96239 4.18597 6.3444 6.55361 6.27429 8.96875H2.34532C2.48158 7.36764 3.10398 5.84643 4.12911 4.609C5.15425 3.37157 6.53312 2.47704 8.08094 2.04532M2.34532 10.2813H6.27429C6.34429 12.6961 6.96206 15.0635 8.08094 17.2047C6.53312 16.773 5.15425 15.8784 4.12911 14.641C3.10398 13.4036 2.48158 11.8824 2.34532 10.2813Z" fill="#6b34ff"/>
<path opacity="0.8" d="M15.75 12.9688C15.7914 12.9688 15.8311 12.9853 15.8604 13.0146C15.8897 13.044 15.9062 13.0836 15.9062 13.125V15.0742L16.1826 15.2129L19.1875 16.7148V16.9805L16.5918 15.9424L15.9062 15.668V18.9531L16.1064 19.1035L16.5273 19.4189L15.9082 19.2129L15.75 19.1602L15.5918 19.2129L14.9717 19.4189L15.3936 19.1035L15.5938 18.9531V15.668L14.9082 15.9424L12.3125 16.9805V16.7148L15.3174 15.2129L15.5938 15.0742V13.125C15.5938 13.0836 15.6103 13.044 15.6396 13.0146C15.6689 12.9853 15.7086 12.9688 15.75 12.9688Z" stroke="#6b34ff"/>
</svg>
