<svg width="19" height="18" viewBox="0 0 19 18" fill="none" xmlns="http://www.w3.org/2000/svg">
<g clip-path="url(#clip0_1890_20898)">
<path d="M3.3125 12.6562H5.5625V14.0625H3.3125V12.6562Z" fill="#FFB609"/>
<path d="M17.0938 4.49996H15.4625C15.6322 4.14221 15.7093 3.74753 15.6867 3.3522C15.6641 2.95688 15.5424 2.57358 15.333 2.23754C15.1235 1.9015 14.8329 1.6235 14.488 1.4291C14.143 1.23469 13.7547 1.1301 13.3588 1.12496C12.192 1.09646 11.0553 1.49671 10.1637 2.24996C9.91033 2.47094 9.68716 2.72438 9.5 3.00371C9.31284 2.72438 9.08967 2.47094 8.83625 2.24996C7.94475 1.49671 6.80802 1.09646 5.64125 1.12496C5.24531 1.1301 4.85701 1.23469 4.51204 1.4291C4.16708 1.6235 3.87651 1.9015 3.66705 2.23754C3.45758 2.57358 3.33594 2.95688 3.31331 3.3522C3.29067 3.74753 3.36776 4.14221 3.5375 4.49996H1.90625C1.53329 4.49996 1.1756 4.64812 0.911881 4.91184C0.648158 5.17556 0.5 5.53325 0.5 5.90621L0.5 15.4687C0.5 15.8417 0.648158 16.1994 0.911881 16.4631C1.1756 16.7268 1.53329 16.875 1.90625 16.875H17.0938C17.4667 16.875 17.8244 16.7268 18.0881 16.4631C18.3518 16.1994 18.5 15.8417 18.5 15.4687V5.90621C18.5 5.53325 18.3518 5.17556 18.0881 4.91184C17.8244 4.64812 17.4667 4.49996 17.0938 4.49996ZM11.0975 3.30746C11.7283 2.78406 12.5281 2.50814 13.3475 2.53121C13.6011 2.53121 13.8443 2.63196 14.0237 2.81129C14.203 2.99062 14.3038 3.23385 14.3038 3.48746C14.3038 3.74107 14.203 3.9843 14.0237 4.16363C13.8443 4.34296 13.6011 4.44371 13.3475 4.44371H10.3325C10.4808 4.00311 10.7451 3.61061 11.0975 3.30746ZM5.64125 2.53121C6.46063 2.50814 7.2604 2.78406 7.89125 3.30746C8.24203 3.60751 8.50616 3.99594 8.65625 4.43246H5.64125C5.38764 4.43246 5.14441 4.33171 4.96508 4.15238C4.78575 3.97305 4.685 3.72982 4.685 3.47621C4.685 3.2226 4.78575 2.97937 4.96508 2.80004C5.14441 2.62071 5.38764 2.51996 5.64125 2.51996V2.53121ZM1.90625 5.90621H17.0938V7.31246H1.90625V5.90621ZM1.90625 15.4687V10.125H17.0938V15.4687H1.90625Z" fill="#FFB609"/>
</g>
<defs>
<clipPath id="clip0_1890_20898">
<rect width="18" height="18" fill="white" transform="translate(0.5)"/>
</clipPath>
</defs>
</svg>
