<svg width="20" height="20" viewBox="0 0 20 20" fill="none" xmlns="http://www.w3.org/2000/svg">
<path d="M10 5.83333H15.8333C16.2754 5.83333 16.6993 6.00893 17.0118 6.32149C17.3244 6.63405 17.5 7.05797 17.5 7.5V14.1667C17.5 14.6087 17.3244 15.0326 17.0118 15.3452C16.6993 15.6577 16.2754 15.8333 15.8333 15.8333H4.16667C3.72464 15.8333 3.30072 15.6577 2.98816 15.3452C2.67559 15.0326 2.5 14.6087 2.5 14.1667V7.5C2.5 7.05797 2.67559 6.63405 2.98816 6.32149C3.30072 6.00893 3.72464 5.83333 4.16667 5.83333H10ZM10 5.83333L6.66667 2.5M10 5.83333L13.3333 2.5" stroke="#6b34ff" stroke-width="1.5" stroke-linecap="round" stroke-linejoin="round"/>
</svg>
