<svg width="28" height="28" viewBox="0 0 28 28" fill="none" xmlns="http://www.w3.org/2000/svg">
<path d="M22.5554 8.60271C22.5554 13.6108 18.6666 14.3886 18.6666 19.056C18.6666 21.4656 16.2376 21.6686 14.3888 21.6686C12.792 21.6686 9.26634 21.0627 9.26634 19.0545C9.26634 14.3894 5.44434 13.6116 5.44434 8.60271C5.44434 3.91193 9.55489 0.109375 14.0644 0.109375C18.5756 0.109375 22.5554 3.91193 22.5554 8.60271Z" fill="#E5E2E1"/>
<path d="M17.241 25.2786C17.241 25.9226 15.5035 27.223 14 27.223C12.4966 27.223 10.759 25.9226 10.759 25.2786C10.759 24.6346 12.4958 24.8897 14 24.8897C15.5043 24.8897 17.241 24.6346 17.241 25.2786Z" fill="#333333"/>
<path opacity="0.5" d="M17.6611 8.00512C17.5152 7.8593 17.3175 7.77739 17.1112 7.77739C16.905 7.77739 16.7072 7.8593 16.5613 8.00512L14.0001 10.5663L11.4389 8.00512C11.3667 7.9329 11.2809 7.87562 11.1866 7.83654C11.0922 7.79746 10.9911 7.77734 10.889 7.77734C10.7869 7.77734 10.6857 7.79746 10.5914 7.83654C10.497 7.87562 10.4113 7.9329 10.3391 8.00512C10.2669 8.07733 10.2096 8.16306 10.1705 8.25741C10.1314 8.35176 10.1113 8.45288 10.1113 8.555C10.1113 8.65713 10.1314 8.75825 10.1705 8.8526C10.2096 8.94695 10.2669 9.03268 10.3391 9.10489L13.2223 11.9881V20.2217C13.2223 20.428 13.3043 20.6258 13.4501 20.7716C13.596 20.9175 13.7938 20.9994 14.0001 20.9994C14.2064 20.9994 14.4042 20.9175 14.5501 20.7716C14.6959 20.6258 14.7779 20.428 14.7779 20.2217V11.9881L17.6611 9.10489C17.8069 8.95904 17.8888 8.76124 17.8888 8.555C17.8888 8.34877 17.8069 8.15097 17.6611 8.00512Z" fill="black"/>
<path opacity="0.5" d="M18.6666 24.112C18.6666 24.5245 18.5027 24.9202 18.211 25.2119C17.9192 25.5036 17.5236 25.6675 17.111 25.6675H10.8888C10.4762 25.6675 10.0806 25.5036 9.78886 25.2119C9.49714 24.9202 9.33325 24.5245 9.33325 24.112V19.4453H18.6666V24.112Z" fill="#333333"/>
<path d="M9.33251 24.8884C9.13775 24.8877 8.95034 24.8139 8.80734 24.6817C8.66434 24.5495 8.57616 24.3684 8.56023 24.1743C8.54429 23.9802 8.60177 23.7871 8.7213 23.6333C8.84082 23.4796 9.01369 23.3762 9.20574 23.3438L18.5391 21.7882C18.6398 21.7709 18.7431 21.7737 18.8427 21.7965C18.9424 21.8193 19.0366 21.8617 19.1198 21.9212C19.2029 21.9806 19.2735 22.056 19.3274 22.1429C19.3812 22.2298 19.4173 22.3266 19.4335 22.4275C19.4672 22.6309 19.4189 22.8394 19.299 23.0071C19.1791 23.1748 18.9975 23.2881 18.7942 23.322L9.46085 24.8775C9.41844 24.8847 9.37552 24.8884 9.33251 24.8884ZM9.33251 21.7773C9.13775 21.7766 8.95034 21.7028 8.80734 21.5706C8.66434 21.4384 8.57616 21.2573 8.56023 21.0632C8.54429 20.869 8.60177 20.676 8.7213 20.5222C8.84082 20.3685 9.01369 20.2651 9.20574 20.2326L18.5391 18.6771C18.6398 18.6599 18.743 18.6628 18.8426 18.6856C18.9423 18.7085 19.0364 18.7509 19.1196 18.8103C19.2027 18.8698 19.2733 18.9451 19.3272 19.032C19.3811 19.1188 19.4172 19.2155 19.4335 19.3164C19.4672 19.5198 19.4189 19.7283 19.299 19.896C19.1791 20.0637 18.9975 20.177 18.7942 20.2109L9.46085 21.7664C9.41844 21.7736 9.37552 21.7772 9.33251 21.7773Z" fill="#333333"/>
</svg>
