<svg width="28" height="29" viewBox="0 0 28 29" fill="none" xmlns="http://www.w3.org/2000/svg">
<path d="M1.90859 25.375H6.36562V14.1715L0 9.23242V23.4039C0 24.4971 0.858594 25.375 1.90859 25.375Z" fill="#4285F4"/>
<path d="M21.6343 25.375H26.0913C27.1468 25.375 27.9999 24.4857 27.9999 23.3982V9.23242L21.6343 14.1771" fill="#34A853"/>
<path d="M21.6343 5.60721V14.1769L27.9999 9.23221V6.59842C27.9999 4.15154 25.3038 2.75818 23.4171 4.22517" fill="#FBBC04"/>
<path d="M6.36572 14.1715V5.60742L14.0001 11.5377L21.6345 5.60742V14.1771L14.0001 20.1074" fill="#EA4335"/>
<path d="M0 6.59305V9.2325L6.36562 14.1772V5.6075L4.58281 4.2198C2.69063 2.75281 0 4.14617 0 6.59305Z" fill="#C5221F"/>
</svg>
