<svg width="28" height="28" viewBox="0 0 28 28" fill="none" xmlns="http://www.w3.org/2000/svg">
<g clip-path="url(#clip0_1089_26040)">
<path d="M14.0123 6.8663C13.7661 6.8663 13.5225 6.87886 13.2826 6.90344C13.0426 6.92802 12.806 6.96443 12.5734 7.01224C12.3408 7.06006 12.1123 7.11926 11.8884 7.18914L11.2313 7.43043L10.6056 7.73254L10.0152 8.0918L9.46354 8.50442L8.95449 8.96683L8.49163 9.47544L8.07856 10.0265L7.71886 10.6163L7.41656 11.2413C7.3257 11.455 7.24488 11.6742 7.17491 11.8979C7.10494 12.1216 7.04574 12.35 6.99784 12.5823C6.94994 12.8146 6.91352 13.051 6.88885 13.2908C6.86419 13.5306 6.85181 13.7738 6.85181 14.0198C6.85181 14.2657 6.86436 14.509 6.88885 14.7488C6.9132 14.9867 6.94958 15.2231 6.99784 15.4573C7.04574 15.6906 7.10494 15.918 7.17491 16.1417C7.24488 16.3655 7.32561 16.5845 7.41656 16.7984L7.71886 17.4233L8.07856 18.0131L8.49163 18.5642L8.95449 19.0728L9.46354 19.5352L10.0152 19.9479L10.6056 20.3071L11.2313 20.6092L11.8884 20.8505L12.5734 21.0274C12.8078 21.0756 13.0445 21.112 13.2826 21.1363C13.525 21.161 13.7686 21.1734 14.0123 21.1734C14.2585 21.1734 14.5021 21.1608 14.7419 21.1363C14.98 21.112 15.2167 21.0756 15.4511 21.0274L16.1361 20.8505L16.7933 20.6092L17.4189 20.3071L18.0094 19.9479L18.561 19.5352L19.0702 19.0728L19.533 18.5642L19.9461 18.0131L20.3058 17.4233L20.6081 16.7984L20.8497 16.1417C20.9197 15.918 20.9789 15.6897 21.0268 15.4573L21.1358 14.7487C21.1604 14.5089 21.1729 14.2657 21.1729 14.0197C21.1729 13.7737 21.1604 13.5305 21.1358 13.2907C21.1115 13.0528 21.0751 12.8164 21.0268 12.5822C20.9789 12.349 20.9197 12.1216 20.8497 11.8978L20.6081 11.2412L20.3058 10.6163L19.9461 10.0264L19.533 9.47535L19.0702 8.96674L18.561 8.50433L18.0094 8.09171L17.4189 7.73245L16.7933 7.43034L16.1361 7.18904L15.4511 7.01215L14.7419 6.90335C14.4995 6.87859 14.256 6.86619 14.0123 6.86621V6.8663ZM14.0123 9.33541C14.1751 9.33541 14.3357 9.34348 14.494 9.35945L14.9604 9.43005L15.411 9.54486L15.8425 9.70157L16.2527 9.89802L16.6384 10.1317L16.999 10.4005L17.3314 10.7021L17.6332 11.0342L17.9023 11.3944L18.1363 11.7807L18.3327 12.1906C18.3918 12.3309 18.4441 12.4747 18.4897 12.6217C18.5353 12.7687 18.5736 12.919 18.6045 13.072C18.6355 13.225 18.6583 13.3808 18.6751 13.5389L18.6992 14.0202C18.6992 14.1829 18.6911 14.3434 18.6751 14.5017C18.6592 14.6599 18.6357 14.8156 18.6045 14.9685C18.5734 15.1215 18.535 15.2717 18.4897 15.4188L18.3327 15.85L18.1363 16.2599L17.9023 16.646L17.6332 17.0064L17.3314 17.3385L16.999 17.64L16.6384 17.9089L16.2527 18.1425L15.8425 18.339L15.411 18.4957L14.9604 18.6105L14.494 18.681C14.3339 18.6971 14.1731 18.7051 14.0122 18.705C13.8513 18.7051 13.6904 18.6971 13.5303 18.681L13.0639 18.6105C12.9108 18.5795 12.7604 18.5411 12.6132 18.4957L12.1818 18.339L11.7716 18.1425L11.3858 17.9089L11.0252 17.64L10.6928 17.3385L10.391 17.0064L10.1219 16.646L9.88792 16.2599L9.69147 15.85L9.5345 15.4188L9.41968 14.9685L9.34908 14.5017C9.33303 14.3417 9.32501 14.181 9.32504 14.0202C9.32501 13.8595 9.33303 13.6988 9.34908 13.5389C9.36496 13.3808 9.38855 13.2249 9.41968 13.072C9.45049 12.9201 9.48884 12.7699 9.53459 12.6218L9.69156 12.1907L9.88801 11.7808L10.1219 11.3945L10.3911 11.0343L10.6929 10.7022L11.0253 10.4006L11.3859 10.1318L11.7716 9.89811L12.1818 9.70166C12.323 9.64237 12.4671 9.59007 12.6134 9.54495L13.0641 9.43014C13.2172 9.3991 13.3731 9.37542 13.5305 9.35954C13.6906 9.3435 13.8514 9.33548 14.0124 9.3355L14.0123 9.33541Z" fill="url(#paint0_radial_1089_26040)"/>
<path d="M21.4633 4.83154C21.4064 4.83155 21.3496 4.83443 21.293 4.84015C21.2364 4.84587 21.1802 4.85443 21.1245 4.86581C21.0688 4.87717 21.0136 4.89133 20.9593 4.90824C20.905 4.92515 20.8516 4.94479 20.7992 4.96708C20.7469 4.9894 20.6956 5.01433 20.6457 5.0418C20.5958 5.06922 20.5473 5.09912 20.5004 5.13141C20.4535 5.16374 20.4082 5.19841 20.3647 5.23529C20.3212 5.27213 20.2796 5.31114 20.24 5.35217C20.2004 5.39322 20.1629 5.43624 20.1275 5.48107C20.0922 5.5259 20.0591 5.57248 20.0284 5.62064C19.9977 5.66877 19.9694 5.7184 19.9436 5.76937C19.9178 5.82037 19.8946 5.87264 19.8739 5.92599C19.8534 5.97932 19.8354 6.03366 19.8202 6.08879C19.805 6.14393 19.7926 6.19979 19.7829 6.25618C19.7732 6.31255 19.7664 6.36937 19.7624 6.42643C19.7595 6.46685 19.7581 6.50736 19.7581 6.54788C19.7581 6.60513 19.7609 6.66234 19.7666 6.7193C19.7723 6.77624 19.7808 6.83285 19.7921 6.88893C19.8033 6.94501 19.8174 7.00048 19.8342 7.05514C19.851 7.10982 19.8705 7.16362 19.8927 7.21634C19.9148 7.26907 19.9396 7.32065 19.9669 7.37089C19.9941 7.42112 20.0239 7.46995 20.056 7.51719C20.0881 7.5644 20.1225 7.60997 20.1591 7.65372C20.1957 7.6975 20.2345 7.73941 20.2753 7.7793C20.3161 7.81916 20.3588 7.85694 20.4034 7.8925C20.4479 7.92809 20.4942 7.96141 20.542 7.99234C20.5899 8.02327 20.6393 8.05177 20.69 8.07773C20.7406 8.10371 20.7925 8.12712 20.8455 8.14788C20.8985 8.16861 20.9525 8.18667 21.0072 8.20197C21.062 8.21725 21.1175 8.22977 21.1735 8.23947C21.2296 8.24921 21.286 8.25612 21.3427 8.26019C21.3829 8.26306 21.4231 8.26449 21.4634 8.26449C21.5202 8.26451 21.577 8.26167 21.6336 8.25597C21.6902 8.25025 21.7464 8.24169 21.8022 8.23032C21.8579 8.21895 21.913 8.20479 21.9673 8.18789C22.0216 8.17097 22.0751 8.15133 22.1274 8.12904C22.1798 8.10676 22.231 8.08185 22.2809 8.05441C22.3308 8.02697 22.3793 7.99703 22.4262 7.96471C22.4731 7.93242 22.5184 7.89778 22.5619 7.86093C22.6054 7.82405 22.647 7.78502 22.6866 7.74396C22.7262 7.7029 22.7638 7.65988 22.7991 7.61506C22.8344 7.57022 22.8675 7.52364 22.8982 7.47548C22.9289 7.42733 22.9572 7.37766 22.983 7.32667C23.0088 7.27566 23.0321 7.22339 23.0527 7.17005C23.0733 7.11672 23.0912 7.06238 23.1064 7.00724C23.1216 6.95211 23.1341 6.89625 23.1437 6.83986C23.1534 6.78349 23.1602 6.72667 23.1643 6.66961C23.1671 6.62919 23.1686 6.58868 23.1686 6.54815C23.1686 6.49093 23.1657 6.43375 23.1601 6.37682C23.1544 6.31989 23.1459 6.26328 23.1346 6.2072C23.1233 6.15112 23.1092 6.09565 23.0924 6.04098C23.0756 5.9863 23.0561 5.93251 23.0339 5.87979C23.0118 5.82706 22.987 5.77548 22.9598 5.72523C22.9325 5.675 22.9028 5.62617 22.8707 5.57893C22.8386 5.53169 22.8041 5.48609 22.7674 5.44232C22.7308 5.39854 22.6921 5.35662 22.6514 5.31674C22.6106 5.27688 22.5678 5.23909 22.5233 5.20353C22.4787 5.16798 22.4324 5.13469 22.3846 5.10379C22.3367 5.07286 22.2874 5.04435 22.2367 5.01839C22.186 4.99241 22.1341 4.969 22.0811 4.94824C22.0282 4.92751 21.9742 4.90946 21.9194 4.89415C21.8646 4.87884 21.8091 4.8663 21.7531 4.85657C21.6971 4.84686 21.6406 4.83997 21.5839 4.83594C21.5438 4.83307 21.5035 4.83163 21.4633 4.83163V4.83154Z" fill="url(#paint1_radial_1089_26040)"/>
<path d="M12.6545 0.0251632C11.8757 0.0239074 11.1807 0.0271362 10.5564 0.0359269L8.88253 0.0807774C8.38667 0.102306 7.94857 0.13038 7.55532 0.166709C7.35869 0.184829 7.17319 0.205101 6.99738 0.227437C6.83007 0.248524 6.66322 0.273078 6.49693 0.301083C6.33861 0.327993 6.18836 0.357055 6.0443 0.388629C5.90024 0.420204 5.76264 0.454292 5.62988 0.49089C5.5001 0.526677 5.37133 0.566042 5.24372 0.608937C5.11868 0.651097 4.99668 0.695768 4.87621 0.743489C4.63528 0.838931 4.40026 0.946032 4.15825 1.06605C3.97203 1.15844 3.79998 1.252 3.63655 1.35103C3.47311 1.45006 3.31829 1.55465 3.16669 1.66857C3.01057 1.78647 2.8601 1.91165 2.71576 2.04371C2.56489 2.18113 2.41078 2.33227 2.25066 2.50118C2.04946 2.71225 1.87464 2.90905 1.71945 3.10218C1.64186 3.1987 1.56921 3.29414 1.50076 3.39012C1.43308 3.48471 1.36837 3.58139 1.30674 3.68003C1.24574 3.77781 1.18798 3.87737 1.13272 3.97981C1.0766 4.08402 1.02357 4.18985 0.97368 4.29717C0.8716 4.5164 0.776338 4.7525 0.681255 5.01604C0.610715 5.21087 0.547551 5.40829 0.491896 5.60789C0.435115 5.81187 0.384613 6.02527 0.339583 6.25607C0.294553 6.48687 0.255264 6.73507 0.220729 7.00956C0.183514 7.31043 0.153784 7.61219 0.131566 7.91455C0.10645 8.24698 0.0856395 8.61278 0.0685963 9.01994L0.0282309 10.3737L0.00652319 12.0239L0.000244141 14.0186L0.0186328 16.9193L0.0760415 19.117L0.120264 19.9754L0.17552 20.6867C0.193233 20.8785 0.215395 21.0697 0.241989 21.2605C0.266208 21.4298 0.292221 21.578 0.320208 21.7063C0.376995 21.9671 0.444144 22.2255 0.521497 22.4809C0.595561 22.7255 0.680259 22.9667 0.775351 23.2039C0.86882 23.4362 0.971079 23.6603 1.08231 23.876C1.19354 24.0916 1.31374 24.2988 1.44291 24.4979C1.57208 24.6969 1.71022 24.8878 1.85768 25.0705C2.00498 25.2532 2.16166 25.4282 2.32709 25.5947C2.49277 25.7616 2.66751 25.9203 2.85166 26.0712C3.038 26.2238 3.23168 26.3672 3.43203 26.5009C3.61798 26.6252 3.80195 26.739 3.98728 26.8435C4.1726 26.948 4.35954 27.0429 4.55168 27.1291C4.74382 27.2153 4.9408 27.2928 5.14657 27.3626C5.35235 27.4324 5.56673 27.4945 5.79332 27.5496C6.0199 27.6047 6.25976 27.653 6.51362 27.6952C6.76747 27.7373 7.03882 27.7735 7.32873 27.8046C7.61865 27.8357 7.92793 27.8615 8.26028 27.883C8.59262 27.9045 8.94783 27.9217 9.32951 27.9356C9.91912 27.9569 10.8116 27.9694 11.8409 27.9741L15.1728 27.9674L18.328 27.9232L19.5276 27.8895L20.3092 27.8493C20.4769 27.8356 20.6411 27.8195 20.7995 27.8006C20.9579 27.7816 21.1142 27.76 21.2663 27.7354C21.4184 27.7109 21.5672 27.6834 21.7133 27.6529C21.8577 27.6228 22.0014 27.5892 22.1442 27.5522C22.2856 27.5163 22.425 27.4755 22.5629 27.4322C22.7009 27.3888 22.8374 27.342 22.9731 27.2918C23.1096 27.2412 23.2449 27.1874 23.3788 27.1302C23.5136 27.0728 23.6482 27.0115 23.7833 26.9463C23.9908 26.8464 24.1578 26.7631 24.3045 26.6817C24.4424 26.606 24.5753 26.5214 24.7022 26.4284C24.8274 26.3362 24.9519 26.2312 25.0955 26.099C25.239 25.9668 25.4016 25.8075 25.603 25.606C25.78 25.4291 25.9292 25.2754 26.058 25.1355C26.1867 24.9957 26.2951 24.8698 26.3902 24.7486C26.4809 24.6335 26.5653 24.5137 26.6432 24.3896C26.7191 24.2685 26.7891 24.1427 26.8604 24.0032C26.9677 23.7933 27.0631 23.599 27.1486 23.4114C27.2316 23.2306 27.3075 23.0467 27.3759 22.8599C27.4434 22.6746 27.5018 22.4862 27.5509 22.2952C27.6015 22.0988 27.6451 21.8914 27.6828 21.6639C27.7205 21.4364 27.7523 21.1889 27.7799 20.9124C27.8076 20.636 27.8311 20.3304 27.8517 19.9871L27.9064 18.8348L27.9534 17.4016L27.987 15.8049L27.9999 14.1354L27.9699 10.8564L27.9298 9.38771L27.8751 8.12669L27.8069 7.14357C27.7822 6.86998 27.7555 6.65452 27.7271 6.50884C27.6957 6.34789 27.6607 6.18767 27.622 6.02832C27.5843 5.87326 27.5429 5.71914 27.4977 5.56609C27.4537 5.41697 27.4059 5.26901 27.3544 5.12233C27.3035 4.97747 27.2495 4.83565 27.1929 4.69688C27.1364 4.55812 27.0753 4.42258 27.0116 4.28991C26.9479 4.15724 26.8811 4.0278 26.8111 3.90132C26.741 3.77485 26.668 3.65151 26.5917 3.53122C26.5153 3.41093 26.4359 3.29369 26.3531 3.17959C26.2708 3.06585 26.1849 2.95472 26.0956 2.84635C26.0068 2.73857 25.9146 2.63363 25.8192 2.53168C25.7239 2.42985 25.6253 2.33107 25.5238 2.23549C25.4222 2.13986 25.3175 2.04729 25.2095 1.95777C25.1011 1.86795 24.9899 1.78153 24.8761 1.69863C24.7612 1.61487 24.6437 1.53464 24.5238 1.45805C24.4023 1.38036 24.2785 1.3063 24.1526 1.23595C24.0245 1.16442 23.8944 1.09658 23.7624 1.0325C23.5434 0.926029 23.3408 0.831576 23.142 0.747795C22.9465 0.664647 22.7472 0.590799 22.5447 0.526501C22.3411 0.462365 22.1291 0.407379 21.8959 0.359927C21.6627 0.312475 21.4084 0.272917 21.1205 0.239279C20.8327 0.205641 20.5113 0.178462 20.1437 0.155858C19.7761 0.133253 19.3627 0.115491 18.8906 0.101139L17.2862 0.0652588L15.2556 0.0413087L12.6554 0.0253411L12.6545 0.0251632ZM14.0049 2.49212L17.7547 2.51347L19.1693 2.54074C19.5588 2.55168 19.8561 2.56451 20.0304 2.57931C20.2573 2.59842 20.4735 2.62237 20.6803 2.65107C20.8787 2.67847 21.0762 2.71255 21.2723 2.75324C21.4607 2.79271 21.6404 2.83756 21.8123 2.88815C21.9843 2.93874 22.1485 2.99543 22.3061 3.05813C22.4637 3.12083 22.6144 3.18982 22.7595 3.26534C22.9033 3.3403 23.0432 3.42279 23.1784 3.51247C23.3129 3.60172 23.4426 3.69788 23.5686 3.80149C23.6945 3.90509 23.8166 4.01614 23.9358 4.1349C24.0617 4.26022 24.1777 4.38786 24.2847 4.51954C24.3914 4.65041 24.49 4.78757 24.5801 4.93028C24.6713 5.07503 24.7534 5.22527 24.8261 5.38014C24.9004 5.53801 24.9671 5.70485 25.027 5.88219C25.0869 6.05953 25.1403 6.24799 25.1876 6.44937C25.2371 6.66287 25.2786 6.87816 25.3119 7.09477C25.3478 7.32441 25.3785 7.56929 25.4045 7.83149C25.4305 8.09368 25.452 8.37328 25.4698 8.67243C25.484 8.91238 25.4963 9.22903 25.5068 9.60299L25.5331 10.8781L25.5532 14.0015L25.5303 17.1219L25.5029 18.3933L25.4651 19.3181C25.4389 19.7511 25.4113 20.1151 25.3783 20.4319C25.3617 20.5903 25.3438 20.7369 25.3238 20.8744C25.3052 21.0043 25.2831 21.1337 25.2575 21.2624C25.2342 21.3799 25.2072 21.4965 25.1764 21.6123C25.1469 21.7227 25.1137 21.8321 25.0769 21.9403C25.0398 22.049 24.9994 22.1566 24.9559 22.2629C24.9098 22.3751 24.8612 22.4863 24.8101 22.5963C24.7646 22.6945 24.7168 22.79 24.6662 22.8831C24.6162 22.9751 24.5631 23.0655 24.5069 23.154C24.4513 23.2416 24.393 23.3267 24.332 23.4092C24.2714 23.4913 24.2077 23.5713 24.1413 23.6488C24.0751 23.7261 24.0061 23.8009 23.9344 23.8731C23.8626 23.9453 23.7882 24.015 23.711 24.0823C23.6339 24.1495 23.5539 24.2141 23.4711 24.2764C23.3883 24.3386 23.3026 24.3984 23.2141 24.4556C23.1255 24.5128 23.0342 24.5677 22.9399 24.6201C22.8457 24.6725 22.7484 24.7226 22.6484 24.7702C22.5467 24.8185 22.4435 24.8638 22.339 24.906C22.2311 24.9495 22.1219 24.9901 22.0116 25.0275C21.7874 25.104 21.5508 25.1711 21.3018 25.2289C21.0423 25.2888 20.7804 25.3379 20.5168 25.3758C20.4154 25.3906 20.1824 25.4046 19.8488 25.4175L18.5772 25.4528L14.9721 25.4996L11.1987 25.5056L9.71684 25.4898L8.75462 25.4598L8.04508 25.4099C7.82478 25.3914 7.6199 25.3707 7.42794 25.3473C7.23598 25.3239 7.05721 25.2978 6.88902 25.2684C6.72963 25.2408 6.57122 25.2079 6.41405 25.1697C6.27074 25.1349 6.1289 25.0942 5.98887 25.0479C5.85387 25.003 5.72479 24.9537 5.5992 24.8994C5.47362 24.8452 5.35163 24.7857 5.2308 24.7208C5.10998 24.6558 4.9904 24.5853 4.86949 24.5084C4.77826 24.4505 4.69008 24.3918 4.60523 24.3297C4.52037 24.2675 4.43838 24.2055 4.35945 24.1406C4.28051 24.0756 4.20471 24.0087 4.13161 23.9398C4.05899 23.8713 3.98885 23.8001 3.92135 23.7265C3.85407 23.6531 3.78975 23.5776 3.72804 23.4994C3.66609 23.4209 3.60705 23.3401 3.55106 23.2572C3.49424 23.1731 3.44047 23.0869 3.38987 22.9989C3.33874 22.9101 3.29012 22.8182 3.24392 22.7235C3.19695 22.6269 3.15313 22.5289 3.11251 22.4295C3.07125 22.3283 3.03214 22.2239 2.99536 22.1161C2.92181 21.9004 2.85722 21.6707 2.80107 21.4259C2.74492 21.181 2.69702 20.9208 2.65647 20.6437C2.61593 20.3665 2.58328 20.0726 2.55726 19.7603C2.53807 19.5302 2.52282 19.1719 2.51116 18.7198L2.48676 17.1119L2.49573 13.013L2.56632 9.09627L2.62014 7.71631L2.65064 7.26018C2.66123 7.13837 2.67217 7.04813 2.68338 6.99395C2.72034 6.81571 2.75757 6.64985 2.79605 6.49458C2.83199 6.3481 2.87199 6.20264 2.91598 6.05837C2.95778 5.9222 3.00182 5.79464 3.04891 5.67382C3.09432 5.55677 3.14494 5.44181 3.2006 5.32927C3.25496 5.21984 3.31335 5.11507 3.37677 5.01308C3.44019 4.91109 3.50863 4.81215 3.58326 4.71375C3.65789 4.61534 3.73827 4.5182 3.82573 4.41971C3.91318 4.32121 4.00764 4.22174 4.11008 4.11921C4.22946 3.99914 4.35378 3.88408 4.4827 3.77431C4.60442 3.67075 4.73137 3.57347 4.86303 3.48287C4.99247 3.39317 5.12522 3.31333 5.26345 3.23996C5.40168 3.16658 5.54538 3.10029 5.69653 3.04064C5.84768 2.98099 6.00645 2.92762 6.17464 2.87918C6.35133 2.82962 6.52999 2.78733 6.71015 2.75243C6.8996 2.7153 7.1008 2.68291 7.31563 2.65466C7.53047 2.6264 7.75903 2.602 8.00337 2.58083C8.1738 2.56612 8.46749 2.55303 8.85419 2.54199L10.2616 2.51419L14.0055 2.49131L14.0049 2.49212Z" fill="url(#paint2_radial_1089_26040)"/>
</g>
<defs>
<radialGradient id="paint0_radial_1089_26040" cx="0" cy="0" r="1" gradientUnits="userSpaceOnUse" gradientTransform="translate(4.461 30.0115) rotate(-9.53101) scale(59.1768 35.92)">
<stop stop-color="#FED576"/>
<stop offset="0.263" stop-color="#F47133"/>
<stop offset="0.609" stop-color="#BC3081"/>
<stop offset="1" stop-color="#4C63D2"/>
</radialGradient>
<radialGradient id="paint1_radial_1089_26040" cx="0" cy="0" r="1" gradientUnits="userSpaceOnUse" gradientTransform="translate(4.46107 30.0117) rotate(-9.53101) scale(59.1768 35.92)">
<stop stop-color="#FED576"/>
<stop offset="0.263" stop-color="#F47133"/>
<stop offset="0.609" stop-color="#BC3081"/>
<stop offset="1" stop-color="#4C63D2"/>
</radialGradient>
<radialGradient id="paint2_radial_1089_26040" cx="0" cy="0" r="1" gradientUnits="userSpaceOnUse" gradientTransform="translate(4.46107 30.0115) rotate(-9.53101) scale(59.1768 35.92)">
<stop stop-color="#FED576"/>
<stop offset="0.263" stop-color="#F47133"/>
<stop offset="0.609" stop-color="#BC3081"/>
<stop offset="1" stop-color="#4C63D2"/>
</radialGradient>
<clipPath id="clip0_1089_26040">
<rect width="28" height="28" fill="white"/>
</clipPath>
</defs>
</svg>
