<svg width="27" height="28" viewBox="0 0 27 28" fill="none" xmlns="http://www.w3.org/2000/svg">
<path d="M26.8783 13.5065C26.7532 9.96394 25.3113 6.60831 22.8529 4.14062C20.3946 1.67294 17.1103 0.283339 13.6858 0.26221H13.6209C11.3148 0.260585 9.04802 0.880351 7.04344 2.06029C5.03886 3.24077 3.36559 4.9408 2.18848 6.9935C1.01138 9.0462 0.371276 11.3812 0.330452 13.7676C0.289627 16.1546 0.849654 18.5106 1.95558 20.6056L0.78109 27.8803C0.778996 27.8949 0.780566 27.9101 0.784753 27.9247C0.788941 27.9393 0.796268 27.9523 0.805689 27.9637C0.81511 27.9751 0.827148 27.9843 0.840233 27.9902C0.853317 27.9967 0.867972 28 0.882104 28H0.902516L7.85365 26.3997C9.64992 27.2919 11.6163 27.7551 13.6088 27.7546H13.9888C15.7411 27.7026 17.4667 27.2925 19.0652 26.5465C20.6636 25.801 22.1034 24.7348 23.302 23.4103C24.5006 22.0857 25.4332 20.5281 26.0472 18.8287C26.6611 17.1286 26.9437 15.3197 26.8783 13.5065ZM13.9223 25.3638H13.6083C11.8476 25.366 10.1121 24.9299 8.54819 24.0923L8.1928 23.9L3.47864 25.0529L4.34851 20.1164L4.14648 19.7621C3.18135 18.0594 2.66163 16.1258 2.6386 14.1517C2.61505 12.1775 3.08924 10.2316 4.01354 8.50445C4.93785 6.77734 6.28086 5.32977 7.91017 4.30369C9.53948 3.27761 11.3991 2.70823 13.3058 2.65243H13.6251C16.5037 2.6611 19.2635 3.83995 21.31 5.93546C23.3564 8.03042 24.5262 10.8741 24.567 13.8532C24.6073 16.8323 23.5161 19.709 21.5272 21.863C19.5383 24.017 16.812 25.2761 13.9349 25.3692L13.9229 25.3649L13.9223 25.3638Z" fill="#25D366"/>
<path d="M8.99138 7.37201C8.82703 7.37526 8.66531 7.41264 8.51562 7.48199C8.36593 7.55133 8.23089 7.65101 8.11889 7.77507C7.80224 8.11096 6.91771 8.9198 6.86642 10.6177C6.81512 12.3155 7.96135 13.9955 8.1215 14.2312C8.28166 14.4668 10.3129 18.135 13.6584 19.6221C15.6248 20.4992 16.4868 20.6499 17.0458 20.6499C17.2761 20.6499 17.4499 20.6249 17.6315 20.6136C18.2444 20.5745 19.6277 19.841 19.9292 19.0436C20.2312 18.2461 20.251 17.5489 20.1715 17.4096C20.0919 17.2704 19.8737 17.1696 19.545 16.9914C19.2163 16.8132 17.6043 15.9209 17.3012 15.7952C17.1887 15.741 17.0678 15.7085 16.9443 15.6993C16.8637 15.7036 16.7857 15.728 16.7161 15.7708C16.647 15.8136 16.5889 15.8732 16.5465 15.9442C16.277 16.2914 15.6588 17.0456 15.4516 17.2633C15.406 17.3175 15.3506 17.3609 15.2877 17.3912C15.2249 17.4215 15.1569 17.4378 15.0878 17.4389C14.9606 17.4329 14.8361 17.3982 14.723 17.337C13.7464 16.908 12.8561 16.2931 12.0977 15.5249C11.3895 14.8022 10.7882 13.9749 10.3145 13.0696C10.1313 12.718 10.3145 12.5371 10.4815 12.3724C10.6484 12.2077 10.8274 11.9807 11.0001 11.7841C11.1415 11.6161 11.2597 11.4287 11.3503 11.2266C11.3974 11.1329 11.4209 11.0283 11.4194 10.9227C11.4178 10.817 11.3906 10.7135 11.3409 10.6214C11.2613 10.4459 10.6673 8.71827 10.3888 8.02536C10.1627 7.43269 9.89318 7.41318 9.65765 7.3953C9.46347 7.38122 9.24156 7.37418 9.01912 7.36768H8.99085" fill="#25D366"/>
</svg>
