<svg width="24" height="24" viewBox="0 0 24 24" fill="none" xmlns="http://www.w3.org/2000/svg">
<rect width="24" height="24" rx="12" fill="#6B34FF" fill-opacity="0.1"/>
<path d="M10.929 19C8.1346 19 6.7367 19 5.868 18.1796C5 17.3599 5 16.0397 5 13.4V10.6C5 7.9603 5 6.6401 5.868 5.8204C6.7367 5 8.1346 5 10.929 5H11.671C14.4661 5 15.8633 5 16.732 5.8204C17.6 6.6401 17.6 7.9603 17.6 10.6M10.95 19H12M8.5 8.5H14.1M8.5 12H12" stroke="#6B34FF" stroke-linecap="round" stroke-linejoin="round"/>
<path d="M15.1501 16.6142L14.5187 18.8213C14.5123 18.8463 14.513 18.8726 14.5207 18.8973C14.5283 18.9219 14.5427 18.944 14.5621 18.961C14.5815 18.978 14.6052 18.9894 14.6307 18.9937C14.6562 18.9981 14.6823 18.9953 14.7063 18.9858L16.0958 18.4307C16.1627 18.4038 16.2375 18.4038 16.3044 18.4307L17.7072 18.9907C17.7307 19 17.7562 19.0029 17.7812 18.9989C17.8061 18.9949 17.8295 18.9842 17.8489 18.968C17.8683 18.9518 17.8829 18.9306 17.8912 18.9067C17.8996 18.8829 17.9013 18.8572 17.8962 18.8325L17.3614 16.5449M18.3001 14.7977C18.2992 14.2413 18.0775 13.7081 17.6838 13.315C17.2901 12.9219 16.7564 12.7012 16.2001 12.7012C15.0402 12.7012 14.1001 13.6399 14.1001 14.7977C14.1003 15.0732 14.1548 15.3461 14.2604 15.6006C14.366 15.8551 14.5208 16.0863 14.7158 16.2809C14.9108 16.4756 15.1423 16.63 15.3969 16.7352C15.6516 16.8404 15.9245 16.8944 16.2001 16.8942C17.36 16.8942 18.3001 15.9562 18.3001 14.7977Z" stroke="#6B34FF" stroke-linecap="round" stroke-linejoin="round"/>
</svg>
