<svg width="24" height="24" viewBox="0 0 24 24" fill="none" xmlns="http://www.w3.org/2000/svg">
<rect width="24" height="24" rx="12" fill="#6B34FF" fill-opacity="0.1"/>
<path d="M15.6256 9.22808L15.9497 8.90328C16.2078 8.64513 16.5578 8.50007 16.9228 8.5C17.2878 8.49993 17.6379 8.64487 17.8961 8.90293C18.1542 9.16098 18.2993 9.51102 18.2993 9.87603C18.2994 10.241 18.1545 10.5911 17.8964 10.8493L17.5723 11.1741M15.6256 9.22808C15.6256 9.22808 15.6662 9.91688 16.2745 10.5252C16.8828 11.1335 17.5723 11.1741 17.5723 11.1741M15.6256 9.22808L12.6436 12.2101C12.4406 12.4117 12.3398 12.5132 12.253 12.6245C12.1503 12.7561 12.0631 12.8975 11.9912 13.0487C11.9303 13.1761 11.8855 13.3112 11.7952 13.5821L11.5061 14.4501L11.4123 14.7308M17.5723 11.1741L14.5903 14.1561C14.3873 14.3591 14.2865 14.4599 14.1752 14.5467C14.0436 14.6493 13.9022 14.7366 13.751 14.8085C13.6236 14.8694 13.4885 14.9142 13.2176 15.0045L12.3496 15.2936L12.0689 15.3874M11.4123 14.7308L11.3192 15.0122C11.2975 15.0775 11.2944 15.1476 11.3103 15.2145C11.3261 15.2815 11.3603 15.3427 11.409 15.3914C11.4576 15.4401 11.5189 15.4742 11.5858 15.4901C11.6528 15.506 11.7229 15.5029 11.7882 15.4812L12.0689 15.3874M11.4123 14.7308L12.0689 15.3874" stroke="#6B34FF"/>
<path d="M8.5 12.7H10.25M8.5 9.9H13.05M8.5 15.5H9.55001M16.7796 5.8204C15.9599 5 14.6397 5 12 5H10.6C7.9603 5 6.6401 5 5.8204 5.8204C5.0007 6.6408 5 7.9603 5 10.6V13.4C5 16.0397 5 17.3599 5.8204 18.1796C6.6408 18.9993 7.9603 19 10.6 19H12C14.6397 19 15.9599 19 16.7796 18.1796C17.4404 17.5195 17.5685 16.536 17.5937 14.8" stroke="#6B34FF" stroke-linecap="round"/>
</svg>
