<svg width="24" height="24" viewBox="0 0 24 24" fill="none" xmlns="http://www.w3.org/2000/svg">
<rect width="24" height="24" rx="12" fill="#6B34FF" fill-opacity="0.1"/>
<path d="M16.6667 11.6667V7.49933C16.6667 7.44671 16.6564 7.39459 16.6362 7.34598C16.6161 7.29736 16.5866 7.25319 16.5493 7.216L14.4507 5.11733C14.3757 5.0423 14.2741 5.00009 14.168 5H6.4C6.29391 5 6.19217 5.04214 6.11716 5.11716C6.04214 5.19217 6 5.29391 6 5.4V17.9333C6 18.0394 6.04214 18.1412 6.11716 18.2162C6.19217 18.2912 6.29391 18.3333 6.4 18.3333H12M8.66667 10.3333H14M8.66667 7.66667H11.3333M8.66667 13H10.6667" stroke="#6B34FF" stroke-linecap="round" stroke-linejoin="round"/>
<path d="M14 5V7.26667C14 7.37275 14.0421 7.47449 14.1172 7.54951C14.1922 7.62452 14.2939 7.66667 14.4 7.66667H16.6667M16.6613 13.75L18.3653 14.1827C18.5427 14.228 18.6673 14.3893 18.662 14.572C18.5473 18.4107 16.3333 19 16.3333 19C16.3333 19 14.1193 18.4107 14.0047 14.572C14.0028 14.4831 14.0312 14.3963 14.0851 14.3256C14.1389 14.2549 14.2152 14.2045 14.3013 14.1827L16.0053 13.75C16.2207 13.6953 16.446 13.6953 16.6613 13.75Z" stroke="#6B34FF" stroke-linecap="round" stroke-linejoin="round"/>
</svg>
